<?xml version="1.0" standalone="no"?> <!DOCTYPE svg PUBLIC "-//W3C//DTD SVG 1.1//EN" "http://www.w3.org/Graphics/SVG/1.1/DTD/svg11.dtd">  <svg id="svg" width="744.0945" height="1052.362"> 	<text x="70.86614" y="103.29921" font-size="12" fill="#252525" >gDNA</text><text x="70.86614" y="298.181095" font-size="12" fill="#252525" >mtDNA</text><text x="143.73314368586" y="85.039368" font-size="9" fill="black" >1</text> <text x="188.613802043661" y="85.039368" font-size="9" fill="black" >2</text> <text x="229.109762321569" y="85.039368" font-size="9" fill="black" >3</text> <text x="260.319148272765" y="85.039368" font-size="9" fill="black" >4</text> <text x="278.349813572224" y="85.039368" font-size="9" fill="black" >5</text> <text x="289.226559465745" y="85.039368" font-size="9" fill="black" >6</text> <text x="315.296738111476" y="85.039368" font-size="9" fill="black" >7</text> <text x="350.805211047513" y="85.039368" font-size="9" fill="black" >8</text> <text x="372.240512357008" y="85.039368" font-size="9" fill="black" >8</text> <text x="394.174762255571" y="85.039368" font-size="9" fill="black" >9</text> <text x="418.43819818366" y="85.039368" font-size="9" fill="black" >11</text> <text x="449.180043520257" y="85.039368" font-size="9" fill="black" >12</text> <text x="486.170544253227" y="85.039368" font-size="9" fill="black" >13</text> <text x="524.117405066594" y="85.039368" font-size="9" fill="black" >14</text> <text x="558.222942867353" y="85.039368" font-size="9" fill="black" >15</text> <text x="583.436099240421" y="85.039368" font-size="9" fill="black" >16</text> <text x="605.956876468256" y="85.039368" font-size="9" fill="black" >17</text> <text x="626.83413769093" y="85.039368" font-size="9" fill="black" >18</text> <text x="644.606644430775" y="85.039368" font-size="9" fill="black" >19</text> <text x="658.280003828227" y="85.039368" font-size="9" fill="black" >20</text> <text x="667.284033680277" y="85.039368" font-size="9" fill="black" >21</text> <text x="NA" y="310.0393625" font-size="9" fill="black" >NA</text> <text x="NA" y="310.0393625" font-size="9" fill="black" >NA</text> <text x="NA" y="310.0393625" font-size="9" fill="black" >NA</text> <text x="NA" y="310.0393625" font-size="9" fill="black" >NA</text> <text x="NA" y="310.0393625" font-size="9" fill="black" >NA</text> <text x="NA" y="310.0393625" font-size="9" fill="black" >NA</text> <text x="NA" y="310.0393625" font-size="9" fill="black" >NA</text> <text x="NA" y="310.0393625" font-size="9" fill="black" >NA</text> <text x="NA" y="310.0393625" font-size="9" fill="black" >NA</text> <text x="NA" y="310.0393625" font-size="9" fill="black" >NA</text> <text x="NA" y="310.0393625" font-size="9" fill="black" >NA</text> <text x="NA" y="310.0393625" font-size="9" fill="black" >NA</text> <text x="NA" y="310.0393625" font-size="9" fill="black" >NA</text> <text x="NA" y="310.0393625" font-size="9" fill="black" >NA</text> <text x="NA" y="310.0393625" font-size="9" fill="black" >NA</text> <text x="NA" y="310.0393625" font-size="9" fill="black" >NA</text> <text x="NA" y="310.0393625" font-size="9" fill="black" >NA</text> <text x="NA" y="310.0393625" font-size="9" fill="black" >NA</text> <text x="NA" y="310.0393625" font-size="9" fill="black" >NA</text> <text x="NA" y="310.0393625" font-size="9" fill="black" >NA</text> <text x="NA" y="310.0393625" font-size="9" fill="black" >NA</text> <text x="NA" y="310.0393625" font-size="9" fill="black" >NA</text> <text x="NA" y="310.0393625" font-size="9" fill="black" >NA</text> <text x="NA" y="310.0393625" font-size="9" fill="black" >NA</text> <text x="NA" y="310.0393625" font-size="9" fill="black" >NA</text> <text x="NA" y="310.0393625" font-size="9" fill="black" >NA</text> <text x="NA" y="310.0393625" font-size="9" fill="black" >NA</text> <text x="NA" y="310.0393625" font-size="9" fill="black" >NA</text> <text x="NA" y="310.0393625" font-size="9" fill="black" >NA</text> <text x="NA" y="310.0393625" font-size="9" fill="black" >NA</text> <text x="NA" y="310.0393625" font-size="9" fill="black" >NA</text> <text x="NA" y="310.0393625" font-size="9" fill="black" >NA</text> <text x="NA" y="310.0393625" font-size="9" fill="black" >NA</text> <text x="NA" y="310.0393625" font-size="9" fill="black" >NA</text> <text x="NA" y="310.0393625" font-size="9" fill="black" >NA</text> <text x="NA" y="310.0393625" font-size="9" fill="black" >NA</text> <text x="NA" y="310.0393625" font-size="9" fill="black" >NA</text> <text x="NA" y="310.0393625" font-size="9" fill="black" >NA</text><path d="M 457.699370612535 106.29921 Q 457.699370612535 159.448815 290.857557806267 194.881885 T 124.015745 283.46456 L 125.664425508437 283.46456 Q 125.664425508437 230.314955 291.681905786402 194.881885 T 457.699386064366 106.29921 Z" stroke="#494FDB" fill="#494FDB" style="stroke-width: 0.5px;"/> <path d="M 457.699370612535 106.29921 Q 457.699370612535 159.448815 293.465674211283 194.881885 T 129.231977810032 283.46456 L 132.820282446042 283.46456 Q 132.820282446042 230.314955 295.259843212787 194.881885 T 457.699403979533 106.29921 Z" stroke="#494FDB" fill="#494FDB" style="stroke-width: 0.5px;"/> <path d="M 140.949358062387 106.29921 Q 140.949358062387 159.448815 139.442699572452 194.881885 T 137.936041082517 283.46456 L 146.858312069353 283.46456 Q 146.858312069353 230.314955 143.903876382724 194.881885 T 140.949440696094 106.29921 Z" stroke="#340499" fill="#340499" style="stroke-width: 0.5px;"/> <path d="M 660.466152999394 106.29921 Q 660.466152999394 159.448815 408.755492352843 194.881885 T 157.044831706292 283.46456 L 157.55398303978 283.46456 Q 157.55398303978 230.314955 409.010070482922 194.881885 T 660.466157926065 106.29921 Z" stroke="#BAB507" fill="#BAB507" style="stroke-width: 0.5px;"/> <path d="M 660.466152999394 106.29921 Q 660.466152999394 159.448815 410.793844170384 194.881885 T 161.121535341374 283.46456 L 172.201638170136 283.46456 Q 172.201638170136 230.314955 416.33394686693 194.881885 T 660.466255563724 106.29921 Z" stroke="#BAB507" fill="#BAB507" style="stroke-width: 0.5px;"/> <path d="M 140.949440472154 106.29921 Q 140.949440472154 159.448815 153.569121923407 194.881885 T 166.188803374659 283.46456 L 177.947774648072 283.46456 Q 177.947774648072 230.314955 159.448661977432 194.881885 T 140.949549306792 106.29921 Z" stroke="#1B0612" fill="#1B0612" style="stroke-width: 0.5px;"/> <path d="M 660.466285123749 106.29921 Q 660.466285123749 159.448815 422.407409696406 194.881885 T 184.348534269063 283.46456 L 184.324288967469 283.46456 Q 184.324288967469 230.314955 422.395356019 194.881885 T 660.466423070532 106.29921 Z" stroke="#625780" fill="#625780" style="stroke-width: 0.5px;"/> <path d="M 490.12357718627 106.29921 Q 490.12357718627 159.448815 339.454500823579 194.881885 T 188.785424460887 283.46456 L 197.344015923804 283.46456 Q 197.344015923804 230.314955 343.733836192343 194.881885 T 490.123656460882 106.29921 Z" stroke="#87359B" fill="#87359B" style="stroke-width: 0.5px;"/> <path d="M 560.99418481082 106.29921 Q 560.99418481082 159.448815 378.878156748176 194.881885 T 196.762128685532 283.46456 L 196.737883383937 283.46456 Q 196.737883383937 230.314955 378.866067576346 194.881885 T 560.994251768755 106.29921 Z" stroke="#74269F" fill="#74269F" style="stroke-width: 0.5px;"/> <path d="M 560.99418481082 106.29921 Q 560.99418481082 159.448815 381.99542448668 194.881885 T 202.99666416254 283.46456 L 204.790816480545 283.46456 Q 204.790816480545 230.314955 382.892509043417 194.881885 T 560.994201606288 106.29921 Z" stroke="#74269F" fill="#74269F" style="stroke-width: 0.5px;"/> <path d="M 560.99418481082 106.29921 Q 560.99418481082 159.448815 384.67627679648 194.881885 T 208.35836878214 283.46456 L 209.667615068252 283.46456 Q 209.667615068252 230.314955 385.330906097874 194.881885 T 560.994197127497 106.29921 Z" stroke="#74269F" fill="#74269F" style="stroke-width: 0.5px;"/> <path d="M 140.980057939893 106.29921 Q 140.980057939893 159.448815 168.871093312712 194.881885 T 196.762128685532 283.46456 L 196.737883383937 283.46456 Q 196.737883383937 230.314955 168.858998990272 194.881885 T 140.980114596607 106.29921 Z" stroke="#63FE2F" fill="#63FE2F" style="stroke-width: 0.5px;"/> <path d="M 140.980057939893 106.29921 Q 140.980057939893 159.448815 171.988361051216 194.881885 T 202.99666416254 283.46456 L 204.790816480545 283.46456 Q 204.790816480545 230.314955 172.885445607953 194.881885 T 140.980074735361 106.29921 Z" stroke="#63FE2F" fill="#63FE2F" style="stroke-width: 0.5px;"/> <path d="M 140.980057939893 106.29921 Q 140.980057939893 159.448815 174.669213361016 194.881885 T 208.35836878214 283.46456 L 219.8991323412 283.46456 Q 219.8991323412 230.314955 180.439648550137 194.881885 T 140.980164759074 106.29921 Z" stroke="#63FE2F" fill="#63FE2F" style="stroke-width: 0.5px;"/> <path d="M 140.949941201063 106.29921 Q 140.949941201063 159.448815 168.856034943298 194.881885 T 196.762128685532 283.46456 L 196.737883383937 283.46456 Q 196.737883383937 230.314955 168.843936030096 194.881885 T 140.949988676255 106.29921 Z" stroke="#86FCDF" fill="#86FCDF" style="stroke-width: 0.5px;"/> <path d="M 140.949941201063 106.29921 Q 140.949941201063 159.448815 171.973302681801 194.881885 T 202.99666416254 283.46456 L 204.790816480545 283.46456 Q 204.790816480545 230.314955 172.870387238538 194.881885 T 140.949957996532 106.29921 Z" stroke="#86FCDF" fill="#86FCDF" style="stroke-width: 0.5px;"/> <path d="M 140.949941201063 106.29921 Q 140.949941201063 159.448815 174.654154991601 194.881885 T 208.35836878214 283.46456 L 211.073842560742 283.46456 Q 211.073842560742 230.314955 176.011904533489 194.881885 T 140.949966506236 106.29921 Z" stroke="#86FCDF" fill="#86FCDF" style="stroke-width: 0.5px;"/> <path d="M 256.188460892816 106.29921 Q 256.188460892816 159.448815 243.511112126605 194.881885 T 230.833763360394 283.46456 L 231.391405297072 283.46456 Q 231.391405297072 230.314955 243.789935782219 194.881885 T 256.188466267366 106.29921 Z" stroke="#DD0FD0" fill="#DD0FD0" style="stroke-width: 0.5px;"/> <path d="M 256.188460892816 106.29921 Q 256.188460892816 159.448815 245.573709245741 194.881885 T 234.958957598666 283.46456 L 236.631883408698 283.46456 Q 236.631883408698 230.314955 246.410179988642 194.881885 T 256.188476568587 106.29921 Z" stroke="#DD0FD0" fill="#DD0FD0" style="stroke-width: 0.5px;"/> <path d="M 256.188460892816 106.29921 Q 256.188460892816 159.448815 248.193948301554 194.881885 T 240.199435710293 283.46456 L 241.920852123514 283.46456 Q 241.920852123514 230.314955 249.05466456999 194.881885 T 256.188477016466 106.29921 Z" stroke="#DD0FD0" fill="#DD0FD0" style="stroke-width: 0.5px;"/> <path d="M 256.188460892816 106.29921 Q 256.188460892816 159.448815 250.838432658962 194.881885 T 245.488404425109 283.46456 L 246.240008774543 283.46456 Q 246.240008774543 230.314955 251.214238416713 194.881885 T 256.188468058882 106.29921 Z" stroke="#DD0FD0" fill="#DD0FD0" style="stroke-width: 0.5px;"/> <path d="M 260.084390901046 106.29921 Q 260.084390901046 159.448815 250.14191330567 194.881885 T 240.199435710293 283.46456 L 241.920852123514 283.46456 Q 241.920852123514 230.314955 251.002625095314 194.881885 T 260.084398067113 106.29921 Z" stroke="#BA6BF5" fill="#BA6BF5" style="stroke-width: 0.5px;"/> <path d="M 260.084390901046 106.29921 Q 260.084390901046 159.448815 252.786397663078 194.881885 T 245.488404425109 283.46456 L 247.137084933546 283.46456 Q 247.137084933546 230.314955 253.610745643212 194.881885 T 260.084406352878 106.29921 Z" stroke="#BA6BF5" fill="#BA6BF5" style="stroke-width: 0.5px;"/> <path d="M 260.084390901046 106.29921 Q 260.084390901046 159.448815 255.394514068094 194.881885 T 250.704637235141 283.46456 L 275.847014988808 283.46456 Q 275.847014988808 230.314955 267.965819169571 194.881885 T 260.084623350334 106.29921 Z" stroke="#BA6BF5" fill="#BA6BF5" style="stroke-width: 0.5px;"/> <path d="M 260.084390901046 106.29921 Q 260.084390901046 159.448815 269.749479095725 194.881885 T 279.414567290403 283.46456 L 281.014757195651 283.46456 Q 281.014757195651 230.314955 270.549580094717 194.881885 T 260.084402993784 106.29921 Z" stroke="#BA6BF5" fill="#BA6BF5" style="stroke-width: 0.5px;"/> <path d="M 635.730956939908 106.29921 Q 635.730956939908 159.448815 449.254877184596 194.881885 T 262.778797429284 283.46456 L 271.555596606553 283.46456 Q 271.555596606553 230.314955 453.643317418265 194.881885 T 635.731038229976 106.29921 Z" stroke="#C2C93D" fill="#C2C93D" style="stroke-width: 0.5px;"/> <path d="M 635.730956939908 106.29921 Q 635.730956939908 159.448815 457.572762115155 194.881885 T 279.414567290403 283.46456 L 281.014757195651 283.46456 Q 281.014757195651 230.314955 458.372864569755 194.881885 T 635.73097194386 106.29921 Z" stroke="#C2C93D" fill="#C2C93D" style="stroke-width: 0.5px;"/> <path d="M 635.730956939908 106.29921 Q 635.730956939908 159.448815 460.156633218577 194.881885 T 284.582309497246 283.46456 L 286.109763497709 283.46456 Q 286.109763497709 230.314955 460.920367384875 194.881885 T 635.730971272041 106.29921 Z" stroke="#C2C93D" fill="#C2C93D" style="stroke-width: 0.5px;"/> <path d="M 255.153709529539 106.29921 Q 255.153709529539 159.448815 258.966253479412 194.881885 T 262.778797429284 283.46456 L 271.555596606553 283.46456 Q 271.555596606553 230.314955 263.35469371308 194.881885 T 255.153790819608 106.29921 Z" stroke="#0D1983" fill="#0D1983" style="stroke-width: 0.5px;"/> <path d="M 255.153709529539 106.29921 Q 255.153709529539 159.448815 267.284138409971 194.881885 T 279.414567290403 283.46456 L 281.014757195651 283.46456 Q 281.014757195651 230.314955 268.084240864571 194.881885 T 255.153724533491 106.29921 Z" stroke="#0D1983" fill="#0D1983" style="stroke-width: 0.5px;"/> <path d="M 255.153709529539 106.29921 Q 255.153709529539 159.448815 269.868009513392 194.881885 T 284.582309497246 283.46456 L 286.182499402493 283.46456 Q 286.182499402493 230.314955 270.668111967992 194.881885 T 255.153724533491 106.29921 Z" stroke="#0D1983" fill="#0D1983" style="stroke-width: 0.5px;"/> <path d="M 255.153709529539 106.29921 Q 255.153709529539 159.448815 272.451880616814 194.881885 T 289.750051704088 283.46456 L 291.495713418904 283.46456 Q 291.495713418904 230.314955 273.324719648016 194.881885 T 255.153725877129 106.29921 Z" stroke="#0D1983" fill="#0D1983" style="stroke-width: 0.5px;"/> <path d="M 255.153709529539 106.29921 Q 255.153709529539 159.448815 275.108487625019 194.881885 T 295.063265720499 283.46456 L 296.711946228936 283.46456 Q 296.711946228936 230.314955 275.932835605153 194.881885 T 255.153724981371 106.29921 Z" stroke="#0D1983" fill="#0D1983" style="stroke-width: 0.5px;"/> <path d="M 255.153709529539 106.29921 Q 255.153709529539 159.448815 277.716604030035 194.881885 T 300.279498530531 283.46456 L 301.855443134184 283.46456 Q 301.855443134184 230.314955 278.504583721868 194.881885 T 255.153724309552 106.29921 Z" stroke="#0D1983" fill="#0D1983" style="stroke-width: 0.5px;"/> <path d="M 255.153709529539 106.29921 Q 255.153709529539 159.448815 280.288352482659 194.881885 T 305.422995435778 283.46456 L 323.922160552508 283.46456 Q 323.922160552508 230.314955 289.538020585945 194.881885 T 255.153880619381 106.29921 Z" stroke="#0D1983" fill="#0D1983" style="stroke-width: 0.5px;"/> <path d="M 560.99581374735 106.29921 Q 560.99581374735 159.448815 442.798421372254 194.881885 T 324.601028997159 283.46456 L 324.576783695564 283.46456 Q 324.576783695564 230.314955 442.786375868644 194.881885 T 560.995968041723 106.29921 Z" stroke="#7CA7AE" fill="#7CA7AE" style="stroke-width: 0.5px;"/> <path d="M 420.023773415179 106.29921 Q 420.023773415179 159.448815 372.312401206169 194.881885 T 324.601028997159 283.46456 L 324.576783695564 283.46456 Q 324.576783695564 230.314955 372.300375409241 194.881885 T 420.023967122919 106.29921 Z" stroke="#C37E08" fill="#C37E08" style="stroke-width: 0.5px;"/> <path d="M 477.701661476745 106.29921 Q 477.701661476745 159.448815 398.544975315525 194.881885 T 319.388289154306 283.46456 L 322.418951853639 283.46456 Q 322.418951853639 230.314955 400.060320773386 194.881885 T 477.701689693133 106.29921 Z" stroke="#3FA03D" fill="#3FA03D" style="stroke-width: 0.5px;"/> <path d="M 140.947828555032 106.29921 Q 140.947828555032 159.448815 232.774428776095 194.881885 T 324.601028997159 283.46456 L 324.576783695564 283.46456 Q 324.576783695564 230.314955 232.762386295669 194.881885 T 140.947988895774 106.29921 Z" stroke="#D8A6E0" fill="#D8A6E0" style="stroke-width: 0.5px;"/> <path d="M 560.995983045675 106.29921 Q 560.995983045675 159.448815 444.216856164705 194.881885 T 327.437729283734 283.46456 L 342.639533383589 283.46456 Q 342.639533383589 230.314955 451.817828531662 194.881885 T 560.996123679734 106.29921 Z" stroke="#E25059" fill="#E25059" style="stroke-width: 0.5px;"/> <path d="M 560.995983045675 106.29921 Q 560.995983045675 159.448815 453.60153436543 194.881885 T 346.207085685184 283.46456 L 347.855766193621 283.46456 Q 347.855766193621 230.314955 454.425882345564 194.881885 T 560.995998497507 106.29921 Z" stroke="#E25059" fill="#E25059" style="stroke-width: 0.5px;"/> <path d="M 560.995983045675 106.29921 Q 560.995983045675 159.448815 456.209650770446 194.881885 T 351.423318495216 283.46456 L 353.071999003653 283.46456 Q 353.071999003653 230.314955 457.03399875058 194.881885 T 560.995998497507 106.29921 Z" stroke="#E25059" fill="#E25059" style="stroke-width: 0.5px;"/> <path d="M 560.995983045675 106.29921 Q 560.995983045675 159.448815 460.393711779115 194.881885 T 359.791440512554 283.46456 L 359.76719521096 283.46456 Q 359.76719521096 230.314955 460.381606483635 194.881885 T 560.996017756311 106.29921 Z" stroke="#E25059" fill="#E25059" style="stroke-width: 0.5px;"/> <path d="M 309.045866558279 106.29921 Q 309.045866558279 159.448815 330.234592526748 194.881885 T 351.423318495216 283.46456 L 353.071999003653 283.46456 Q 353.071999003653 230.314955 331.058940506882 194.881885 T 309.045882010111 106.29921 Z" stroke="#809A29" fill="#809A29" style="stroke-width: 0.5px;"/> <path d="M 309.045866558279 106.29921 Q 309.045866558279 159.448815 332.842708931764 194.881885 T 356.639551305248 283.46456 L 367.525691721253 283.46456 Q 367.525691721253 230.314955 338.285829526172 194.881885 T 309.045967331092 106.29921 Z" stroke="#809A29" fill="#809A29" style="stroke-width: 0.5px;"/> <path d="M 149.708654099077 106.29921 Q 149.708654099077 159.448815 250.650844852728 194.881885 T 351.593035606379 283.46456 L 353.071999003653 283.46456 Q 353.071999003653 230.314955 251.390333493492 194.881885 T 149.708667983331 106.29921 Z" stroke="#3088AD" fill="#3088AD" style="stroke-width: 0.5px;"/> <path d="M 149.708654099077 106.29921 Q 149.708654099077 159.448815 253.174102702162 194.881885 T 356.639551305248 283.46456 L 373.12635638962 283.46456 Q 373.12635638962 230.314955 261.417581495777 194.881885 T 149.708806601933 106.29921 Z" stroke="#3088AD" fill="#3088AD" style="stroke-width: 0.5px;"/> <path d="M 149.708654099077 106.29921 Q 149.708654099077 159.448815 263.201281395146 194.881885 T 376.693908691215 283.46456 L 378.342589199652 283.46456 Q 378.342589199652 230.314955 264.02562937528 194.881885 T 149.708669550908 106.29921 Z" stroke="#3088AD" fill="#3088AD" style="stroke-width: 0.5px;"/> <path d="M 149.708654099077 106.29921 Q 149.708654099077 159.448815 265.809397800162 194.881885 T 381.910141501247 283.46456 L 386.613730010612 283.46456 Q 386.613730010612 230.314955 268.161213888954 194.881885 T 149.708697767296 106.29921 Z" stroke="#3088AD" fill="#3088AD" style="stroke-width: 0.5px;"/> <path d="M 149.708654099077 106.29921 Q 149.708654099077 159.448815 269.944968205642 194.881885 T 390.181282312206 283.46456 L 406.522615587011 283.46456 Q 406.522615587011 230.314955 278.115710422653 194.881885 T 149.708805258296 106.29921 Z" stroke="#3088AD" fill="#3088AD" style="stroke-width: 0.5px;"/> <path d="M 149.708654099077 106.29921 Q 149.708654099077 159.448815 279.899410993841 194.881885 T 410.090167888605 283.46456 L 429.049993735634 283.46456 Q 429.049993735634 230.314955 289.379411589702 194.881885 T 149.708829443771 106.29921 Z" stroke="#3088AD" fill="#3088AD" style="stroke-width: 0.5px;"/> <path d="M 149.708654099077 106.29921 Q 149.708654099077 159.448815 291.163100068153 194.881885 T 432.617546037228 283.46456 L 434.29047184726 283.46456 Q 434.29047184726 230.314955 291.999570811054 194.881885 T 149.708669774848 106.29921 Z" stroke="#3088AD" fill="#3088AD" style="stroke-width: 0.5px;"/> <path d="M 149.708654099077 106.29921 Q 149.708654099077 159.448815 293.783339123966 194.881885 T 437.858024148855 283.46456 L 446.19840789742 283.46456 Q 446.19840789742 230.314955 297.953569627826 194.881885 T 149.708731358233 106.29921 Z" stroke="#3088AD" fill="#3088AD" style="stroke-width: 0.5px;"/> <path d="M 149.708654099077 106.29921 Q 149.708654099077 159.448815 299.737307149046 194.881885 T 449.765960199014 283.46456 L 451.366150104262 283.46456 Q 451.366150104262 230.314955 300.537409603646 194.881885 T 149.708669103029 106.29921 Z" stroke="#3088AD" fill="#3088AD" style="stroke-width: 0.5px;"/> <path d="M 149.708654099077 106.29921 Q 149.708654099077 159.448815 302.321178252467 194.881885 T 454.933702405857 283.46456 L 462.037575773094 283.46456 Q 462.037575773094 230.314955 305.873147855204 194.881885 T 149.708719937314 106.29921 Z" stroke="#3088AD" fill="#3088AD" style="stroke-width: 0.5px;"/> <path d="M 149.708654099077 106.29921 Q 149.708654099077 159.448815 307.656891086883 194.881885 T 465.605128074688 283.46456 L 498.748455354596 283.46456 Q 498.748455354596 230.314955 324.228707901511 194.881885 T 149.708960448427 106.29921 Z" stroke="#3088AD" fill="#3088AD" style="stroke-width: 0.5px;"/> <path d="M 149.708654099077 106.29921 Q 149.708654099077 159.448815 326.012330877634 194.881885 T 502.31600765619 283.46456 L 503.964688164627 283.46456 Q 503.964688164627 230.314955 326.836678857768 194.881885 T 149.708669550908 106.29921 Z" stroke="#3088AD" fill="#3088AD" style="stroke-width: 0.5px;"/> <path d="M 149.708654099077 106.29921 Q 149.708654099077 159.448815 328.620447282649 194.881885 T 507.532240466222 283.46456 L 508.938467958713 283.46456 Q 508.938467958713 230.314955 329.323562708442 194.881885 T 149.708657458171 106.29921 Z" stroke="#3088AD" fill="#3088AD" style="stroke-width: 0.5px;"/> <path d="M 255.15404790225 106.29921 Q 255.15404790225 159.448815 303.809957183018 194.881885 T 352.465866463787 283.46456 L 353.071999003653 283.46456 Q 353.071999003653 230.314955 304.113026364166 194.881885 T 255.154053724679 106.29921 Z" stroke="#56C7A5" fill="#56C7A5" style="stroke-width: 0.5px;"/> <path d="M 255.15404790225 106.29921 Q 255.15404790225 159.448815 305.896799603749 194.881885 T 356.639551305248 283.46456 L 373.12635638962 283.46456 Q 373.12635638962 230.314955 314.140278397363 194.881885 T 255.154200405106 106.29921 Z" stroke="#56C7A5" fill="#56C7A5" style="stroke-width: 0.5px;"/> <path d="M 255.15404790225 106.29921 Q 255.15404790225 159.448815 315.923978296732 194.881885 T 376.693908691215 283.46456 L 378.342589199652 283.46456 Q 378.342589199652 230.314955 316.748326276867 194.881885 T 255.154063354081 106.29921 Z" stroke="#56C7A5" fill="#56C7A5" style="stroke-width: 0.5px;"/> <path d="M 255.15404790225 106.29921 Q 255.15404790225 159.448815 318.532094701748 194.881885 T 381.910141501247 283.46456 L 386.613730010612 283.46456 Q 386.613730010612 230.314955 320.88391079054 194.881885 T 255.154091570469 106.29921 Z" stroke="#56C7A5" fill="#56C7A5" style="stroke-width: 0.5px;"/> <path d="M 255.15404790225 106.29921 Q 255.15404790225 159.448815 322.667665107228 194.881885 T 390.181282312206 283.46456 L 406.522615587011 283.46456 Q 406.522615587011 230.314955 330.83840732424 194.881885 T 255.154199061469 106.29921 Z" stroke="#56C7A5" fill="#56C7A5" style="stroke-width: 0.5px;"/> <path d="M 255.15404790225 106.29921 Q 255.15404790225 159.448815 333.446448149646 194.881885 T 411.738848397043 283.46456 L 411.714603095448 283.46456 Q 411.714603095448 230.314955 333.434334680372 194.881885 T 255.154066265296 106.29921 Z" stroke="#56C7A5" fill="#56C7A5" style="stroke-width: 0.5px;"/> <path d="M 162.547181635238 106.29921 Q 162.547181635238 159.448815 262.5149253124 194.881885 T 362.482668989562 283.46456 L 371.865600706698 283.46456 Q 371.865600706698 230.314955 267.206434615247 194.881885 T 162.547268523796 106.29921 Z" stroke="#696577" fill="#696577" style="stroke-width: 0.5px;"/> <path d="M 614.669500819025 106.29921 Q 614.669500819025 159.448815 489.848963238014 194.881885 T 365.028425657002 283.46456 L 373.12635638962 283.46456 Q 373.12635638962 230.314955 493.897966114203 194.881885 T 614.669575838785 106.29921 Z" stroke="#28F4DF" fill="#28F4DF" style="stroke-width: 0.5px;"/> <path d="M 614.669500819025 106.29921 Q 614.669500819025 159.448815 495.68170475512 194.881885 T 376.693908691215 283.46456 L 377.009097611945 283.46456 Q 377.009097611945 230.314955 495.839300783062 194.881885 T 614.669503954179 106.29921 Z" stroke="#28F4DF" fill="#28F4DF" style="stroke-width: 0.5px;"/> <path d="M 594.39414676031 106.29921 Q 594.39414676031 159.448815 504.969753753858 194.881885 T 415.545360747405 283.46456 L 419.473099605741 283.46456 Q 419.473099605741 230.314955 506.933641434102 194.881885 T 594.394183262462 106.29921 Z" stroke="#E4B42C" fill="#E4B42C" style="stroke-width: 0.5px;"/> <path d="M 255.154425016509 106.29921 Q 255.154425016509 159.448815 337.713809787437 194.881885 T 420.273194558365 283.46456 L 429.049993735634 283.46456 Q 429.049993735634 230.314955 342.102250021105 194.881885 T 255.154506306577 106.29921 Z" stroke="#9915AB" fill="#9915AB" style="stroke-width: 0.5px;"/> <path d="M 255.154425016509 106.29921 Q 255.154425016509 159.448815 343.885985526868 194.881885 T 432.617546037228 283.46456 L 434.29047184726 283.46456 Q 434.29047184726 230.314955 344.72245626977 194.881885 T 255.154440692279 106.29921 Z" stroke="#9915AB" fill="#9915AB" style="stroke-width: 0.5px;"/> <path d="M 255.154425016509 106.29921 Q 255.154425016509 159.448815 346.506224582682 194.881885 T 437.858024148855 283.46456 L 446.19840789742 283.46456 Q 446.19840789742 230.314955 350.676455086542 194.881885 T 255.154502275665 106.29921 Z" stroke="#9915AB" fill="#9915AB" style="stroke-width: 0.5px;"/> <path d="M 255.154425016509 106.29921 Q 255.154425016509 159.448815 352.460192607761 194.881885 T 449.765960199014 283.46456 L 451.366150104262 283.46456 Q 451.366150104262 230.314955 353.260295062361 194.881885 T 255.154440020461 106.29921 Z" stroke="#9915AB" fill="#9915AB" style="stroke-width: 0.5px;"/> <path d="M 255.154425016509 106.29921 Q 255.154425016509 159.448815 355.044063711183 194.881885 T 454.933702405857 283.46456 L 462.037575773094 283.46456 Q 462.037575773094 230.314955 358.59603331392 194.881885 T 255.154490854746 106.29921 Z" stroke="#9915AB" fill="#9915AB" style="stroke-width: 0.5px;"/> <path d="M 255.154425016509 106.29921 Q 255.154425016509 159.448815 360.925295831478 194.881885 T 466.696166646448 283.46456 L 466.671921344854 283.46456 Q 466.671921344854 230.314955 360.913265891669 194.881885 T 255.154610438484 106.29921 Z" stroke="#9915AB" fill="#9915AB" style="stroke-width: 0.5px;"/> <path d="M 438.124570657798 106.29921 Q 438.124570657798 159.448815 435.504407506284 194.881885 T 432.88424435477 283.46456 L 433.029716164338 283.46456 Q 433.029716164338 230.314955 435.577144194856 194.881885 T 438.124572225375 106.29921 Z" stroke="#4CBD03" fill="#4CBD03" style="stroke-width: 0.5px;"/> <path d="M 438.124570657798 106.29921 Q 438.124570657798 159.448815 437.991297403326 194.881885 T 437.858024148855 283.46456 L 446.19840789742 283.46456 Q 446.19840789742 230.314955 442.161527907187 194.881885 T 438.124647916954 106.29921 Z" stroke="#4CBD03" fill="#4CBD03" style="stroke-width: 0.5px;"/> <path d="M 438.124570657798 106.29921 Q 438.124570657798 159.448815 443.945265428406 194.881885 T 449.765960199014 283.46456 L 451.366150104262 283.46456 Q 451.366150104262 230.314955 444.745363852094 194.881885 T 438.124577599925 106.29921 Z" stroke="#4CBD03" fill="#4CBD03" style="stroke-width: 0.5px;"/> <path d="M 627.155201785874 106.29921 Q 627.155201785874 159.448815 530.031845721119 194.881885 T 432.908489656364 283.46456 L 433.029716164338 283.46456 Q 433.029716164338 230.314955 530.092459646924 194.881885 T 627.155203129511 106.29921 Z" stroke="#FA6B77" fill="#FA6B77" style="stroke-width: 0.5px;"/> <path d="M 627.155201785874 106.29921 Q 627.155201785874 159.448815 535.391803857129 194.881885 T 443.628405928385 283.46456 L 443.60416062679 283.46456 Q 443.60416062679 230.314955 535.379713677572 194.881885 T 627.155266728353 106.29921 Z" stroke="#FA6B77" fill="#FA6B77" style="stroke-width: 0.5px;"/> <path d="M 638.720169682648 106.29921 Q 638.720169682648 159.448815 541.174287805516 194.881885 T 443.628405928385 283.46456 L 443.60416062679 283.46456 Q 443.60416062679 230.314955 541.16219146762 194.881885 T 638.72022230845 106.29921 Z" stroke="#E8CDBB" fill="#E8CDBB" style="stroke-width: 0.5px;"/> <path d="M 638.720169682648 106.29921 Q 638.720169682648 159.448815 544.243064940831 194.881885 T 449.765960199014 283.46456 L 451.366150104262 283.46456 Q 451.366150104262 230.314955 545.043167395431 194.881885 T 638.7201846866 106.29921 Z" stroke="#E8CDBB" fill="#E8CDBB" style="stroke-width: 0.5px;"/> <path d="M 638.720169682648 106.29921 Q 638.720169682648 159.448815 546.826936044252 194.881885 T 454.933702405857 283.46456 L 457.60068558127 283.46456 Q 457.60068558127 230.314955 548.160440060606 194.881885 T 638.720194539941 106.29921 Z" stroke="#E8CDBB" fill="#E8CDBB" style="stroke-width: 0.5px;"/> <path d="M 627.155346674784 106.29921 Q 627.155346674784 159.448815 535.755555825505 194.881885 T 444.355764976225 283.46456 L 446.19840789742 283.46456 Q 446.19840789742 230.314955 536.676885907776 194.881885 T 627.155363918132 106.29921 Z" stroke="#6B1AF4" fill="#6B1AF4" style="stroke-width: 0.5px;"/> <path d="M 627.155346674784 106.29921 Q 627.155346674784 159.448815 538.460653436899 194.881885 T 449.765960199014 283.46456 L 451.366150104262 283.46456 Q 451.366150104262 230.314955 539.260755891499 194.881885 T 627.155361678736 106.29921 Z" stroke="#6B1AF4" fill="#6B1AF4" style="stroke-width: 0.5px;"/> <path d="M 627.155346674784 106.29921 Q 627.155346674784 159.448815 541.04452454032 194.881885 T 454.933702405857 283.46456 L 462.037575773094 283.46456 Q 462.037575773094 230.314955 544.596494143058 194.881885 T 627.155412513022 106.29921 Z" stroke="#6B1AF4" fill="#6B1AF4" style="stroke-width: 0.5px;"/> <path d="M 627.155346674784 106.29921 Q 627.155346674784 159.448815 546.925756660616 194.881885 T 466.696166646448 283.46456 L 466.671921344854 283.46456 Q 466.671921344854 230.314955 546.913751130221 194.881885 T 627.155580915589 106.29921 Z" stroke="#6B1AF4" fill="#6B1AF4" style="stroke-width: 0.5px;"/> <path d="M 140.980498652993 106.29921 Q 140.980498652993 159.448815 306.347721364768 194.881885 T 471.714944076544 283.46456 L 488.589673986431 283.46456 Q 488.589673986431 230.314955 314.785164362657 194.881885 T 140.980654738883 106.29921 Z" stroke="#9C79D0" fill="#9C79D0" style="stroke-width: 0.5px;"/> <path d="M 560.999538310503 106.29921 Q 560.999538310503 159.448815 516.357241193524 194.881885 T 471.714944076544 283.46456 L 484.613444524906 283.46456 Q 484.613444524906 230.314955 522.806551097604 194.881885 T 560.999657670301 106.29921 Z" stroke="#E4E575" fill="#E4E575" style="stroke-width: 0.5px;"/> <path d="M 612.675716096574 106.29921 Q 612.675716096574 159.448815 543.080283594764 194.881885 T 473.484851092954 283.46456 L 487.935050843375 283.46456 Q 487.935050843375 230.314955 550.30545031594 194.881885 T 612.675849788505 106.29921 Z" stroke="#F8AEF4" fill="#F8AEF4" style="stroke-width: 0.5px;"/> <path d="M 643.084804889183 106.29921 Q 643.084804889183 159.448815 561.800396722295 194.881885 T 480.515988555407 283.46456 L 498.748455354596 283.46456 Q 498.748455354596 230.314955 570.916714435142 194.881885 T 643.084973515689 106.29921 Z" stroke="#7D3E00" fill="#7D3E00" style="stroke-width: 0.5px;"/> <path d="M 643.084804889183 106.29921 Q 643.084804889183 159.448815 572.700406272687 194.881885 T 502.31600765619 283.46456 L 503.964688164627 283.46456 Q 503.964688164627 230.314955 573.524754252821 194.881885 T 643.084820341014 106.29921 Z" stroke="#7D3E00" fill="#7D3E00" style="stroke-width: 0.5px;"/> <path d="M 643.084804889183 106.29921 Q 643.084804889183 159.448815 575.308522677703 194.881885 T 507.532240466222 283.46456 L 508.938467958713 283.46456 Q 508.938467958713 230.314955 576.011643030165 194.881885 T 643.084818101618 106.29921 Z" stroke="#7D3E00" fill="#7D3E00" style="stroke-width: 0.5px;"/> <path d="M 643.084804889183 106.29921 Q 643.084804889183 159.448815 577.795412574745 194.881885 T 512.506020260307 283.46456 L 514.178946070339 283.46456 Q 514.178946070339 230.314955 578.631883317646 194.881885 T 643.084820564954 106.29921 Z" stroke="#7D3E00" fill="#7D3E00" style="stroke-width: 0.5px;"/> <path d="M 643.084804889183 106.29921 Q 643.084804889183 159.448815 580.415651630558 194.881885 T 517.746498371934 283.46456 L 517.770743673529 283.46456 Q 517.770743673529 230.314955 580.427774505295 194.881885 T 643.084805337062 106.29921 Z" stroke="#7D3E00" fill="#7D3E00" style="stroke-width: 0.5px;"/> <path d="M 205.754609892418 106.29921 Q 205.754609892418 159.448815 344.747611779958 194.881885 T 483.740613667498 283.46456 L 491.620336685764 283.46456 Q 491.620336685764 230.314955 348.687509791243 194.881885 T 205.754682896722 106.29921 Z" stroke="#875E72" fill="#875E72" style="stroke-width: 0.5px;"/> <path d="M 378.585202177614 106.29921 Q 378.585202177614 159.448815 431.708427208436 194.881885 T 484.831652239258 283.46456 L 498.748455354596 283.46456 Q 498.748455354596 230.314955 438.666893148735 194.881885 T 378.585330942875 106.29921 Z" stroke="#CFD34D" fill="#CFD34D" style="stroke-width: 0.5px;"/> <path d="M 378.585202177614 106.29921 Q 378.585202177614 159.448815 440.450604916902 194.881885 T 502.31600765619 283.46456 L 503.964688164627 283.46456 Q 503.964688164627 230.314955 441.274952897037 194.881885 T 378.585217629446 106.29921 Z" stroke="#CFD34D" fill="#CFD34D" style="stroke-width: 0.5px;"/> <path d="M 378.585202177614 106.29921 Q 378.585202177614 159.448815 443.058721321918 194.881885 T 507.532240466222 283.46456 L 508.938467958713 283.46456 Q 508.938467958713 230.314955 443.761841674381 194.881885 T 378.58521539005 106.29921 Z" stroke="#CFD34D" fill="#CFD34D" style="stroke-width: 0.5px;"/> <path d="M 378.585202177614 106.29921 Q 378.585202177614 159.448815 445.545611218961 194.881885 T 512.506020260307 283.46456 L 514.178946070339 283.46456 Q 514.178946070339 230.314955 446.382081961862 194.881885 T 378.585217853385 106.29921 Z" stroke="#CFD34D" fill="#CFD34D" style="stroke-width: 0.5px;"/> <path d="M 378.585202177614 106.29921 Q 378.585202177614 159.448815 448.226463528761 194.881885 T 517.867724879907 283.46456 L 517.843479578313 283.46456 Q 517.843479578313 230.314955 448.214345692664 194.881885 T 378.585211807016 106.29921 Z" stroke="#CFD34D" fill="#CFD34D" style="stroke-width: 0.5px;"/> <path d="M 572.592285464734 106.29921 Q 572.592285464734 159.448815 540.438065140195 194.881885 T 508.283844815657 283.46456 L 508.792996149145 283.46456 Q 508.792996149145 230.314955 540.692643270275 194.881885 T 572.592290391405 106.29921 Z" stroke="#B5ABEF" fill="#B5ABEF" style="stroke-width: 0.5px;"/> <path d="M 572.592285464734 106.29921 Q 572.592285464734 159.448815 542.549152862521 194.881885 T 512.506020260307 283.46456 L 514.178946070339 283.46456 Q 514.178946070339 230.314955 543.385623605422 194.881885 T 572.592301140505 106.29921 Z" stroke="#B5ABEF" fill="#B5ABEF" style="stroke-width: 0.5px;"/> <path d="M 572.592285464734 106.29921 Q 572.592285464734 159.448815 545.169391918334 194.881885 T 517.746498371934 283.46456 L 527.784053232125 283.46456 Q 527.784053232125 230.314955 550.188215815893 194.881885 T 572.592378399661 106.29921 Z" stroke="#B5ABEF" fill="#B5ABEF" style="stroke-width: 0.5px;"/> <path d="M 218.815806924654 106.29921 Q 218.815806924654 159.448815 368.790303981782 194.881885 T 518.76480103891 283.46456 L 524.17150329452 283.46456 Q 524.17150329452 230.314955 371.49368019082 194.881885 T 218.815857087121 106.29921 Z" stroke="#47DF7A" fill="#47DF7A" style="stroke-width: 0.5px;"/> <path d="M 326.297050583457 106.29921 Q 326.297050583457 159.448815 428.289184939916 194.881885 T 530.281319296376 283.46456 L 530.257073994781 283.46456 Q 530.257073994781 230.314955 428.277095656117 194.881885 T 326.297117317453 106.29921 Z" stroke="#B0AB85" fill="#B0AB85" style="stroke-width: 0.5px;"/> <path d="M 321.212700302159 106.29921 Q 321.212700302159 159.448815 427.989700196774 194.881885 T 534.766700091389 283.46456 L 543.543499268658 283.46456 Q 543.543499268658 230.314955 432.378140430443 194.881885 T 321.212781592228 106.29921 Z" stroke="#CACB53" fill="#CACB53" style="stroke-width: 0.5px;"/> <path d="M 179.708791716392 106.29921 Q 179.708791716392 159.448815 367.408649922853 194.881885 T 555.108508129313 283.46456 L 555.084262827718 283.46456 Q 555.084262827718 230.314955 367.396557615869 194.881885 T 179.708852404019 106.29921 Z" stroke="#2EEE13" fill="#2EEE13" style="stroke-width: 0.5px;"/> <path d="M 386.452879627353 106.29921 Q 386.452879627353 159.448815 470.97465629109 194.881885 T 555.496432954827 283.46456 L 561.43653184552 283.46456 Q 561.43653184552 230.314955 473.944733281005 194.881885 T 386.45293471649 106.29921 Z" stroke="#A2A251" fill="#A2A251" style="stroke-width: 0.5px;"/> <path d="M 386.452879627353 106.29921 Q 386.452879627353 159.448815 475.728481887234 194.881885 T 565.004084147115 283.46456 L 576.520602404581 283.46456 Q 576.520602404581 230.314955 481.486794313588 194.881885 T 386.452986222595 106.29921 Z" stroke="#A2A251" fill="#A2A251" style="stroke-width: 0.5px;"/> <path d="M 383.095701005826 106.29921 Q 383.095701005826 159.448815 469.890076869396 194.881885 T 556.684452732966 283.46456 L 561.43653184552 283.46456 Q 561.43653184552 230.314955 472.266138483722 194.881885 T 383.095745121924 106.29921 Z" stroke="#6B0C69" fill="#6B0C69" style="stroke-width: 0.5px;"/> <path d="M 383.095701005826 106.29921 Q 383.095701005826 159.448815 474.049892576471 194.881885 T 565.004084147115 283.46456 L 569.659182053291 283.46456 Q 569.659182053291 230.314955 476.377463139728 194.881885 T 383.095744226166 106.29921 Z" stroke="#6B0C69" fill="#6B0C69" style="stroke-width: 0.5px;"/> <path d="M 511.121253074369 106.29921 Q 511.121253074369 159.448815 541.347906976819 194.881885 T 571.574560879269 283.46456 L 577.563150373152 283.46456 Q 577.563150373152 230.314955 544.342229492269 194.881885 T 511.121308611386 106.29921 Z" stroke="#4DEEFF" fill="#4DEEFF" style="stroke-width: 0.5px;"/> <path d="M 511.121253074369 106.29921 Q 511.121253074369 159.448815 546.125977874558 194.881885 T 581.130702674746 283.46456 L 582.755137881589 283.46456 Q 582.755137881589 230.314955 546.938203091925 194.881885 T 511.121268302261 106.29921 Z" stroke="#4DEEFF" fill="#4DEEFF" style="stroke-width: 0.5px;"/> <path d="M 511.121253074369 106.29921 Q 511.121253074369 159.448815 560.505188203784 194.881885 T 609.889123333198 283.46456 L 613.69563568356 283.46456 Q 613.69563568356 230.314955 562.408462070192 194.881885 T 511.121288456823 106.29921 Z" stroke="#4DEEFF" fill="#4DEEFF" style="stroke-width: 0.5px;"/> <path d="M 604.445569141187 106.29921 Q 604.445569141187 159.448815 588.204027422986 194.881885 T 571.962485704784 283.46456 L 577.563150373152 283.46456 Q 577.563150373152 230.314955 591.004385734161 194.881885 T 604.44562109517 106.29921 Z" stroke="#F0B8B1" fill="#F0B8B1" style="stroke-width: 0.5px;"/> <path d="M 604.445569141187 106.29921 Q 604.445569141187 159.448815 592.788135907967 194.881885 T 581.130702674746 283.46456 L 582.755137881589 283.46456 Q 582.755137881589 230.314955 593.600361125334 194.881885 T 604.445584369079 106.29921 Z" stroke="#F0B8B1" fill="#F0B8B1" style="stroke-width: 0.5px;"/> <path d="M 604.445569141187 106.29921 Q 604.445569141187 159.448815 607.167346237193 194.881885 T 609.889123333198 283.46456 L 612.410634699043 283.46456 Q 612.410634699043 230.314955 608.428113676943 194.881885 T 604.445592654843 106.29921 Z" stroke="#F0B8B1" fill="#F0B8B1" style="stroke-width: 0.5px;"/> <path d="M 140.948188202003 106.29921 Q 140.948188202003 159.448815 358.261611922196 194.881885 T 575.575035642389 283.46456 L 577.563150373152 283.46456 Q 577.563150373152 230.314955 359.25567858107 194.881885 T 140.948206788989 106.29921 Z" stroke="#FCC705" fill="#FCC705" style="stroke-width: 0.5px;"/> <path d="M 140.948188202003 106.29921 Q 140.948188202003 159.448815 361.039445438375 194.881885 T 581.130702674746 283.46456 L 582.755137881589 283.46456 Q 582.755137881589 230.314955 361.851670655742 194.881885 T 140.948203429895 106.29921 Z" stroke="#FCC705" fill="#FCC705" style="stroke-width: 0.5px;"/> <path d="M 140.948188202003 106.29921 Q 140.948188202003 159.448815 363.635439192593 194.881885 T 586.322690183184 283.46456 L 613.792616889939 283.46456 Q 613.792616889939 230.314955 377.370500855448 194.881885 T 140.948384820957 106.29921 Z" stroke="#FCC705" fill="#FCC705" style="stroke-width: 0.5px;"/> <path d="M 386.453113868157 106.29921 Q 386.453113868157 159.448815 481.741433803113 194.881885 T 577.029753738069 283.46456 L 577.005508436474 283.46456 Q 577.005508436474 230.314955 481.729315295198 194.881885 T 386.453122153922 106.29921 Z" stroke="#DD2854" fill="#DD2854" style="stroke-width: 0.5px;"/> <path d="M 386.453113868157 106.29921 Q 386.453113868157 159.448815 483.791908271452 194.881885 T 581.130702674746 283.46456 L 582.755137881589 283.46456 Q 582.755137881589 230.314955 484.604133488819 194.881885 T 386.453129096049 106.29921 Z" stroke="#DD2854" fill="#DD2854" style="stroke-width: 0.5px;"/> <path d="M 386.453113868157 106.29921 Q 386.453113868157 159.448815 486.38790202567 194.881885 T 586.322690183184 283.46456 L 613.792616889939 283.46456 Q 613.792616889939 230.314955 500.122883742094 194.881885 T 386.453150594249 106.29921 Z" stroke="#DD2854" fill="#DD2854" style="stroke-width: 0.5px;"/><rect x="124.015745" y="88.582675" rx="2" ry="2" width="43.6347973717203" height="17.71654" style="fill:#f7f7f7;stroke:black;stroke-width:0.5"/> <rect x="171.19384937172" y="88.582675" rx="2" ry="2" width="39.0399053438808" height="17.71654" style="fill:#f7f7f7;stroke:black;stroke-width:0.5"/> <rect x="213.777061715601" y="88.582675" rx="2" ry="2" width="34.8654012119349" height="17.71654" style="fill:#f7f7f7;stroke:black;stroke-width:0.5"/> <rect x="252.185769927536" y="88.582675" rx="2" ry="2" width="20.466756690459" height="17.71654" style="fill:#f7f7f7;stroke:black;stroke-width:0.5"/> <rect x="276.195833617995" y="88.582675" rx="2" ry="2" width="8.50795990845775" height="17.71654" style="fill:#f7f7f7;stroke:black;stroke-width:0.5"/> <rect x="288.247100526453" y="88.582675" rx="2" ry="2" width="6.15891787858494" height="17.71654" style="fill:#f7f7f7;stroke:black;stroke-width:0.5"/> <rect x="297.949325405038" y="88.582675" rx="2" ry="2" width="38.8948254128767" height="17.71654" style="fill:#f7f7f7;stroke:black;stroke-width:0.5"/> <rect x="340.387457817914" y="88.582675" rx="2" ry="2" width="25.0355064591971" height="17.71654" style="fill:#f7f7f7;stroke:black;stroke-width:0.5"/> <rect x="368.966271277112" y="88.582675" rx="2" ry="2" width="10.7484821597928" height="17.71654" style="fill:#f7f7f7;stroke:black;stroke-width:0.5"/> <rect x="383.258060436904" y="88.582675" rx="2" ry="2" width="26.033403637334" height="17.71654" style="fill:#f7f7f7;stroke:black;stroke-width:0.5"/> <rect x="412.834771074238" y="88.582675" rx="2" ry="2" width="19.6068542188432" height="17.71654" style="fill:#f7f7f7;stroke:black;stroke-width:0.5"/> <rect x="435.984932293081" y="88.582675" rx="2" ry="2" width="34.7902224543504" height="17.71654" style="fill:#f7f7f7;stroke:black;stroke-width:0.5"/> <rect x="474.318461747432" y="88.582675" rx="2" ry="2" width="32.1041650115901" height="17.71654" style="fill:#f7f7f7;stroke:black;stroke-width:0.5"/> <rect x="509.965933759022" y="88.582675" rx="2" ry="2" width="36.7029426151432" height="17.71654" style="fill:#f7f7f7;stroke:black;stroke-width:0.5"/> <rect x="550.212183374165" y="88.582675" rx="2" ry="2" width="24.421518986375" height="17.71654" style="fill:#f7f7f7;stroke:black;stroke-width:0.5"/> <rect x="578.17700936054" y="88.582675" rx="2" ry="2" width="18.918179759762" height="17.71654" style="fill:#f7f7f7;stroke:black;stroke-width:0.5"/> <rect x="600.638496120302" y="88.582675" rx="2" ry="2" width="19.0367606959083" height="17.71654" style="fill:#f7f7f7;stroke:black;stroke-width:0.5"/> <rect x="623.21856381621" y="88.582675" rx="2" ry="2" width="15.6311477494385" height="17.71654" style="fill:#f7f7f7;stroke:black;stroke-width:0.5"/> <rect x="642.393018565649" y="88.582675" rx="2" ry="2" width="12.8272517302513" height="17.71654" style="fill:#f7f7f7;stroke:black;stroke-width:0.5"/> <rect x="658.7635772959" y="88.582675" rx="2" ry="2" width="7.43285306465346" height="17.71654" style="fill:#f7f7f7;stroke:black;stroke-width:0.5"/> <rect x="669.739737360554" y="88.582675" rx="2" ry="2" width="3.48859263944627" height="17.71654" style="fill:#f7f7f7;stroke:black;stroke-width:0.5"/> <rect x="124.015745" y="283.46456" rx="2" ry="2" width="1.67292581003189" height="17.71654" style="fill:#f7f7f7;stroke:black;stroke-width:0.5"/> <rect x="129.231977810032" y="283.46456" rx="2" ry="2" width="23.2027536260945" height="17.71654" style="fill:#f7f7f7;stroke:black;stroke-width:0.5"/> <rect x="155.978038436126" y="283.46456" rx="2" ry="2" width="1.6001899052479" height="17.71654" style="fill:#f7f7f7;stroke:black;stroke-width:0.5"/> <rect x="161.121535341374" y="283.46456" rx="2" ry="2" width="38.3318218211656" height="17.71654" style="fill:#f7f7f7;stroke:black;stroke-width:0.5"/> <rect x="202.99666416254" y="283.46456" rx="2" ry="2" width="1.81839761959988" height="17.71654" style="fill:#f7f7f7;stroke:black;stroke-width:0.5"/> <rect x="208.35836878214" y="283.46456" rx="2" ry="2" width="23.0572818165265" height="17.71654" style="fill:#f7f7f7;stroke:black;stroke-width:0.5"/> <rect x="234.958957598666" y="283.46456" rx="2" ry="2" width="1.69717111162656" height="17.71654" style="fill:#f7f7f7;stroke:black;stroke-width:0.5"/> <rect x="240.199435710293" y="283.46456" rx="2" ry="2" width="1.74566171481589" height="17.71654" style="fill:#f7f7f7;stroke:black;stroke-width:0.5"/> <rect x="245.488404425109" y="283.46456" rx="2" ry="2" width="1.67292581003189" height="17.71654" style="fill:#f7f7f7;stroke:black;stroke-width:0.5"/> <rect x="250.704637235141" y="283.46456" rx="2" ry="2" width="25.1666230552624" height="17.71654" style="fill:#f7f7f7;stroke:black;stroke-width:0.5"/> <rect x="279.414567290403" y="283.46456" rx="2" ry="2" width="1.62443520684256" height="17.71654" style="fill:#f7f7f7;stroke:black;stroke-width:0.5"/> <rect x="284.582309497246" y="283.46456" rx="2" ry="2" width="1.62443520684256" height="17.71654" style="fill:#f7f7f7;stroke:black;stroke-width:0.5"/> <rect x="289.750051704088" y="283.46456" rx="2" ry="2" width="1.76990701641055" height="17.71654" style="fill:#f7f7f7;stroke:black;stroke-width:0.5"/> <rect x="295.063265720499" y="283.46456" rx="2" ry="2" width="1.67292581003189" height="17.71654" style="fill:#f7f7f7;stroke:black;stroke-width:0.5"/> <rect x="300.279498530531" y="283.46456" rx="2" ry="2" width="1.6001899052479" height="17.71654" style="fill:#f7f7f7;stroke:black;stroke-width:0.5"/> <rect x="305.422995435778" y="283.46456" rx="2" ry="2" width="37.2407832494056" height="17.71654" style="fill:#f7f7f7;stroke:black;stroke-width:0.5"/> <rect x="346.207085685184" y="283.46456" rx="2" ry="2" width="1.67292581003189" height="17.71654" style="fill:#f7f7f7;stroke:black;stroke-width:0.5"/> <rect x="351.423318495216" y="283.46456" rx="2" ry="2" width="1.67292581003189" height="17.71654" style="fill:#f7f7f7;stroke:black;stroke-width:0.5"/> <rect x="356.639551305248" y="283.46456" rx="2" ry="2" width="16.5110503859669" height="17.71654" style="fill:#f7f7f7;stroke:black;stroke-width:0.5"/> <rect x="376.693908691215" y="283.46456" rx="2" ry="2" width="1.67292581003189" height="17.71654" style="fill:#f7f7f7;stroke:black;stroke-width:0.5"/> <rect x="381.910141501247" y="283.46456" rx="2" ry="2" width="4.7278338109597" height="17.71654" style="fill:#f7f7f7;stroke:black;stroke-width:0.5"/> <rect x="390.181282312206" y="283.46456" rx="2" ry="2" width="16.365578576399" height="17.71654" style="fill:#f7f7f7;stroke:black;stroke-width:0.5"/> <rect x="410.090167888605" y="283.46456" rx="2" ry="2" width="18.9840711486228" height="17.71654" style="fill:#f7f7f7;stroke:black;stroke-width:0.5"/> <rect x="432.617546037228" y="283.46456" rx="2" ry="2" width="1.69717111162656" height="17.71654" style="fill:#f7f7f7;stroke:black;stroke-width:0.5"/> <rect x="437.858024148855" y="283.46456" rx="2" ry="2" width="8.36462905015947" height="17.71654" style="fill:#f7f7f7;stroke:black;stroke-width:0.5"/> <rect x="449.765960199014" y="283.46456" rx="2" ry="2" width="1.62443520684256" height="17.71654" style="fill:#f7f7f7;stroke:black;stroke-width:0.5"/> <rect x="454.933702405857" y="283.46456" rx="2" ry="2" width="7.12811866883155" height="17.71654" style="fill:#f7f7f7;stroke:black;stroke-width:0.5"/> <rect x="465.605128074688" y="283.46456" rx="2" ry="2" width="33.1675725815019" height="17.71654" style="fill:#f7f7f7;stroke:black;stroke-width:0.5"/> <rect x="502.31600765619" y="283.46456" rx="2" ry="2" width="1.67292581003189" height="17.71654" style="fill:#f7f7f7;stroke:black;stroke-width:0.5"/> <rect x="507.532240466222" y="283.46456" rx="2" ry="2" width="1.43047279408524" height="17.71654" style="fill:#f7f7f7;stroke:black;stroke-width:0.5"/> <rect x="512.506020260307" y="283.46456" rx="2" ry="2" width="1.69717111162656" height="17.71654" style="fill:#f7f7f7;stroke:black;stroke-width:0.5"/> <rect x="517.746498371934" y="283.46456" rx="2" ry="2" width="43.7142787751812" height="17.71654" style="fill:#f7f7f7;stroke:black;stroke-width:0.5"/> <rect x="565.004084147115" y="283.46456" rx="2" ry="2" width="12.5833115276312" height="17.71654" style="fill:#f7f7f7;stroke:black;stroke-width:0.5"/> <rect x="581.130702674746" y="283.46456" rx="2" ry="2" width="1.64868050843723" height="17.71654" style="fill:#f7f7f7;stroke:black;stroke-width:0.5"/> <rect x="586.322690183184" y="283.46456" rx="2" ry="2" width="27.4941720083502" height="17.71654" style="fill:#f7f7f7;stroke:black;stroke-width:0.5"/> <rect x="617.360169191534" y="283.46456" rx="2" ry="2" width="1.6001899052479" height="17.71654" style="fill:#f7f7f7;stroke:black;stroke-width:0.5"/> <rect x="622.503666096782" y="283.46456" rx="2" ry="2" width="1.6001899052479" height="17.71654" style="fill:#f7f7f7;stroke:black;stroke-width:0.5"/> <rect x="627.64716300203" y="283.46456" rx="2" ry="2" width="45.5811669979704" height="17.71654" style="fill:#f7f7f7;stroke:black;stroke-width:0.5"/><rect x="124.015745" y="91.582675" rx="2" ry="2" width="43.6347973717203" height="11.71654" style="fill:#969696;stroke:#969696;stroke-width:0.5"/> <rect x="171.19384937172" y="91.582675" rx="2" ry="2" width="39.0399053438808" height="11.71654" style="fill:#969696;stroke:#969696;stroke-width:0.5"/> <rect x="213.777061715601" y="91.582675" rx="2" ry="2" width="34.8654012119349" height="11.71654" style="fill:#969696;stroke:#969696;stroke-width:0.5"/> <rect x="252.185769927536" y="91.582675" rx="2" ry="2" width="20.466756690459" height="11.71654" style="fill:#969696;stroke:#969696;stroke-width:0.5"/> <rect x="276.195833617995" y="91.582675" rx="2" ry="2" width="8.50795990845775" height="11.71654" style="fill:#969696;stroke:#969696;stroke-width:0.5"/> <rect x="288.247100526453" y="91.582675" rx="2" ry="2" width="6.15891787858494" height="11.71654" style="fill:#969696;stroke:#969696;stroke-width:0.5"/> <rect x="297.949325405038" y="91.582675" rx="2" ry="2" width="38.8948254128767" height="11.71654" style="fill:#969696;stroke:#969696;stroke-width:0.5"/> <rect x="340.387457817914" y="91.582675" rx="2" ry="2" width="25.0355064591971" height="11.71654" style="fill:#969696;stroke:#969696;stroke-width:0.5"/> <rect x="368.966271277112" y="91.582675" rx="2" ry="2" width="10.7484821597928" height="11.71654" style="fill:#969696;stroke:#969696;stroke-width:0.5"/> <rect x="383.258060436904" y="91.582675" rx="2" ry="2" width="26.033403637334" height="11.71654" style="fill:#969696;stroke:#969696;stroke-width:0.5"/> <rect x="412.834771074238" y="91.582675" rx="2" ry="2" width="19.6068542188432" height="11.71654" style="fill:#969696;stroke:#969696;stroke-width:0.5"/> <rect x="435.984932293081" y="91.582675" rx="2" ry="2" width="34.7902224543504" height="11.71654" style="fill:#969696;stroke:#969696;stroke-width:0.5"/> <rect x="474.318461747432" y="91.582675" rx="2" ry="2" width="32.1041650115901" height="11.71654" style="fill:#969696;stroke:#969696;stroke-width:0.5"/> <rect x="509.965933759022" y="91.582675" rx="2" ry="2" width="36.7029426151432" height="11.71654" style="fill:#969696;stroke:#969696;stroke-width:0.5"/> <rect x="550.212183374165" y="91.582675" rx="2" ry="2" width="24.421518986375" height="11.71654" style="fill:#969696;stroke:#969696;stroke-width:0.5"/> <rect x="578.17700936054" y="91.582675" rx="2" ry="2" width="18.918179759762" height="11.71654" style="fill:#969696;stroke:#969696;stroke-width:0.5"/> <rect x="600.638496120302" y="91.582675" rx="2" ry="2" width="19.0367606959083" height="11.71654" style="fill:#969696;stroke:#969696;stroke-width:0.5"/> <rect x="623.21856381621" y="91.582675" rx="2" ry="2" width="15.6311477494385" height="11.71654" style="fill:#969696;stroke:#969696;stroke-width:0.5"/> <rect x="642.393018565649" y="91.582675" rx="2" ry="2" width="12.8272517302513" height="11.71654" style="fill:#969696;stroke:#969696;stroke-width:0.5"/> <rect x="658.7635772959" y="91.582675" rx="2" ry="2" width="7.43285306465346" height="11.71654" style="fill:#969696;stroke:#969696;stroke-width:0.5"/> <rect x="669.739737360554" y="91.582675" rx="2" ry="2" width="3.48859263944627" height="11.71654" style="fill:#969696;stroke:#969696;stroke-width:0.5"/> <rect x="124.015745" y="286.46456" rx="2" ry="2" width="1.67292581003189" height="11.71654" style="fill:#969696;stroke:#969696;stroke-width:0.5"/> <rect x="129.231977810032" y="286.46456" rx="2" ry="2" width="23.2027536260945" height="11.71654" style="fill:#969696;stroke:#969696;stroke-width:0.5"/> <rect x="155.978038436126" y="286.46456" rx="2" ry="2" width="1.6001899052479" height="11.71654" style="fill:#969696;stroke:#969696;stroke-width:0.5"/> <rect x="161.121535341374" y="286.46456" rx="2" ry="2" width="38.3318218211656" height="11.71654" style="fill:#969696;stroke:#969696;stroke-width:0.5"/> <rect x="202.99666416254" y="286.46456" rx="2" ry="2" width="1.81839761959988" height="11.71654" style="fill:#969696;stroke:#969696;stroke-width:0.5"/> <rect x="208.35836878214" y="286.46456" rx="2" ry="2" width="23.0572818165265" height="11.71654" style="fill:#969696;stroke:#969696;stroke-width:0.5"/> <rect x="234.958957598666" y="286.46456" rx="2" ry="2" width="1.69717111162656" height="11.71654" style="fill:#969696;stroke:#969696;stroke-width:0.5"/> <rect x="240.199435710293" y="286.46456" rx="2" ry="2" width="1.74566171481589" height="11.71654" style="fill:#969696;stroke:#969696;stroke-width:0.5"/> <rect x="245.488404425109" y="286.46456" rx="2" ry="2" width="1.67292581003189" height="11.71654" style="fill:#969696;stroke:#969696;stroke-width:0.5"/> <rect x="250.704637235141" y="286.46456" rx="2" ry="2" width="25.1666230552624" height="11.71654" style="fill:#969696;stroke:#969696;stroke-width:0.5"/> <rect x="279.414567290403" y="286.46456" rx="2" ry="2" width="1.62443520684256" height="11.71654" style="fill:#969696;stroke:#969696;stroke-width:0.5"/> <rect x="284.582309497246" y="286.46456" rx="2" ry="2" width="1.62443520684256" height="11.71654" style="fill:#969696;stroke:#969696;stroke-width:0.5"/> <rect x="289.750051704088" y="286.46456" rx="2" ry="2" width="1.76990701641055" height="11.71654" style="fill:#969696;stroke:#969696;stroke-width:0.5"/> <rect x="295.063265720499" y="286.46456" rx="2" ry="2" width="1.67292581003189" height="11.71654" style="fill:#969696;stroke:#969696;stroke-width:0.5"/> <rect x="300.279498530531" y="286.46456" rx="2" ry="2" width="1.6001899052479" height="11.71654" style="fill:#969696;stroke:#969696;stroke-width:0.5"/> <rect x="305.422995435778" y="286.46456" rx="2" ry="2" width="37.2407832494056" height="11.71654" style="fill:#969696;stroke:#969696;stroke-width:0.5"/> <rect x="346.207085685184" y="286.46456" rx="2" ry="2" width="1.67292581003189" height="11.71654" style="fill:#969696;stroke:#969696;stroke-width:0.5"/> <rect x="351.423318495216" y="286.46456" rx="2" ry="2" width="1.67292581003189" height="11.71654" style="fill:#969696;stroke:#969696;stroke-width:0.5"/> <rect x="356.639551305248" y="286.46456" rx="2" ry="2" width="16.5110503859669" height="11.71654" style="fill:#969696;stroke:#969696;stroke-width:0.5"/> <rect x="376.693908691215" y="286.46456" rx="2" ry="2" width="1.67292581003189" height="11.71654" style="fill:#969696;stroke:#969696;stroke-width:0.5"/> <rect x="381.910141501247" y="286.46456" rx="2" ry="2" width="4.7278338109597" height="11.71654" style="fill:#969696;stroke:#969696;stroke-width:0.5"/> <rect x="390.181282312206" y="286.46456" rx="2" ry="2" width="16.365578576399" height="11.71654" style="fill:#969696;stroke:#969696;stroke-width:0.5"/> <rect x="410.090167888605" y="286.46456" rx="2" ry="2" width="18.9840711486228" height="11.71654" style="fill:#969696;stroke:#969696;stroke-width:0.5"/> <rect x="432.617546037228" y="286.46456" rx="2" ry="2" width="1.69717111162656" height="11.71654" style="fill:#969696;stroke:#969696;stroke-width:0.5"/> <rect x="437.858024148855" y="286.46456" rx="2" ry="2" width="8.36462905015947" height="11.71654" style="fill:#969696;stroke:#969696;stroke-width:0.5"/> <rect x="449.765960199014" y="286.46456" rx="2" ry="2" width="1.62443520684256" height="11.71654" style="fill:#969696;stroke:#969696;stroke-width:0.5"/> <rect x="454.933702405857" y="286.46456" rx="2" ry="2" width="7.12811866883155" height="11.71654" style="fill:#969696;stroke:#969696;stroke-width:0.5"/> <rect x="465.605128074688" y="286.46456" rx="2" ry="2" width="33.1675725815019" height="11.71654" style="fill:#969696;stroke:#969696;stroke-width:0.5"/> <rect x="502.31600765619" y="286.46456" rx="2" ry="2" width="1.67292581003189" height="11.71654" style="fill:#969696;stroke:#969696;stroke-width:0.5"/> <rect x="507.532240466222" y="286.46456" rx="2" ry="2" width="1.43047279408524" height="11.71654" style="fill:#969696;stroke:#969696;stroke-width:0.5"/> <rect x="512.506020260307" y="286.46456" rx="2" ry="2" width="1.69717111162656" height="11.71654" style="fill:#969696;stroke:#969696;stroke-width:0.5"/> <rect x="517.746498371934" y="286.46456" rx="2" ry="2" width="43.7142787751812" height="11.71654" style="fill:#969696;stroke:#969696;stroke-width:0.5"/> <rect x="565.004084147115" y="286.46456" rx="2" ry="2" width="12.5833115276312" height="11.71654" style="fill:#969696;stroke:#969696;stroke-width:0.5"/> <rect x="581.130702674746" y="286.46456" rx="2" ry="2" width="1.64868050843723" height="11.71654" style="fill:#969696;stroke:#969696;stroke-width:0.5"/> <rect x="586.322690183184" y="286.46456" rx="2" ry="2" width="27.4941720083502" height="11.71654" style="fill:#969696;stroke:#969696;stroke-width:0.5"/> <rect x="617.360169191534" y="286.46456" rx="2" ry="2" width="1.6001899052479" height="11.71654" style="fill:#969696;stroke:#969696;stroke-width:0.5"/> <rect x="622.503666096782" y="286.46456" rx="2" ry="2" width="1.6001899052479" height="11.71654" style="fill:#969696;stroke:#969696;stroke-width:0.5"/> <rect x="627.64716300203" y="286.46456" rx="2" ry="2" width="45.5811669979704" height="11.71654" style="fill:#969696;stroke:#969696;stroke-width:0.5"/></svg>