<?xml version="1.0" standalone="no"?> <!DOCTYPE svg PUBLIC "-//W3C//DTD SVG 1.1//EN" "http://www.w3.org/Graphics/SVG/1.1/DTD/svg11.dtd">  <svg id="svg" width="744.0945" height="1052.362"> 	<text x="70.86614" y="103.29921" font-size="12" fill="#252525" >gDNA</text><text x="70.86614" y="298.181095" font-size="12" fill="#252525" >mtDNA</text><text x="143.73314368586" y="85.039368" font-size="9" fill="black" >1</text> <text x="188.613802043661" y="85.039368" font-size="9" fill="black" >2</text> <text x="229.109762321569" y="85.039368" font-size="9" fill="black" >3</text> <text x="260.319148272765" y="85.039368" font-size="9" fill="black" >4</text> <text x="278.349813572224" y="85.039368" font-size="9" fill="black" >5</text> <text x="289.226559465745" y="85.039368" font-size="9" fill="black" >6</text> <text x="315.296738111476" y="85.039368" font-size="9" fill="black" >7</text> <text x="350.805211047513" y="85.039368" font-size="9" fill="black" >8</text> <text x="379.882973095778" y="85.039368" font-size="9" fill="black" >9</text> <text x="399.717222994342" y="85.039368" font-size="9" fill="black" >10</text> <text x="418.43819818366" y="85.039368" font-size="9" fill="black" >11</text> <text x="449.180043520257" y="85.039368" font-size="9" fill="black" >12</text> <text x="486.170544253227" y="85.039368" font-size="9" fill="black" >13</text> <text x="524.117405066594" y="85.039368" font-size="9" fill="black" >14</text> <text x="558.222942867353" y="85.039368" font-size="9" fill="black" >15</text> <text x="583.436099240421" y="85.039368" font-size="9" fill="black" >16</text> <text x="605.956876468256" y="85.039368" font-size="9" fill="black" >17</text> <text x="626.83413769093" y="85.039368" font-size="9" fill="black" >18</text> <text x="644.606644430775" y="85.039368" font-size="9" fill="black" >19</text> <text x="658.280003828227" y="85.039368" font-size="9" fill="black" >20</text> <text x="667.284033680277" y="85.039368" font-size="9" fill="black" >21</text> <text x="NA" y="310.0393625" font-size="9" fill="black" >NA</text> <text x="NA" y="310.0393625" font-size="9" fill="black" >NA</text> <text x="NA" y="310.0393625" font-size="9" fill="black" >NA</text> <text x="NA" y="310.0393625" font-size="9" fill="black" >NA</text> <text x="NA" y="310.0393625" font-size="9" fill="black" >NA</text> <text x="NA" y="310.0393625" font-size="9" fill="black" >NA</text> <text x="NA" y="310.0393625" font-size="9" fill="black" >NA</text> <text x="NA" y="310.0393625" font-size="9" fill="black" >NA</text> <text x="NA" y="310.0393625" font-size="9" fill="black" >NA</text> <text x="NA" y="310.0393625" font-size="9" fill="black" >NA</text> <text x="NA" y="310.0393625" font-size="9" fill="black" >NA</text> <text x="NA" y="310.0393625" font-size="9" fill="black" >NA</text> <text x="NA" y="310.0393625" font-size="9" fill="black" >NA</text> <text x="NA" y="310.0393625" font-size="9" fill="black" >NA</text> <text x="NA" y="310.0393625" font-size="9" fill="black" >NA</text> <text x="NA" y="310.0393625" font-size="9" fill="black" >NA</text> <text x="NA" y="310.0393625" font-size="9" fill="black" >NA</text> <text x="NA" y="310.0393625" font-size="9" fill="black" >NA</text> <text x="NA" y="310.0393625" font-size="9" fill="black" >NA</text> <text x="NA" y="310.0393625" font-size="9" fill="black" >NA</text> <text x="NA" y="310.0393625" font-size="9" fill="black" >NA</text> <text x="NA" y="310.0393625" font-size="9" fill="black" >NA</text> <text x="NA" y="310.0393625" font-size="9" fill="black" >NA</text> <text x="NA" y="310.0393625" font-size="9" fill="black" >NA</text> <text x="NA" y="310.0393625" font-size="9" fill="black" >NA</text> <text x="NA" y="310.0393625" font-size="9" fill="black" >NA</text> <text x="NA" y="310.0393625" font-size="9" fill="black" >NA</text> <text x="NA" y="310.0393625" font-size="9" fill="black" >NA</text> <text x="NA" y="310.0393625" font-size="9" fill="black" >NA</text> <text x="NA" y="310.0393625" font-size="9" fill="black" >NA</text> <text x="NA" y="310.0393625" font-size="9" fill="black" >NA</text> <text x="NA" y="310.0393625" font-size="9" fill="black" >NA</text> <text x="NA" y="310.0393625" font-size="9" fill="black" >NA</text> <text x="NA" y="310.0393625" font-size="9" fill="black" >NA</text> <text x="NA" y="310.0393625" font-size="9" fill="black" >NA</text> <text x="NA" y="310.0393625" font-size="9" fill="black" >NA</text> <text x="NA" y="310.0393625" font-size="9" fill="black" >NA</text> <text x="NA" y="310.0393625" font-size="9" fill="black" >NA</text><path d="M 457.699370612535 106.29921 Q 457.699370612535 159.448815 290.857557806267 194.881885 T 124.015745 283.46456 L 125.664425508437 283.46456 Q 125.664425508437 230.314955 291.681905786402 194.881885 T 457.699386064366 106.29921 Z" stroke="#FF0000" fill="#FF0000" style="stroke-width: 0.5px;"/> <path d="M 457.699370612535 106.29921 Q 457.699370612535 159.448815 293.465674211283 194.881885 T 129.231977810032 283.46456 L 132.820282446042 283.46456 Q 132.820282446042 230.314955 295.259843212787 194.881885 T 457.699403979533 106.29921 Z" stroke="#FF0000" fill="#FF0000" style="stroke-width: 0.5px;"/> <path d="M 660.466152999394 106.29921 Q 660.466152999394 159.448815 408.755492352843 194.881885 T 157.044831706292 283.46456 L 157.55398303978 283.46456 Q 157.55398303978 230.314955 409.010070482922 194.881885 T 660.466157926065 106.29921 Z" stroke="#FFA500" fill="#FFA500" style="stroke-width: 0.5px;"/> <path d="M 660.466152999394 106.29921 Q 660.466152999394 159.448815 410.793844170384 194.881885 T 161.121535341374 283.46456 L 172.201638170136 283.46456 Q 172.201638170136 230.314955 416.33394686693 194.881885 T 660.466255563724 106.29921 Z" stroke="#FFA500" fill="#FFA500" style="stroke-width: 0.5px;"/> <path d="M 660.466285123749 106.29921 Q 660.466285123749 159.448815 422.407409696406 194.881885 T 184.348534269063 283.46456 L 184.324288967469 283.46456 Q 184.324288967469 230.314955 422.395356019 194.881885 T 660.466423070532 106.29921 Z" stroke="#DAA520" fill="#DAA520" style="stroke-width: 0.5px;"/> <path d="M 256.188460892816 106.29921 Q 256.188460892816 159.448815 243.511112126605 194.881885 T 230.833763360394 283.46456 L 231.391405297072 283.46456 Q 231.391405297072 230.314955 243.789935782219 194.881885 T 256.188466267366 106.29921 Z" stroke="#EEE8AA" fill="#EEE8AA" style="stroke-width: 0.5px;"/> <path d="M 256.188460892816 106.29921 Q 256.188460892816 159.448815 245.573709245741 194.881885 T 234.958957598666 283.46456 L 236.631883408698 283.46456 Q 236.631883408698 230.314955 246.410179988642 194.881885 T 256.188476568587 106.29921 Z" stroke="#EEE8AA" fill="#EEE8AA" style="stroke-width: 0.5px;"/> <path d="M 256.188460892816 106.29921 Q 256.188460892816 159.448815 248.193948301554 194.881885 T 240.199435710293 283.46456 L 241.920852123514 283.46456 Q 241.920852123514 230.314955 249.05466456999 194.881885 T 256.188477016466 106.29921 Z" stroke="#EEE8AA" fill="#EEE8AA" style="stroke-width: 0.5px;"/> <path d="M 256.188460892816 106.29921 Q 256.188460892816 159.448815 250.838432658962 194.881885 T 245.488404425109 283.46456 L 246.240008774543 283.46456 Q 246.240008774543 230.314955 251.214238416713 194.881885 T 256.188468058882 106.29921 Z" stroke="#EEE8AA" fill="#EEE8AA" style="stroke-width: 0.5px;"/> <path d="M 149.708654099077 106.29921 Q 149.708654099077 159.448815 250.650844852728 194.881885 T 351.593035606379 283.46456 L 353.071999003653 283.46456 Q 353.071999003653 230.314955 251.390333493492 194.881885 T 149.708667983331 106.29921 Z" stroke="#BDB76B" fill="#BDB76B" style="stroke-width: 0.5px;"/> <path d="M 149.708654099077 106.29921 Q 149.708654099077 159.448815 253.174102702162 194.881885 T 356.639551305248 283.46456 L 373.12635638962 283.46456 Q 373.12635638962 230.314955 261.417581495777 194.881885 T 149.708806601933 106.29921 Z" stroke="#BDB76B" fill="#BDB76B" style="stroke-width: 0.5px;"/> <path d="M 149.708654099077 106.29921 Q 149.708654099077 159.448815 263.201281395146 194.881885 T 376.693908691215 283.46456 L 378.342589199652 283.46456 Q 378.342589199652 230.314955 264.02562937528 194.881885 T 149.708669550908 106.29921 Z" stroke="#BDB76B" fill="#BDB76B" style="stroke-width: 0.5px;"/> <path d="M 149.708654099077 106.29921 Q 149.708654099077 159.448815 265.809397800162 194.881885 T 381.910141501247 283.46456 L 386.613730010612 283.46456 Q 386.613730010612 230.314955 268.161213888954 194.881885 T 149.708697767296 106.29921 Z" stroke="#BDB76B" fill="#BDB76B" style="stroke-width: 0.5px;"/> <path d="M 149.708654099077 106.29921 Q 149.708654099077 159.448815 269.944968205642 194.881885 T 390.181282312206 283.46456 L 406.522615587011 283.46456 Q 406.522615587011 230.314955 278.115710422653 194.881885 T 149.708805258296 106.29921 Z" stroke="#BDB76B" fill="#BDB76B" style="stroke-width: 0.5px;"/> <path d="M 149.708654099077 106.29921 Q 149.708654099077 159.448815 279.899410993841 194.881885 T 410.090167888605 283.46456 L 429.049993735634 283.46456 Q 429.049993735634 230.314955 289.379411589702 194.881885 T 149.708829443771 106.29921 Z" stroke="#BDB76B" fill="#BDB76B" style="stroke-width: 0.5px;"/> <path d="M 149.708654099077 106.29921 Q 149.708654099077 159.448815 291.163100068153 194.881885 T 432.617546037228 283.46456 L 434.29047184726 283.46456 Q 434.29047184726 230.314955 291.999570811054 194.881885 T 149.708669774848 106.29921 Z" stroke="#BDB76B" fill="#BDB76B" style="stroke-width: 0.5px;"/> <path d="M 149.708654099077 106.29921 Q 149.708654099077 159.448815 293.783339123966 194.881885 T 437.858024148855 283.46456 L 446.19840789742 283.46456 Q 446.19840789742 230.314955 297.953569627826 194.881885 T 149.708731358233 106.29921 Z" stroke="#BDB76B" fill="#BDB76B" style="stroke-width: 0.5px;"/> <path d="M 149.708654099077 106.29921 Q 149.708654099077 159.448815 299.737307149046 194.881885 T 449.765960199014 283.46456 L 451.366150104262 283.46456 Q 451.366150104262 230.314955 300.537409603646 194.881885 T 149.708669103029 106.29921 Z" stroke="#BDB76B" fill="#BDB76B" style="stroke-width: 0.5px;"/> <path d="M 149.708654099077 106.29921 Q 149.708654099077 159.448815 302.321178252467 194.881885 T 454.933702405857 283.46456 L 462.037575773094 283.46456 Q 462.037575773094 230.314955 305.873147855204 194.881885 T 149.708719937314 106.29921 Z" stroke="#BDB76B" fill="#BDB76B" style="stroke-width: 0.5px;"/> <path d="M 149.708654099077 106.29921 Q 149.708654099077 159.448815 307.656891086883 194.881885 T 465.605128074688 283.46456 L 498.748455354596 283.46456 Q 498.748455354596 230.314955 324.228707901511 194.881885 T 149.708960448427 106.29921 Z" stroke="#BDB76B" fill="#BDB76B" style="stroke-width: 0.5px;"/> <path d="M 149.708654099077 106.29921 Q 149.708654099077 159.448815 326.012330877634 194.881885 T 502.31600765619 283.46456 L 503.964688164627 283.46456 Q 503.964688164627 230.314955 326.836678857768 194.881885 T 149.708669550908 106.29921 Z" stroke="#BDB76B" fill="#BDB76B" style="stroke-width: 0.5px;"/> <path d="M 149.708654099077 106.29921 Q 149.708654099077 159.448815 328.620447282649 194.881885 T 507.532240466222 283.46456 L 508.938467958713 283.46456 Q 508.938467958713 230.314955 329.323562708442 194.881885 T 149.708657458171 106.29921 Z" stroke="#BDB76B" fill="#BDB76B" style="stroke-width: 0.5px;"/> <path d="M 638.720169682648 106.29921 Q 638.720169682648 159.448815 541.174287805516 194.881885 T 443.628405928385 283.46456 L 443.60416062679 283.46456 Q 443.60416062679 230.314955 541.16219146762 194.881885 T 638.72022230845 106.29921 Z" stroke="#6B8E23" fill="#6B8E23" style="stroke-width: 0.5px;"/> <path d="M 638.720169682648 106.29921 Q 638.720169682648 159.448815 544.243064940831 194.881885 T 449.765960199014 283.46456 L 451.366150104262 283.46456 Q 451.366150104262 230.314955 545.043167395431 194.881885 T 638.7201846866 106.29921 Z" stroke="#6B8E23" fill="#6B8E23" style="stroke-width: 0.5px;"/> <path d="M 638.720169682648 106.29921 Q 638.720169682648 159.448815 546.826936044252 194.881885 T 454.933702405857 283.46456 L 457.60068558127 283.46456 Q 457.60068558127 230.314955 548.160440060606 194.881885 T 638.720194539941 106.29921 Z" stroke="#6B8E23" fill="#6B8E23" style="stroke-width: 0.5px;"/> <path d="M 205.754609892418 106.29921 Q 205.754609892418 159.448815 344.747611779958 194.881885 T 483.740613667498 283.46456 L 491.620336685764 283.46456 Q 491.620336685764 230.314955 348.687509791243 194.881885 T 205.754682896722 106.29921 Z" stroke="#228B22" fill="#228B22" style="stroke-width: 0.5px;"/> <path d="M 321.212700302159 106.29921 Q 321.212700302159 159.448815 427.989700196774 194.881885 T 534.766700091389 283.46456 L 543.543499268658 283.46456 Q 543.543499268658 230.314955 432.378140430443 194.881885 T 321.212781592228 106.29921 Z" stroke="#8FBC8F" fill="#8FBC8F" style="stroke-width: 0.5px;"/> <path d="M 386.452879627353 106.29921 Q 386.452879627353 159.448815 470.97465629109 194.881885 T 555.496432954827 283.46456 L 561.43653184552 283.46456 Q 561.43653184552 230.314955 473.944733281005 194.881885 T 386.45293471649 106.29921 Z" stroke="#00FFFF" fill="#00FFFF" style="stroke-width: 0.5px;"/> <path d="M 386.452879627353 106.29921 Q 386.452879627353 159.448815 475.728481887234 194.881885 T 565.004084147115 283.46456 L 576.520602404581 283.46456 Q 576.520602404581 230.314955 481.486794313588 194.881885 T 386.452986222595 106.29921 Z" stroke="#00FFFF" fill="#00FFFF" style="stroke-width: 0.5px;"/> <path d="M 383.095701005826 106.29921 Q 383.095701005826 159.448815 469.890076869396 194.881885 T 556.684452732966 283.46456 L 561.43653184552 283.46456 Q 561.43653184552 230.314955 472.266138483722 194.881885 T 383.095745121924 106.29921 Z" stroke="#AFEEEE" fill="#AFEEEE" style="stroke-width: 0.5px;"/> <path d="M 383.095701005826 106.29921 Q 383.095701005826 159.448815 474.049892576471 194.881885 T 565.004084147115 283.46456 L 569.659182053291 283.46456 Q 569.659182053291 230.314955 476.377463139728 194.881885 T 383.095744226166 106.29921 Z" stroke="#AFEEEE" fill="#AFEEEE" style="stroke-width: 0.5px;"/> <path d="M 604.445569141187 106.29921 Q 604.445569141187 159.448815 588.204027422986 194.881885 T 571.962485704784 283.46456 L 577.563150373152 283.46456 Q 577.563150373152 230.314955 591.004385734161 194.881885 T 604.44562109517 106.29921 Z" stroke="#7FFFD4" fill="#7FFFD4" style="stroke-width: 0.5px;"/> <path d="M 604.445569141187 106.29921 Q 604.445569141187 159.448815 592.788135907967 194.881885 T 581.130702674746 283.46456 L 582.755137881589 283.46456 Q 582.755137881589 230.314955 593.600361125334 194.881885 T 604.445584369079 106.29921 Z" stroke="#7FFFD4" fill="#7FFFD4" style="stroke-width: 0.5px;"/> <path d="M 604.445569141187 106.29921 Q 604.445569141187 159.448815 607.167346237193 194.881885 T 609.889123333198 283.46456 L 612.410634699043 283.46456 Q 612.410634699043 230.314955 608.428113676943 194.881885 T 604.445592654843 106.29921 Z" stroke="#7FFFD4" fill="#7FFFD4" style="stroke-width: 0.5px;"/> <path d="M 386.453113868157 106.29921 Q 386.453113868157 159.448815 481.741433803113 194.881885 T 577.029753738069 283.46456 L 577.005508436474 283.46456 Q 577.005508436474 230.314955 481.729315295198 194.881885 T 386.453122153922 106.29921 Z" stroke="#B0E0E6" fill="#B0E0E6" style="stroke-width: 0.5px;"/> <path d="M 386.453113868157 106.29921 Q 386.453113868157 159.448815 483.791908271452 194.881885 T 581.130702674746 283.46456 L 582.755137881589 283.46456 Q 582.755137881589 230.314955 484.604133488819 194.881885 T 386.453129096049 106.29921 Z" stroke="#B0E0E6" fill="#B0E0E6" style="stroke-width: 0.5px;"/> <path d="M 386.453113868157 106.29921 Q 386.453113868157 159.448815 486.38790202567 194.881885 T 586.322690183184 283.46456 L 613.792616889939 283.46456 Q 613.792616889939 230.314955 500.122883742094 194.881885 T 386.453150594249 106.29921 Z" stroke="#B0E0E6" fill="#B0E0E6" style="stroke-width: 0.5px;"/><rect x="124.015745" y="88.582675" rx="2" ry="2" width="43.6347973717203" height="17.71654" style="fill:#f7f7f7;stroke:black;stroke-width:0.5"/> <rect x="171.19384937172" y="88.582675" rx="2" ry="2" width="39.0399053438808" height="17.71654" style="fill:#f7f7f7;stroke:black;stroke-width:0.5"/> <rect x="213.777061715601" y="88.582675" rx="2" ry="2" width="34.8654012119349" height="17.71654" style="fill:#f7f7f7;stroke:black;stroke-width:0.5"/> <rect x="252.185769927536" y="88.582675" rx="2" ry="2" width="20.466756690459" height="17.71654" style="fill:#f7f7f7;stroke:black;stroke-width:0.5"/> <rect x="276.195833617995" y="88.582675" rx="2" ry="2" width="8.50795990845775" height="17.71654" style="fill:#f7f7f7;stroke:black;stroke-width:0.5"/> <rect x="288.247100526453" y="88.582675" rx="2" ry="2" width="6.15891787858494" height="17.71654" style="fill:#f7f7f7;stroke:black;stroke-width:0.5"/> <rect x="297.949325405038" y="88.582675" rx="2" ry="2" width="38.8948254128767" height="17.71654" style="fill:#f7f7f7;stroke:black;stroke-width:0.5"/> <rect x="340.387457817914" y="88.582675" rx="2" ry="2" width="25.0355064591971" height="17.71654" style="fill:#f7f7f7;stroke:black;stroke-width:0.5"/> <rect x="368.966271277112" y="88.582675" rx="2" ry="2" width="26.033403637334" height="17.71654" style="fill:#f7f7f7;stroke:black;stroke-width:0.5"/> <rect x="398.542981914445" y="88.582675" rx="2" ry="2" width="10.7484821597928" height="17.71654" style="fill:#f7f7f7;stroke:black;stroke-width:0.5"/> <rect x="412.834771074238" y="88.582675" rx="2" ry="2" width="19.6068542188432" height="17.71654" style="fill:#f7f7f7;stroke:black;stroke-width:0.5"/> <rect x="435.984932293081" y="88.582675" rx="2" ry="2" width="34.7902224543504" height="17.71654" style="fill:#f7f7f7;stroke:black;stroke-width:0.5"/> <rect x="474.318461747432" y="88.582675" rx="2" ry="2" width="32.1041650115901" height="17.71654" style="fill:#f7f7f7;stroke:black;stroke-width:0.5"/> <rect x="509.965933759022" y="88.582675" rx="2" ry="2" width="36.7029426151432" height="17.71654" style="fill:#f7f7f7;stroke:black;stroke-width:0.5"/> <rect x="550.212183374165" y="88.582675" rx="2" ry="2" width="24.421518986375" height="17.71654" style="fill:#f7f7f7;stroke:black;stroke-width:0.5"/> <rect x="578.17700936054" y="88.582675" rx="2" ry="2" width="18.918179759762" height="17.71654" style="fill:#f7f7f7;stroke:black;stroke-width:0.5"/> <rect x="600.638496120302" y="88.582675" rx="2" ry="2" width="19.0367606959083" height="17.71654" style="fill:#f7f7f7;stroke:black;stroke-width:0.5"/> <rect x="623.21856381621" y="88.582675" rx="2" ry="2" width="15.6311477494385" height="17.71654" style="fill:#f7f7f7;stroke:black;stroke-width:0.5"/> <rect x="642.393018565649" y="88.582675" rx="2" ry="2" width="12.8272517302513" height="17.71654" style="fill:#f7f7f7;stroke:black;stroke-width:0.5"/> <rect x="658.7635772959" y="88.582675" rx="2" ry="2" width="7.43285306465346" height="17.71654" style="fill:#f7f7f7;stroke:black;stroke-width:0.5"/> <rect x="669.739737360554" y="88.582675" rx="2" ry="2" width="3.48859263944627" height="17.71654" style="fill:#f7f7f7;stroke:black;stroke-width:0.5"/> <rect x="124.015745" y="283.46456" rx="2" ry="2" width="1.67292581003189" height="17.71654" style="fill:#f7f7f7;stroke:black;stroke-width:0.5"/> <rect x="129.231977810032" y="283.46456" rx="2" ry="2" width="23.2027536260945" height="17.71654" style="fill:#f7f7f7;stroke:black;stroke-width:0.5"/> <rect x="155.978038436126" y="283.46456" rx="2" ry="2" width="1.6001899052479" height="17.71654" style="fill:#f7f7f7;stroke:black;stroke-width:0.5"/> <rect x="161.121535341374" y="283.46456" rx="2" ry="2" width="38.3318218211656" height="17.71654" style="fill:#f7f7f7;stroke:black;stroke-width:0.5"/> <rect x="202.99666416254" y="283.46456" rx="2" ry="2" width="1.81839761959988" height="17.71654" style="fill:#f7f7f7;stroke:black;stroke-width:0.5"/> <rect x="208.35836878214" y="283.46456" rx="2" ry="2" width="23.0572818165265" height="17.71654" style="fill:#f7f7f7;stroke:black;stroke-width:0.5"/> <rect x="234.958957598666" y="283.46456" rx="2" ry="2" width="1.69717111162656" height="17.71654" style="fill:#f7f7f7;stroke:black;stroke-width:0.5"/> <rect x="240.199435710293" y="283.46456" rx="2" ry="2" width="1.74566171481589" height="17.71654" style="fill:#f7f7f7;stroke:black;stroke-width:0.5"/> <rect x="245.488404425109" y="283.46456" rx="2" ry="2" width="1.67292581003189" height="17.71654" style="fill:#f7f7f7;stroke:black;stroke-width:0.5"/> <rect x="250.704637235141" y="283.46456" rx="2" ry="2" width="25.1666230552624" height="17.71654" style="fill:#f7f7f7;stroke:black;stroke-width:0.5"/> <rect x="279.414567290403" y="283.46456" rx="2" ry="2" width="1.62443520684256" height="17.71654" style="fill:#f7f7f7;stroke:black;stroke-width:0.5"/> <rect x="284.582309497246" y="283.46456" rx="2" ry="2" width="1.62443520684256" height="17.71654" style="fill:#f7f7f7;stroke:black;stroke-width:0.5"/> <rect x="289.750051704088" y="283.46456" rx="2" ry="2" width="1.76990701641055" height="17.71654" style="fill:#f7f7f7;stroke:black;stroke-width:0.5"/> <rect x="295.063265720499" y="283.46456" rx="2" ry="2" width="1.67292581003189" height="17.71654" style="fill:#f7f7f7;stroke:black;stroke-width:0.5"/> <rect x="300.279498530531" y="283.46456" rx="2" ry="2" width="1.6001899052479" height="17.71654" style="fill:#f7f7f7;stroke:black;stroke-width:0.5"/> <rect x="305.422995435778" y="283.46456" rx="2" ry="2" width="37.2407832494056" height="17.71654" style="fill:#f7f7f7;stroke:black;stroke-width:0.5"/> <rect x="346.207085685184" y="283.46456" rx="2" ry="2" width="1.67292581003189" height="17.71654" style="fill:#f7f7f7;stroke:black;stroke-width:0.5"/> <rect x="351.423318495216" y="283.46456" rx="2" ry="2" width="1.67292581003189" height="17.71654" style="fill:#f7f7f7;stroke:black;stroke-width:0.5"/> <rect x="356.639551305248" y="283.46456" rx="2" ry="2" width="16.5110503859669" height="17.71654" style="fill:#f7f7f7;stroke:black;stroke-width:0.5"/> <rect x="376.693908691215" y="283.46456" rx="2" ry="2" width="1.67292581003189" height="17.71654" style="fill:#f7f7f7;stroke:black;stroke-width:0.5"/> <rect x="381.910141501247" y="283.46456" rx="2" ry="2" width="4.7278338109597" height="17.71654" style="fill:#f7f7f7;stroke:black;stroke-width:0.5"/> <rect x="390.181282312206" y="283.46456" rx="2" ry="2" width="16.365578576399" height="17.71654" style="fill:#f7f7f7;stroke:black;stroke-width:0.5"/> <rect x="410.090167888605" y="283.46456" rx="2" ry="2" width="18.9840711486228" height="17.71654" style="fill:#f7f7f7;stroke:black;stroke-width:0.5"/> <rect x="432.617546037228" y="283.46456" rx="2" ry="2" width="1.69717111162656" height="17.71654" style="fill:#f7f7f7;stroke:black;stroke-width:0.5"/> <rect x="437.858024148855" y="283.46456" rx="2" ry="2" width="8.36462905015947" height="17.71654" style="fill:#f7f7f7;stroke:black;stroke-width:0.5"/> <rect x="449.765960199014" y="283.46456" rx="2" ry="2" width="1.62443520684256" height="17.71654" style="fill:#f7f7f7;stroke:black;stroke-width:0.5"/> <rect x="454.933702405857" y="283.46456" rx="2" ry="2" width="7.12811866883155" height="17.71654" style="fill:#f7f7f7;stroke:black;stroke-width:0.5"/> <rect x="465.605128074688" y="283.46456" rx="2" ry="2" width="33.1675725815019" height="17.71654" style="fill:#f7f7f7;stroke:black;stroke-width:0.5"/> <rect x="502.31600765619" y="283.46456" rx="2" ry="2" width="1.67292581003189" height="17.71654" style="fill:#f7f7f7;stroke:black;stroke-width:0.5"/> <rect x="507.532240466222" y="283.46456" rx="2" ry="2" width="1.43047279408524" height="17.71654" style="fill:#f7f7f7;stroke:black;stroke-width:0.5"/> <rect x="512.506020260307" y="283.46456" rx="2" ry="2" width="1.69717111162656" height="17.71654" style="fill:#f7f7f7;stroke:black;stroke-width:0.5"/> <rect x="517.746498371934" y="283.46456" rx="2" ry="2" width="43.7142787751812" height="17.71654" style="fill:#f7f7f7;stroke:black;stroke-width:0.5"/> <rect x="565.004084147115" y="283.46456" rx="2" ry="2" width="12.5833115276312" height="17.71654" style="fill:#f7f7f7;stroke:black;stroke-width:0.5"/> <rect x="581.130702674746" y="283.46456" rx="2" ry="2" width="1.64868050843723" height="17.71654" style="fill:#f7f7f7;stroke:black;stroke-width:0.5"/> <rect x="586.322690183184" y="283.46456" rx="2" ry="2" width="27.4941720083502" height="17.71654" style="fill:#f7f7f7;stroke:black;stroke-width:0.5"/> <rect x="617.360169191534" y="283.46456" rx="2" ry="2" width="1.6001899052479" height="17.71654" style="fill:#f7f7f7;stroke:black;stroke-width:0.5"/> <rect x="622.503666096782" y="283.46456" rx="2" ry="2" width="1.6001899052479" height="17.71654" style="fill:#f7f7f7;stroke:black;stroke-width:0.5"/> <rect x="627.64716300203" y="283.46456" rx="2" ry="2" width="45.5811669979704" height="17.71654" style="fill:#f7f7f7;stroke:black;stroke-width:0.5"/><rect x="124.015745" y="91.582675" rx="2" ry="2" width="43.6347973717203" height="11.71654" style="fill:#969696;stroke:#969696;stroke-width:0.5"/> <rect x="171.19384937172" y="91.582675" rx="2" ry="2" width="39.0399053438808" height="11.71654" style="fill:#969696;stroke:#969696;stroke-width:0.5"/> <rect x="213.777061715601" y="91.582675" rx="2" ry="2" width="34.8654012119349" height="11.71654" style="fill:#969696;stroke:#969696;stroke-width:0.5"/> <rect x="252.185769927536" y="91.582675" rx="2" ry="2" width="20.466756690459" height="11.71654" style="fill:#969696;stroke:#969696;stroke-width:0.5"/> <rect x="276.195833617995" y="91.582675" rx="2" ry="2" width="8.50795990845775" height="11.71654" style="fill:#969696;stroke:#969696;stroke-width:0.5"/> <rect x="288.247100526453" y="91.582675" rx="2" ry="2" width="6.15891787858494" height="11.71654" style="fill:#969696;stroke:#969696;stroke-width:0.5"/> <rect x="297.949325405038" y="91.582675" rx="2" ry="2" width="38.8948254128767" height="11.71654" style="fill:#969696;stroke:#969696;stroke-width:0.5"/> <rect x="340.387457817914" y="91.582675" rx="2" ry="2" width="25.0355064591971" height="11.71654" style="fill:#969696;stroke:#969696;stroke-width:0.5"/> <rect x="368.966271277112" y="91.582675" rx="2" ry="2" width="26.033403637334" height="11.71654" style="fill:#969696;stroke:#969696;stroke-width:0.5"/> <rect x="398.542981914445" y="91.582675" rx="2" ry="2" width="10.7484821597928" height="11.71654" style="fill:#969696;stroke:#969696;stroke-width:0.5"/> <rect x="412.834771074238" y="91.582675" rx="2" ry="2" width="19.6068542188432" height="11.71654" style="fill:#969696;stroke:#969696;stroke-width:0.5"/> <rect x="435.984932293081" y="91.582675" rx="2" ry="2" width="34.7902224543504" height="11.71654" style="fill:#969696;stroke:#969696;stroke-width:0.5"/> <rect x="474.318461747432" y="91.582675" rx="2" ry="2" width="32.1041650115901" height="11.71654" style="fill:#969696;stroke:#969696;stroke-width:0.5"/> <rect x="509.965933759022" y="91.582675" rx="2" ry="2" width="36.7029426151432" height="11.71654" style="fill:#969696;stroke:#969696;stroke-width:0.5"/> <rect x="550.212183374165" y="91.582675" rx="2" ry="2" width="24.421518986375" height="11.71654" style="fill:#969696;stroke:#969696;stroke-width:0.5"/> <rect x="578.17700936054" y="91.582675" rx="2" ry="2" width="18.918179759762" height="11.71654" style="fill:#969696;stroke:#969696;stroke-width:0.5"/> <rect x="600.638496120302" y="91.582675" rx="2" ry="2" width="19.0367606959083" height="11.71654" style="fill:#969696;stroke:#969696;stroke-width:0.5"/> <rect x="623.21856381621" y="91.582675" rx="2" ry="2" width="15.6311477494385" height="11.71654" style="fill:#969696;stroke:#969696;stroke-width:0.5"/> <rect x="642.393018565649" y="91.582675" rx="2" ry="2" width="12.8272517302513" height="11.71654" style="fill:#969696;stroke:#969696;stroke-width:0.5"/> <rect x="658.7635772959" y="91.582675" rx="2" ry="2" width="7.43285306465346" height="11.71654" style="fill:#969696;stroke:#969696;stroke-width:0.5"/> <rect x="669.739737360554" y="91.582675" rx="2" ry="2" width="3.48859263944627" height="11.71654" style="fill:#969696;stroke:#969696;stroke-width:0.5"/> <rect x="124.015745" y="286.46456" rx="2" ry="2" width="1.67292581003189" height="11.71654" style="fill:#969696;stroke:#969696;stroke-width:0.5"/> <rect x="129.231977810032" y="286.46456" rx="2" ry="2" width="23.2027536260945" height="11.71654" style="fill:#969696;stroke:#969696;stroke-width:0.5"/> <rect x="155.978038436126" y="286.46456" rx="2" ry="2" width="1.6001899052479" height="11.71654" style="fill:#969696;stroke:#969696;stroke-width:0.5"/> <rect x="161.121535341374" y="286.46456" rx="2" ry="2" width="38.3318218211656" height="11.71654" style="fill:#969696;stroke:#969696;stroke-width:0.5"/> <rect x="202.99666416254" y="286.46456" rx="2" ry="2" width="1.81839761959988" height="11.71654" style="fill:#969696;stroke:#969696;stroke-width:0.5"/> <rect x="208.35836878214" y="286.46456" rx="2" ry="2" width="23.0572818165265" height="11.71654" style="fill:#969696;stroke:#969696;stroke-width:0.5"/> <rect x="234.958957598666" y="286.46456" rx="2" ry="2" width="1.69717111162656" height="11.71654" style="fill:#969696;stroke:#969696;stroke-width:0.5"/> <rect x="240.199435710293" y="286.46456" rx="2" ry="2" width="1.74566171481589" height="11.71654" style="fill:#969696;stroke:#969696;stroke-width:0.5"/> <rect x="245.488404425109" y="286.46456" rx="2" ry="2" width="1.67292581003189" height="11.71654" style="fill:#969696;stroke:#969696;stroke-width:0.5"/> <rect x="250.704637235141" y="286.46456" rx="2" ry="2" width="25.1666230552624" height="11.71654" style="fill:#969696;stroke:#969696;stroke-width:0.5"/> <rect x="279.414567290403" y="286.46456" rx="2" ry="2" width="1.62443520684256" height="11.71654" style="fill:#969696;stroke:#969696;stroke-width:0.5"/> <rect x="284.582309497246" y="286.46456" rx="2" ry="2" width="1.62443520684256" height="11.71654" style="fill:#969696;stroke:#969696;stroke-width:0.5"/> <rect x="289.750051704088" y="286.46456" rx="2" ry="2" width="1.76990701641055" height="11.71654" style="fill:#969696;stroke:#969696;stroke-width:0.5"/> <rect x="295.063265720499" y="286.46456" rx="2" ry="2" width="1.67292581003189" height="11.71654" style="fill:#969696;stroke:#969696;stroke-width:0.5"/> <rect x="300.279498530531" y="286.46456" rx="2" ry="2" width="1.6001899052479" height="11.71654" style="fill:#969696;stroke:#969696;stroke-width:0.5"/> <rect x="305.422995435778" y="286.46456" rx="2" ry="2" width="37.2407832494056" height="11.71654" style="fill:#969696;stroke:#969696;stroke-width:0.5"/> <rect x="346.207085685184" y="286.46456" rx="2" ry="2" width="1.67292581003189" height="11.71654" style="fill:#969696;stroke:#969696;stroke-width:0.5"/> <rect x="351.423318495216" y="286.46456" rx="2" ry="2" width="1.67292581003189" height="11.71654" style="fill:#969696;stroke:#969696;stroke-width:0.5"/> <rect x="356.639551305248" y="286.46456" rx="2" ry="2" width="16.5110503859669" height="11.71654" style="fill:#969696;stroke:#969696;stroke-width:0.5"/> <rect x="376.693908691215" y="286.46456" rx="2" ry="2" width="1.67292581003189" height="11.71654" style="fill:#969696;stroke:#969696;stroke-width:0.5"/> <rect x="381.910141501247" y="286.46456" rx="2" ry="2" width="4.7278338109597" height="11.71654" style="fill:#969696;stroke:#969696;stroke-width:0.5"/> <rect x="390.181282312206" y="286.46456" rx="2" ry="2" width="16.365578576399" height="11.71654" style="fill:#969696;stroke:#969696;stroke-width:0.5"/> <rect x="410.090167888605" y="286.46456" rx="2" ry="2" width="18.9840711486228" height="11.71654" style="fill:#969696;stroke:#969696;stroke-width:0.5"/> <rect x="432.617546037228" y="286.46456" rx="2" ry="2" width="1.69717111162656" height="11.71654" style="fill:#969696;stroke:#969696;stroke-width:0.5"/> <rect x="437.858024148855" y="286.46456" rx="2" ry="2" width="8.36462905015947" height="11.71654" style="fill:#969696;stroke:#969696;stroke-width:0.5"/> <rect x="449.765960199014" y="286.46456" rx="2" ry="2" width="1.62443520684256" height="11.71654" style="fill:#969696;stroke:#969696;stroke-width:0.5"/> <rect x="454.933702405857" y="286.46456" rx="2" ry="2" width="7.12811866883155" height="11.71654" style="fill:#969696;stroke:#969696;stroke-width:0.5"/> <rect x="465.605128074688" y="286.46456" rx="2" ry="2" width="33.1675725815019" height="11.71654" style="fill:#969696;stroke:#969696;stroke-width:0.5"/> <rect x="502.31600765619" y="286.46456" rx="2" ry="2" width="1.67292581003189" height="11.71654" style="fill:#969696;stroke:#969696;stroke-width:0.5"/> <rect x="507.532240466222" y="286.46456" rx="2" ry="2" width="1.43047279408524" height="11.71654" style="fill:#969696;stroke:#969696;stroke-width:0.5"/> <rect x="512.506020260307" y="286.46456" rx="2" ry="2" width="1.69717111162656" height="11.71654" style="fill:#969696;stroke:#969696;stroke-width:0.5"/> <rect x="517.746498371934" y="286.46456" rx="2" ry="2" width="43.7142787751812" height="11.71654" style="fill:#969696;stroke:#969696;stroke-width:0.5"/> <rect x="565.004084147115" y="286.46456" rx="2" ry="2" width="12.5833115276312" height="11.71654" style="fill:#969696;stroke:#969696;stroke-width:0.5"/> <rect x="581.130702674746" y="286.46456" rx="2" ry="2" width="1.64868050843723" height="11.71654" style="fill:#969696;stroke:#969696;stroke-width:0.5"/> <rect x="586.322690183184" y="286.46456" rx="2" ry="2" width="27.4941720083502" height="11.71654" style="fill:#969696;stroke:#969696;stroke-width:0.5"/> <rect x="617.360169191534" y="286.46456" rx="2" ry="2" width="1.6001899052479" height="11.71654" style="fill:#969696;stroke:#969696;stroke-width:0.5"/> <rect x="622.503666096782" y="286.46456" rx="2" ry="2" width="1.6001899052479" height="11.71654" style="fill:#969696;stroke:#969696;stroke-width:0.5"/> <rect x="627.64716300203" y="286.46456" rx="2" ry="2" width="45.5811669979704" height="11.71654" style="fill:#969696;stroke:#969696;stroke-width:0.5"/></svg>