<?xml version="1.0" standalone="no"?> <!DOCTYPE svg PUBLIC "-//W3C//DTD SVG 1.1//EN" "http://www.w3.org/Graphics/SVG/1.1/DTD/svg11.dtd">  <svg id="svg" width="744.0945" height="1052.362"> 	<text x="70.86614" y="103.29921" font-size="12" fill="#252525" >gDNA</text><text x="70.86614" y="298.181095" font-size="12" fill="#252525" >mtDNA</text><text x="144.629476825321" y="85.039368" font-size="9" fill="black" >1</text> <text x="191.208414545068" y="85.039368" font-size="9" fill="black" >2</text> <text x="233.222515835152" y="85.039368" font-size="9" fill="black" >3</text> <text x="265.568518656214" y="85.039368" font-size="9" fill="black" >4</text> <text x="284.194374039239" y="85.039368" font-size="9" fill="black" >5</text> <text x="295.372402610917" y="85.039368" font-size="9" fill="black" >6</text> <text x="305.327656839026" y="85.039368" font-size="9" fill="black" >6</text> <text x="332.323316192846" y="85.039368" font-size="9" fill="black" >7</text> <text x="369.664474251399" y="85.039368" font-size="9" fill="black" >9</text> <text x="390.25428680082" y="85.039368" font-size="9" fill="black" >10</text> <text x="409.598812358068" y="85.039368" font-size="9" fill="black" >11</text> <text x="441.45806640168" y="85.039368" font-size="9" fill="black" >12</text> <text x="479.822691914442" y="85.039368" font-size="9" fill="black" >13</text> <text x="519.182968041071" y="85.039368" font-size="9" fill="black" >14</text> <text x="554.544106506099" y="85.039368" font-size="9" fill="black" >15</text> <text x="580.647534189688" y="85.039368" font-size="9" fill="black" >16</text> <text x="603.947970611237" y="85.039368" font-size="9" fill="black" >17</text> <text x="625.537369785432" y="85.039368" font-size="9" fill="black" >18</text> <text x="643.894460574846" y="85.039368" font-size="9" fill="black" >19</text> <text x="657.983997070176" y="85.039368" font-size="9" fill="black" >20</text> <text x="667.212372039083" y="85.039368" font-size="9" fill="black" >21</text> <text x="NA" y="310.0393625" font-size="9" fill="black" >NA</text> <text x="NA" y="310.0393625" font-size="9" fill="black" >NA</text> <text x="NA" y="310.0393625" font-size="9" fill="black" >NA</text> <text x="NA" y="310.0393625" font-size="9" fill="black" >NA</text> <text x="NA" y="310.0393625" font-size="9" fill="black" >NA</text> <text x="NA" y="310.0393625" font-size="9" fill="black" >NA</text> <text x="NA" y="310.0393625" font-size="9" fill="black" >NA</text> <text x="NA" y="310.0393625" font-size="9" fill="black" >NA</text> <text x="NA" y="310.0393625" font-size="9" fill="black" >NA</text> <text x="NA" y="310.0393625" font-size="9" fill="black" >NA</text> <text x="NA" y="310.0393625" font-size="9" fill="black" >NA</text> <text x="NA" y="310.0393625" font-size="9" fill="black" >NA</text> <text x="NA" y="310.0393625" font-size="9" fill="black" >NA</text> <text x="NA" y="310.0393625" font-size="9" fill="black" >NA</text> <text x="NA" y="310.0393625" font-size="9" fill="black" >NA</text> <text x="NA" y="310.0393625" font-size="9" fill="black" >NA</text> <text x="NA" y="310.0393625" font-size="9" fill="black" >NA</text> <text x="NA" y="310.0393625" font-size="9" fill="black" >NA</text> <text x="NA" y="310.0393625" font-size="9" fill="black" >NA</text> <text x="NA" y="310.0393625" font-size="9" fill="black" >NA</text> <text x="NA" y="310.0393625" font-size="9" fill="black" >NA</text> <text x="NA" y="310.0393625" font-size="9" fill="black" >NA</text> <text x="NA" y="310.0393625" font-size="9" fill="black" >NA</text> <text x="NA" y="310.0393625" font-size="9" fill="black" >NA</text> <text x="NA" y="310.0393625" font-size="9" fill="black" >NA</text> <text x="NA" y="310.0393625" font-size="9" fill="black" >NA</text> <text x="NA" y="310.0393625" font-size="9" fill="black" >NA</text> <text x="NA" y="310.0393625" font-size="9" fill="black" >NA</text> <text x="NA" y="310.0393625" font-size="9" fill="black" >NA</text> <text x="NA" y="310.0393625" font-size="9" fill="black" >NA</text> <text x="NA" y="310.0393625" font-size="9" fill="black" >NA</text> <text x="NA" y="310.0393625" font-size="9" fill="black" >NA</text> <text x="NA" y="310.0393625" font-size="9" fill="black" >NA</text> <text x="NA" y="310.0393625" font-size="9" fill="black" >NA</text> <text x="NA" y="310.0393625" font-size="9" fill="black" >NA</text> <text x="NA" y="310.0393625" font-size="9" fill="black" >NA</text> <text x="NA" y="310.0393625" font-size="9" fill="black" >NA</text> <text x="NA" y="310.0393625" font-size="9" fill="black" >NA</text><path d="M 450.154846180629 106.29921 Q 450.154846180629 159.448815 287.085295590314 194.881885 T 124.015745 283.46456 L 125.664425508437 283.46456 Q 125.664425508437 230.314955 287.909643887856 194.881885 T 450.154862267274 106.29921 Z" stroke="#979873" fill="#979873" style="stroke-width: 0.5px;"/> <path d="M 450.154846180629 106.29921 Q 450.154846180629 159.448815 289.69341199533 194.881885 T 129.231977810032 283.46456 L 132.820282446042 283.46456 Q 132.820282446042 230.314955 291.487581682249 194.881885 T 450.154880918457 106.29921 Z" stroke="#979873" fill="#979873" style="stroke-width: 0.5px;"/> <path d="M 360.164921887235 106.29921 Q 360.164921887235 159.448815 250.820388501286 194.881885 T 141.475855115338 283.46456 L 142.809346703044 283.46456 Q 142.809346703044 230.314955 251.487140823053 194.881885 T 360.164934943063 106.29921 Z" stroke="#449962" fill="#449962" style="stroke-width: 0.5px;"/> <path d="M 660.087410381683 106.29921 Q 660.087410381683 159.448815 408.566121043988 194.881885 T 157.044831706292 283.46456 L 157.55398303978 283.46456 Q 157.55398303978 230.314955 408.820699275269 194.881885 T 660.087415510759 106.29921 Z" stroke="#EF23A3" fill="#EF23A3" style="stroke-width: 0.5px;"/> <path d="M 660.087410381683 106.29921 Q 660.087410381683 159.448815 410.604472861529 194.881885 T 161.121535341374 283.46456 L 172.201638170136 283.46456 Q 172.201638170136 230.314955 416.144577664921 194.881885 T 660.087517159705 106.29921 Z" stroke="#EF23A3" fill="#EF23A3" style="stroke-width: 0.5px;"/> <path d="M 367.795532038798 106.29921 Q 367.795532038798 159.448815 265.391977801481 194.881885 T 162.988423564164 283.46456 L 165.41295372363 283.46456 Q 165.41295372363 230.314955 266.604254654773 194.881885 T 367.795555585917 106.29921 Z" stroke="#503C0A" fill="#503C0A" style="stroke-width: 0.5px;"/> <path d="M 660.087547934157 106.29921 Q 660.087547934157 159.448815 422.21804110161 194.881885 T 184.348534269063 283.46456 L 184.324288967469 283.46456 Q 184.324288967469 230.314955 422.205990257867 194.881885 T 660.087691548265 106.29921 Z" stroke="#71E21C" fill="#71E21C" style="stroke-width: 0.5px;"/> <path d="M 523.510019665323 106.29921 Q 523.510019665323 159.448815 353.929276967193 194.881885 T 184.348534269063 283.46456 L 184.324288967469 283.46456 Q 184.324288967469 230.314955 353.917161543729 194.881885 T 523.51003411999 106.29921 Z" stroke="#B9C638" fill="#B9C638" style="stroke-width: 0.5px;"/> <path d="M 659.570604989974 106.29921 Q 659.570604989974 159.448815 425.305421249583 194.881885 T 191.040237509191 283.46456 L 192.252502588924 283.46456 Q 192.252502588924 230.314955 425.911559734514 194.881885 T 659.570616880103 106.29921 Z" stroke="#39FD02" fill="#39FD02" style="stroke-width: 0.5px;"/> <path d="M 398.416711357583 106.29921 Q 398.416711357583 159.448815 313.522076136431 194.881885 T 228.62744091528 283.46456 L 228.603195613685 283.46456 Q 228.603195613685 230.314955 313.509970504838 194.881885 T 398.416745395991 106.29921 Z" stroke="#0D7A94" fill="#0D7A94" style="stroke-width: 0.5px;"/> <path d="M 398.416711357583 106.29921 Q 398.416711357583 159.448815 316.687834478125 194.881885 T 234.958957598666 283.46456 L 236.631883408698 283.46456 Q 236.631883408698 230.314955 317.524305543033 194.881885 T 398.416727677368 106.29921 Z" stroke="#0D7A94" fill="#0D7A94" style="stroke-width: 0.5px;"/> <path d="M 398.416711357583 106.29921 Q 398.416711357583 159.448815 319.332318835532 194.881885 T 240.247926313482 283.46456 L 241.896606821919 283.46456 Q 241.896606821919 230.314955 320.156667133074 194.881885 T 398.416727444228 106.29921 Z" stroke="#0D7A94" fill="#0D7A94" style="stroke-width: 0.5px;"/> <path d="M 261.181853390876 106.29921 Q 261.181853390876 159.448815 246.007808375635 194.881885 T 230.833763360394 283.46456 L 231.391405297072 283.46456 Q 231.391405297072 230.314955 246.286632141651 194.881885 T 261.181858986231 106.29921 Z" stroke="#52BB88" fill="#52BB88" style="stroke-width: 0.5px;"/> <path d="M 261.181853390876 106.29921 Q 261.181853390876 159.448815 248.070405494771 194.881885 T 234.958957598666 283.46456 L 236.631883408698 283.46456 Q 236.631883408698 230.314955 248.90687655968 194.881885 T 261.181869710661 106.29921 Z" stroke="#52BB88" fill="#52BB88" style="stroke-width: 0.5px;"/> <path d="M 261.181853390876 106.29921 Q 261.181853390876 159.448815 250.690644550584 194.881885 T 240.199435710293 283.46456 L 241.920852123514 283.46456 Q 241.920852123514 230.314955 251.551361150227 194.881885 T 261.18187017694 106.29921 Z" stroke="#52BB88" fill="#52BB88" style="stroke-width: 0.5px;"/> <path d="M 261.181853390876 106.29921 Q 261.181853390876 159.448815 253.335128907992 194.881885 T 245.488404425109 283.46456 L 246.240008774543 283.46456 Q 246.240008774543 230.314955 253.710934812946 194.881885 T 261.181860851349 106.29921 Z" stroke="#52BB88" fill="#52BB88" style="stroke-width: 0.5px;"/> <path d="M 150.764206422535 106.29921 Q 150.764206422535 159.448815 251.178621014457 194.881885 T 351.593035606379 283.46456 L 353.071999003653 283.46456 Q 353.071999003653 230.314955 251.918109940427 194.881885 T 150.764220877201 106.29921 Z" stroke="#6AE32A" fill="#6AE32A" style="stroke-width: 0.5px;"/> <path d="M 150.764206422535 106.29921 Q 150.764206422535 159.448815 253.701878863891 194.881885 T 356.639551305248 283.46456 L 373.12635638962 283.46456 Q 373.12635638962 230.314955 261.945360790174 194.881885 T 150.764365190728 106.29921 Z" stroke="#6AE32A" fill="#6AE32A" style="stroke-width: 0.5px;"/> <path d="M 150.764206422535 106.29921 Q 150.764206422535 159.448815 263.729057556875 194.881885 T 376.693908691215 283.46456 L 378.342589199652 283.46456 Q 378.342589199652 230.314955 264.553405854416 194.881885 T 150.76422250918 106.29921 Z" stroke="#6AE32A" fill="#6AE32A" style="stroke-width: 0.5px;"/> <path d="M 150.764206422535 106.29921 Q 150.764206422535 159.448815 266.337173961891 194.881885 T 381.910141501247 283.46456 L 386.613730010612 283.46456 Q 386.613730010612 230.314955 268.688990947702 194.881885 T 150.764251884793 106.29921 Z" stroke="#6AE32A" fill="#6AE32A" style="stroke-width: 0.5px;"/> <path d="M 150.764206422535 106.29921 Q 150.764206422535 159.448815 270.472744367371 194.881885 T 390.181282312206 283.46456 L 406.522615587011 283.46456 Q 406.522615587011 230.314955 278.64348968945 194.881885 T 150.76436379189 106.29921 Z" stroke="#6AE32A" fill="#6AE32A" style="stroke-width: 0.5px;"/> <path d="M 150.764206422535 106.29921 Q 150.764206422535 159.448815 280.42718715557 194.881885 T 410.090167888605 283.46456 L 429.049993735634 283.46456 Q 429.049993735634 230.314955 289.90719135331 194.881885 T 150.764388970987 106.29921 Z" stroke="#6AE32A" fill="#6AE32A" style="stroke-width: 0.5px;"/> <path d="M 150.764206422535 106.29921 Q 150.764206422535 159.448815 291.690876229881 194.881885 T 432.617546037228 283.46456 L 434.29047184726 283.46456 Q 434.29047184726 230.314955 292.52734729479 194.881885 T 150.76422274232 106.29921 Z" stroke="#6AE32A" fill="#6AE32A" style="stroke-width: 0.5px;"/> <path d="M 150.764206422535 106.29921 Q 150.764206422535 159.448815 294.311115285695 194.881885 T 437.858024148855 283.46456 L 446.19840789742 283.46456 Q 446.19840789742 230.314955 298.48134737659 194.881885 T 150.764286855761 106.29921 Z" stroke="#6AE32A" fill="#6AE32A" style="stroke-width: 0.5px;"/> <path d="M 150.764206422535 106.29921 Q 150.764206422535 159.448815 300.265083310774 194.881885 T 449.765960199014 283.46456 L 451.366150104262 283.46456 Q 451.366150104262 230.314955 301.065186073581 194.881885 T 150.7642220429 106.29921 Z" stroke="#6AE32A" fill="#6AE32A" style="stroke-width: 0.5px;"/> <path d="M 150.764206422535 106.29921 Q 150.764206422535 159.448815 302.848954414196 194.881885 T 454.933702405857 283.46456 L 462.037575773094 283.46456 Q 462.037575773094 230.314955 306.400925369363 194.881885 T 150.764274965632 106.29921 Z" stroke="#6AE32A" fill="#6AE32A" style="stroke-width: 0.5px;"/> <path d="M 150.764206422535 106.29921 Q 150.764206422535 159.448815 308.184667248612 194.881885 T 465.605128074688 283.46456 L 498.748455354596 283.46456 Q 498.748455354596 230.314955 324.756490356178 194.881885 T 150.764525357761 106.29921 Z" stroke="#6AE32A" fill="#6AE32A" style="stroke-width: 0.5px;"/> <path d="M 150.764206422535 106.29921 Q 150.764206422535 159.448815 326.540107039363 194.881885 T 502.31600765619 283.46456 L 503.964688164627 283.46456 Q 503.964688164627 230.314955 327.364455336904 194.881885 T 150.76422250918 106.29921 Z" stroke="#6AE32A" fill="#6AE32A" style="stroke-width: 0.5px;"/> <path d="M 150.764206422535 106.29921 Q 150.764206422535 159.448815 329.148223444378 194.881885 T 507.532240466222 283.46456 L 508.938467958713 283.46456 Q 508.938467958713 230.314955 329.851338939172 194.881885 T 150.764209919631 106.29921 Z" stroke="#6AE32A" fill="#6AE32A" style="stroke-width: 0.5px;"/> <path d="M 361.69894343952 106.29921 Q 361.69894343952 159.448815 362.478731040056 194.881885 T 363.258518640592 283.46456 L 365.004180355407 283.46456 Q 365.004180355407 230.314955 363.351570407066 194.881885 T 361.698960458725 106.29921 Z" stroke="#525EFB" fill="#525EFB" style="stroke-width: 0.5px;"/> <path d="M 297.694513602094 106.29921 Q 297.694513602094 159.448815 330.658355883303 194.881885 T 363.622198164511 283.46456 L 365.198142768165 283.46456 Q 365.198142768165 230.314955 331.446335878742 194.881885 T 297.69452898932 106.29921 Z" stroke="#62A153" fill="#62A153" style="stroke-width: 0.5px;"/> <path d="M 201.17677132408 106.29921 Q 201.17677132408 159.448815 309.173283639164 194.881885 T 417.169795954248 283.46456 L 419.861024431255 283.46456 Q 419.861024431255 230.314955 310.518910933496 194.881885 T 201.176797435736 106.29921 Z" stroke="#C455C9" fill="#C455C9" style="stroke-width: 0.5px;"/> <path d="M 637.739170182189 106.29921 Q 637.739170182189 159.448815 540.683788055287 194.881885 T 443.628405928385 283.46456 L 443.60416062679 283.46456 Q 443.60416062679 230.314955 540.671692798415 194.881885 T 637.739224970039 106.29921 Z" stroke="#A2A2BB" fill="#A2A2BB" style="stroke-width: 0.5px;"/> <path d="M 637.739170182189 106.29921 Q 637.739170182189 159.448815 543.752565190602 194.881885 T 449.765960199014 283.46456 L 451.366150104262 283.46456 Q 451.366150104262 230.314955 544.552667953409 194.881885 T 637.739185802555 106.29921 Z" stroke="#A2A2BB" fill="#A2A2BB" style="stroke-width: 0.5px;"/> <path d="M 637.739170182189 106.29921 Q 637.739170182189 159.448815 546.336436294023 194.881885 T 454.933702405857 283.46456 L 457.60068558127 283.46456 Q 457.60068558127 230.314955 547.669940820988 194.881885 T 637.739196060705 106.29921 Z" stroke="#A2A2BB" fill="#A2A2BB" style="stroke-width: 0.5px;"/> <path d="M 208.967121396051 106.29921 Q 208.967121396051 159.448815 344.353630150215 194.881885 T 479.740138904378 283.46456 L 482.358631476602 283.46456 Q 482.358631476602 230.314955 345.662889142445 194.881885 T 208.967146808288 106.29921 Z" stroke="#93CE39" fill="#93CE39" style="stroke-width: 0.5px;"/> <path d="M 208.967150072245 106.29921 Q 208.967150072245 159.448815 346.353881869871 194.881885 T 483.740613667498 283.46456 L 491.620336685764 283.46456 Q 491.620336685764 230.314955 350.293781380789 194.881885 T 208.967226075815 106.29921 Z" stroke="#595D11" fill="#595D11" style="stroke-width: 0.5px;"/> <path d="M 208.967388107966 106.29921 Q 208.967388107966 159.448815 358.746842969785 194.881885 T 508.526297831603 283.46456 L 508.792996149145 283.46456 Q 508.792996149145 230.314955 358.880193527394 194.881885 T 208.967390905643 106.29921 Z" stroke="#A9CD44" fill="#A9CD44" style="stroke-width: 0.5px;"/> <path d="M 208.967388107966 106.29921 Q 208.967388107966 159.448815 360.736704184137 194.881885 T 512.506020260307 283.46456 L 514.178946070339 283.46456 Q 514.178946070339 230.314955 361.573175249045 194.881885 T 208.967404427751 106.29921 Z" stroke="#A9CD44" fill="#A9CD44" style="stroke-width: 0.5px;"/> <path d="M 208.967388107966 106.29921 Q 208.967388107966 159.448815 363.35694323995 194.881885 T 517.746498371934 283.46456 L 517.746498371934 283.46456 Q 517.746498371934 230.314955 363.35694335652 194.881885 T 208.967388341106 106.29921 Z" stroke="#A9CD44" fill="#A9CD44" style="stroke-width: 0.5px;"/> <path d="M 328.440796895364 106.29921 Q 328.440796895364 159.448815 431.603748493376 194.881885 T 534.766700091389 283.46456 L 543.543499268658 283.46456 Q 543.543499268658 230.314955 435.992190396882 194.881885 T 328.440881525106 106.29921 Z" stroke="#7A4DE9" fill="#7A4DE9" style="stroke-width: 0.5px;"/> <path d="M 376.418019786515 106.29921 Q 376.418019786515 159.448815 465.957226370671 194.881885 T 555.496432954827 283.46456 L 561.43653184552 283.46456 Q 561.43653184552 230.314955 468.927304492211 194.881885 T 376.418077138902 106.29921 Z" stroke="#F8FAFF" fill="#F8FAFF" style="stroke-width: 0.5px;"/> <path d="M 376.418019786515 106.29921 Q 376.418019786515 159.448815 470.711051966815 194.881885 T 565.004084147115 283.46456 L 576.520602404581 283.46456 Q 576.520602404581 230.314955 476.469366582817 194.881885 T 376.418130761052 106.29921 Z" stroke="#F8FAFF" fill="#F8FAFF" style="stroke-width: 0.5px;"/> <path d="M 372.922916818603 106.29921 Q 372.922916818603 159.448815 464.803684775785 194.881885 T 556.684452732966 283.46456 L 561.43653184552 283.46456 Q 561.43653184552 230.314955 467.179747296331 194.881885 T 372.922962747141 106.29921 Z" stroke="#F4B572" fill="#F4B572" style="stroke-width: 0.5px;"/> <path d="M 372.922916818603 106.29921 Q 372.922916818603 159.448815 468.963500482859 194.881885 T 565.004084147115 283.46456 L 569.659182053291 283.46456 Q 569.659182053291 230.314955 471.291071933936 194.881885 T 372.922961814582 106.29921 Z" stroke="#F4B572" fill="#F4B572" style="stroke-width: 0.5px;"/> <path d="M 520.672196270231 106.29921 Q 520.672196270231 159.448815 546.099133273156 194.881885 T 571.52607027608 283.46456 L 574.290034657872 283.46456 Q 574.290034657872 230.314955 547.481128869589 194.881885 T 520.672223081307 106.29921 Z" stroke="#20B06B" fill="#20B06B" style="stroke-width: 0.5px;"/> <path d="M 602.202023302536 106.29921 Q 602.202023302536 159.448815 587.08225450366 194.881885 T 571.962485704784 283.46456 L 577.563150373152 283.46456 Q 577.563150373152 230.314955 589.882613882059 194.881885 T 602.202077390966 106.29921 Z" stroke="#9057F1" fill="#9057F1" style="stroke-width: 0.5px;"/> <path d="M 602.202023302536 106.29921 Q 602.202023302536 159.448815 591.666362988641 194.881885 T 581.130702674746 283.46456 L 582.755137881589 283.46456 Q 582.755137881589 230.314955 592.478588518815 194.881885 T 602.202039156041 106.29921 Z" stroke="#9057F1" fill="#9057F1" style="stroke-width: 0.5px;"/> <path d="M 602.202023302536 106.29921 Q 602.202023302536 159.448815 606.045573317867 194.881885 T 609.889123333198 283.46456 L 612.410634699043 283.46456 Q 612.410634699043 230.314955 607.306341240628 194.881885 T 602.202047782214 106.29921 Z" stroke="#9057F1" fill="#9057F1" style="stroke-width: 0.5px;"/> <path d="M 376.41826365073 106.29921 Q 376.41826365073 159.448815 476.7240086944 194.881885 T 577.029753738069 283.46456 L 577.005508436474 283.46456 Q 577.005508436474 230.314955 476.711890356688 194.881885 T 376.418272276902 106.29921 Z" stroke="#19B3C8" fill="#19B3C8" style="stroke-width: 0.5px;"/> <path d="M 376.41826365073 106.29921 Q 376.41826365073 159.448815 478.774483162738 194.881885 T 581.130702674746 283.46456 L 582.755137881589 283.46456 Q 582.755137881589 230.314955 479.586708692912 194.881885 T 376.418279504235 106.29921 Z" stroke="#19B3C8" fill="#19B3C8" style="stroke-width: 0.5px;"/> <path d="M 376.41826365073 106.29921 Q 376.41826365073 159.448815 481.370476916957 194.881885 T 586.322690183184 283.46456 L 613.792616889939 283.46456 Q 613.792616889939 230.314955 495.105459387797 194.881885 T 376.418301885655 106.29921 Z" stroke="#19B3C8" fill="#19B3C8" style="stroke-width: 0.5px;"/><rect x="124.015745" y="88.582675" rx="2" ry="2" width="45.4274636506427" height="17.71654" style="fill:#f7f7f7;stroke:black;stroke-width:0.5"/> <rect x="172.986515650643" y="88.582675" rx="2" ry="2" width="40.6437977888508" height="17.71654" style="fill:#f7f7f7;stroke:black;stroke-width:0.5"/> <rect x="217.173620439493" y="88.582675" rx="2" ry="2" width="36.2977907913178" height="17.71654" style="fill:#f7f7f7;stroke:black;stroke-width:0.5"/> <rect x="257.014718230811" y="88.582675" rx="2" ry="2" width="21.307600850805" height="17.71654" style="fill:#f7f7f7;stroke:black;stroke-width:0.5"/> <rect x="281.865626081616" y="88.582675" rx="2" ry="2" width="8.85749591524577" height="17.71654" style="fill:#f7f7f7;stroke:black;stroke-width:0.5"/> <rect x="294.266428996862" y="88.582675" rx="2" ry="2" width="6.41194722810924" height="17.71654" style="fill:#f7f7f7;stroke:black;stroke-width:0.5"/> <rect x="304.221683224971" y="88.582675" rx="2" ry="2" width="6.41194722810924" height="17.71654" style="fill:#f7f7f7;stroke:black;stroke-width:0.5"/> <rect x="314.17693745308" y="88.582675" rx="2" ry="2" width="40.4927574795311" height="17.71654" style="fill:#f7f7f7;stroke:black;stroke-width:0.5"/> <rect x="358.213001932612" y="88.582675" rx="2" ry="2" width="27.102944637574" height="17.71654" style="fill:#f7f7f7;stroke:black;stroke-width:0.5"/> <rect x="388.859253570186" y="88.582675" rx="2" ry="2" width="11.1900664612693" height="17.71654" style="fill:#f7f7f7;stroke:black;stroke-width:0.5"/> <rect x="403.592627031455" y="88.582675" rx="2" ry="2" width="20.4123706532256" height="17.71654" style="fill:#f7f7f7;stroke:black;stroke-width:0.5"/> <rect x="427.548304684681" y="88.582675" rx="2" ry="2" width="36.2195234339979" height="17.71654" style="fill:#f7f7f7;stroke:black;stroke-width:0.5"/> <rect x="467.311135118678" y="88.582675" rx="2" ry="2" width="33.4231135915263" height="17.71654" style="fill:#f7f7f7;stroke:black;stroke-width:0.5"/> <rect x="504.277555710205" y="88.582675" rx="2" ry="2" width="38.2108246617328" height="17.71654" style="fill:#f7f7f7;stroke:black;stroke-width:0.5"/> <rect x="546.031687371938" y="88.582675" rx="2" ry="2" width="25.424838268323" height="17.71654" style="fill:#f7f7f7;stroke:black;stroke-width:0.5"/> <rect x="574.99983264026" y="88.582675" rx="2" ry="2" width="19.6954030988555" height="17.71654" style="fill:#f7f7f7;stroke:black;stroke-width:0.5"/> <rect x="598.238542739116" y="88.582675" rx="2" ry="2" width="19.818855744242" height="17.71654" style="fill:#f7f7f7;stroke:black;stroke-width:0.5"/> <rect x="621.600705483358" y="88.582675" rx="2" ry="2" width="16.2733286041486" height="17.71654" style="fill:#f7f7f7;stroke:black;stroke-width:0.5"/> <rect x="641.417341087507" y="88.582675" rx="2" ry="2" width="13.3542389746787" height="17.71654" style="fill:#f7f7f7;stroke:black;stroke-width:0.5"/> <rect x="658.314887062185" y="88.582675" rx="2" ry="2" width="7.73822001598081" height="17.71654" style="fill:#f7f7f7;stroke:black;stroke-width:0.5"/> <rect x="669.596414078166" y="88.582675" rx="2" ry="2" width="3.63191592183385" height="17.71654" style="fill:#f7f7f7;stroke:black;stroke-width:0.5"/> <rect x="124.015745" y="283.46456" rx="2" ry="2" width="1.67292581003189" height="17.71654" style="fill:#f7f7f7;stroke:black;stroke-width:0.5"/> <rect x="129.231977810032" y="283.46456" rx="2" ry="2" width="23.2027536260945" height="17.71654" style="fill:#f7f7f7;stroke:black;stroke-width:0.5"/> <rect x="155.978038436126" y="283.46456" rx="2" ry="2" width="1.6001899052479" height="17.71654" style="fill:#f7f7f7;stroke:black;stroke-width:0.5"/> <rect x="161.121535341374" y="283.46456" rx="2" ry="2" width="38.3318218211656" height="17.71654" style="fill:#f7f7f7;stroke:black;stroke-width:0.5"/> <rect x="202.99666416254" y="283.46456" rx="2" ry="2" width="1.81839761959988" height="17.71654" style="fill:#f7f7f7;stroke:black;stroke-width:0.5"/> <rect x="208.35836878214" y="283.46456" rx="2" ry="2" width="23.0572818165265" height="17.71654" style="fill:#f7f7f7;stroke:black;stroke-width:0.5"/> <rect x="234.958957598666" y="283.46456" rx="2" ry="2" width="1.69717111162656" height="17.71654" style="fill:#f7f7f7;stroke:black;stroke-width:0.5"/> <rect x="240.199435710293" y="283.46456" rx="2" ry="2" width="1.74566171481589" height="17.71654" style="fill:#f7f7f7;stroke:black;stroke-width:0.5"/> <rect x="245.488404425109" y="283.46456" rx="2" ry="2" width="1.67292581003189" height="17.71654" style="fill:#f7f7f7;stroke:black;stroke-width:0.5"/> <rect x="250.704637235141" y="283.46456" rx="2" ry="2" width="25.1666230552624" height="17.71654" style="fill:#f7f7f7;stroke:black;stroke-width:0.5"/> <rect x="279.414567290403" y="283.46456" rx="2" ry="2" width="1.62443520684256" height="17.71654" style="fill:#f7f7f7;stroke:black;stroke-width:0.5"/> <rect x="284.582309497246" y="283.46456" rx="2" ry="2" width="1.62443520684256" height="17.71654" style="fill:#f7f7f7;stroke:black;stroke-width:0.5"/> <rect x="289.750051704088" y="283.46456" rx="2" ry="2" width="1.76990701641055" height="17.71654" style="fill:#f7f7f7;stroke:black;stroke-width:0.5"/> <rect x="295.063265720499" y="283.46456" rx="2" ry="2" width="1.67292581003189" height="17.71654" style="fill:#f7f7f7;stroke:black;stroke-width:0.5"/> <rect x="300.279498530531" y="283.46456" rx="2" ry="2" width="1.6001899052479" height="17.71654" style="fill:#f7f7f7;stroke:black;stroke-width:0.5"/> <rect x="305.422995435778" y="283.46456" rx="2" ry="2" width="37.2407832494056" height="17.71654" style="fill:#f7f7f7;stroke:black;stroke-width:0.5"/> <rect x="346.207085685184" y="283.46456" rx="2" ry="2" width="1.67292581003189" height="17.71654" style="fill:#f7f7f7;stroke:black;stroke-width:0.5"/> <rect x="351.423318495216" y="283.46456" rx="2" ry="2" width="1.67292581003189" height="17.71654" style="fill:#f7f7f7;stroke:black;stroke-width:0.5"/> <rect x="356.639551305248" y="283.46456" rx="2" ry="2" width="16.5110503859669" height="17.71654" style="fill:#f7f7f7;stroke:black;stroke-width:0.5"/> <rect x="376.693908691215" y="283.46456" rx="2" ry="2" width="1.67292581003189" height="17.71654" style="fill:#f7f7f7;stroke:black;stroke-width:0.5"/> <rect x="381.910141501247" y="283.46456" rx="2" ry="2" width="4.7278338109597" height="17.71654" style="fill:#f7f7f7;stroke:black;stroke-width:0.5"/> <rect x="390.181282312206" y="283.46456" rx="2" ry="2" width="16.365578576399" height="17.71654" style="fill:#f7f7f7;stroke:black;stroke-width:0.5"/> <rect x="410.090167888605" y="283.46456" rx="2" ry="2" width="18.9840711486228" height="17.71654" style="fill:#f7f7f7;stroke:black;stroke-width:0.5"/> <rect x="432.617546037228" y="283.46456" rx="2" ry="2" width="1.69717111162656" height="17.71654" style="fill:#f7f7f7;stroke:black;stroke-width:0.5"/> <rect x="437.858024148855" y="283.46456" rx="2" ry="2" width="8.36462905015947" height="17.71654" style="fill:#f7f7f7;stroke:black;stroke-width:0.5"/> <rect x="449.765960199014" y="283.46456" rx="2" ry="2" width="1.62443520684256" height="17.71654" style="fill:#f7f7f7;stroke:black;stroke-width:0.5"/> <rect x="454.933702405857" y="283.46456" rx="2" ry="2" width="7.12811866883155" height="17.71654" style="fill:#f7f7f7;stroke:black;stroke-width:0.5"/> <rect x="465.605128074688" y="283.46456" rx="2" ry="2" width="33.1675725815019" height="17.71654" style="fill:#f7f7f7;stroke:black;stroke-width:0.5"/> <rect x="502.31600765619" y="283.46456" rx="2" ry="2" width="1.67292581003189" height="17.71654" style="fill:#f7f7f7;stroke:black;stroke-width:0.5"/> <rect x="507.532240466222" y="283.46456" rx="2" ry="2" width="1.43047279408524" height="17.71654" style="fill:#f7f7f7;stroke:black;stroke-width:0.5"/> <rect x="512.506020260307" y="283.46456" rx="2" ry="2" width="1.69717111162656" height="17.71654" style="fill:#f7f7f7;stroke:black;stroke-width:0.5"/> <rect x="517.746498371934" y="283.46456" rx="2" ry="2" width="43.7142787751812" height="17.71654" style="fill:#f7f7f7;stroke:black;stroke-width:0.5"/> <rect x="565.004084147115" y="283.46456" rx="2" ry="2" width="12.5833115276312" height="17.71654" style="fill:#f7f7f7;stroke:black;stroke-width:0.5"/> <rect x="581.130702674746" y="283.46456" rx="2" ry="2" width="1.64868050843723" height="17.71654" style="fill:#f7f7f7;stroke:black;stroke-width:0.5"/> <rect x="586.322690183184" y="283.46456" rx="2" ry="2" width="27.4941720083502" height="17.71654" style="fill:#f7f7f7;stroke:black;stroke-width:0.5"/> <rect x="617.360169191534" y="283.46456" rx="2" ry="2" width="1.6001899052479" height="17.71654" style="fill:#f7f7f7;stroke:black;stroke-width:0.5"/> <rect x="622.503666096782" y="283.46456" rx="2" ry="2" width="1.6001899052479" height="17.71654" style="fill:#f7f7f7;stroke:black;stroke-width:0.5"/> <rect x="627.64716300203" y="283.46456" rx="2" ry="2" width="45.5811669979704" height="17.71654" style="fill:#f7f7f7;stroke:black;stroke-width:0.5"/><rect x="124.015745" y="91.582675" rx="2" ry="2" width="45.4274636506427" height="11.71654" style="fill:#969696;stroke:#969696;stroke-width:0.5"/> <rect x="172.986515650643" y="91.582675" rx="2" ry="2" width="40.6437977888508" height="11.71654" style="fill:#969696;stroke:#969696;stroke-width:0.5"/> <rect x="217.173620439493" y="91.582675" rx="2" ry="2" width="36.2977907913178" height="11.71654" style="fill:#969696;stroke:#969696;stroke-width:0.5"/> <rect x="257.014718230811" y="91.582675" rx="2" ry="2" width="21.307600850805" height="11.71654" style="fill:#969696;stroke:#969696;stroke-width:0.5"/> <rect x="281.865626081616" y="91.582675" rx="2" ry="2" width="8.85749591524577" height="11.71654" style="fill:#969696;stroke:#969696;stroke-width:0.5"/> <rect x="294.266428996862" y="91.582675" rx="2" ry="2" width="6.41194722810924" height="11.71654" style="fill:#969696;stroke:#969696;stroke-width:0.5"/> <rect x="304.221683224971" y="91.582675" rx="2" ry="2" width="6.41194722810924" height="11.71654" style="fill:#969696;stroke:#969696;stroke-width:0.5"/> <rect x="314.17693745308" y="91.582675" rx="2" ry="2" width="40.4927574795311" height="11.71654" style="fill:#969696;stroke:#969696;stroke-width:0.5"/> <rect x="358.213001932612" y="91.582675" rx="2" ry="2" width="27.102944637574" height="11.71654" style="fill:#969696;stroke:#969696;stroke-width:0.5"/> <rect x="388.859253570186" y="91.582675" rx="2" ry="2" width="11.1900664612693" height="11.71654" style="fill:#969696;stroke:#969696;stroke-width:0.5"/> <rect x="403.592627031455" y="91.582675" rx="2" ry="2" width="20.4123706532256" height="11.71654" style="fill:#969696;stroke:#969696;stroke-width:0.5"/> <rect x="427.548304684681" y="91.582675" rx="2" ry="2" width="36.2195234339979" height="11.71654" style="fill:#969696;stroke:#969696;stroke-width:0.5"/> <rect x="467.311135118678" y="91.582675" rx="2" ry="2" width="33.4231135915263" height="11.71654" style="fill:#969696;stroke:#969696;stroke-width:0.5"/> <rect x="504.277555710205" y="91.582675" rx="2" ry="2" width="38.2108246617328" height="11.71654" style="fill:#969696;stroke:#969696;stroke-width:0.5"/> <rect x="546.031687371938" y="91.582675" rx="2" ry="2" width="25.424838268323" height="11.71654" style="fill:#969696;stroke:#969696;stroke-width:0.5"/> <rect x="574.99983264026" y="91.582675" rx="2" ry="2" width="19.6954030988555" height="11.71654" style="fill:#969696;stroke:#969696;stroke-width:0.5"/> <rect x="598.238542739116" y="91.582675" rx="2" ry="2" width="19.818855744242" height="11.71654" style="fill:#969696;stroke:#969696;stroke-width:0.5"/> <rect x="621.600705483358" y="91.582675" rx="2" ry="2" width="16.2733286041486" height="11.71654" style="fill:#969696;stroke:#969696;stroke-width:0.5"/> <rect x="641.417341087507" y="91.582675" rx="2" ry="2" width="13.3542389746787" height="11.71654" style="fill:#969696;stroke:#969696;stroke-width:0.5"/> <rect x="658.314887062185" y="91.582675" rx="2" ry="2" width="7.73822001598081" height="11.71654" style="fill:#969696;stroke:#969696;stroke-width:0.5"/> <rect x="669.596414078166" y="91.582675" rx="2" ry="2" width="3.63191592183385" height="11.71654" style="fill:#969696;stroke:#969696;stroke-width:0.5"/> <rect x="124.015745" y="286.46456" rx="2" ry="2" width="1.67292581003189" height="11.71654" style="fill:#969696;stroke:#969696;stroke-width:0.5"/> <rect x="129.231977810032" y="286.46456" rx="2" ry="2" width="23.2027536260945" height="11.71654" style="fill:#969696;stroke:#969696;stroke-width:0.5"/> <rect x="155.978038436126" y="286.46456" rx="2" ry="2" width="1.6001899052479" height="11.71654" style="fill:#969696;stroke:#969696;stroke-width:0.5"/> <rect x="161.121535341374" y="286.46456" rx="2" ry="2" width="38.3318218211656" height="11.71654" style="fill:#969696;stroke:#969696;stroke-width:0.5"/> <rect x="202.99666416254" y="286.46456" rx="2" ry="2" width="1.81839761959988" height="11.71654" style="fill:#969696;stroke:#969696;stroke-width:0.5"/> <rect x="208.35836878214" y="286.46456" rx="2" ry="2" width="23.0572818165265" height="11.71654" style="fill:#969696;stroke:#969696;stroke-width:0.5"/> <rect x="234.958957598666" y="286.46456" rx="2" ry="2" width="1.69717111162656" height="11.71654" style="fill:#969696;stroke:#969696;stroke-width:0.5"/> <rect x="240.199435710293" y="286.46456" rx="2" ry="2" width="1.74566171481589" height="11.71654" style="fill:#969696;stroke:#969696;stroke-width:0.5"/> <rect x="245.488404425109" y="286.46456" rx="2" ry="2" width="1.67292581003189" height="11.71654" style="fill:#969696;stroke:#969696;stroke-width:0.5"/> <rect x="250.704637235141" y="286.46456" rx="2" ry="2" width="25.1666230552624" height="11.71654" style="fill:#969696;stroke:#969696;stroke-width:0.5"/> <rect x="279.414567290403" y="286.46456" rx="2" ry="2" width="1.62443520684256" height="11.71654" style="fill:#969696;stroke:#969696;stroke-width:0.5"/> <rect x="284.582309497246" y="286.46456" rx="2" ry="2" width="1.62443520684256" height="11.71654" style="fill:#969696;stroke:#969696;stroke-width:0.5"/> <rect x="289.750051704088" y="286.46456" rx="2" ry="2" width="1.76990701641055" height="11.71654" style="fill:#969696;stroke:#969696;stroke-width:0.5"/> <rect x="295.063265720499" y="286.46456" rx="2" ry="2" width="1.67292581003189" height="11.71654" style="fill:#969696;stroke:#969696;stroke-width:0.5"/> <rect x="300.279498530531" y="286.46456" rx="2" ry="2" width="1.6001899052479" height="11.71654" style="fill:#969696;stroke:#969696;stroke-width:0.5"/> <rect x="305.422995435778" y="286.46456" rx="2" ry="2" width="37.2407832494056" height="11.71654" style="fill:#969696;stroke:#969696;stroke-width:0.5"/> <rect x="346.207085685184" y="286.46456" rx="2" ry="2" width="1.67292581003189" height="11.71654" style="fill:#969696;stroke:#969696;stroke-width:0.5"/> <rect x="351.423318495216" y="286.46456" rx="2" ry="2" width="1.67292581003189" height="11.71654" style="fill:#969696;stroke:#969696;stroke-width:0.5"/> <rect x="356.639551305248" y="286.46456" rx="2" ry="2" width="16.5110503859669" height="11.71654" style="fill:#969696;stroke:#969696;stroke-width:0.5"/> <rect x="376.693908691215" y="286.46456" rx="2" ry="2" width="1.67292581003189" height="11.71654" style="fill:#969696;stroke:#969696;stroke-width:0.5"/> <rect x="381.910141501247" y="286.46456" rx="2" ry="2" width="4.7278338109597" height="11.71654" style="fill:#969696;stroke:#969696;stroke-width:0.5"/> <rect x="390.181282312206" y="286.46456" rx="2" ry="2" width="16.365578576399" height="11.71654" style="fill:#969696;stroke:#969696;stroke-width:0.5"/> <rect x="410.090167888605" y="286.46456" rx="2" ry="2" width="18.9840711486228" height="11.71654" style="fill:#969696;stroke:#969696;stroke-width:0.5"/> <rect x="432.617546037228" y="286.46456" rx="2" ry="2" width="1.69717111162656" height="11.71654" style="fill:#969696;stroke:#969696;stroke-width:0.5"/> <rect x="437.858024148855" y="286.46456" rx="2" ry="2" width="8.36462905015947" height="11.71654" style="fill:#969696;stroke:#969696;stroke-width:0.5"/> <rect x="449.765960199014" y="286.46456" rx="2" ry="2" width="1.62443520684256" height="11.71654" style="fill:#969696;stroke:#969696;stroke-width:0.5"/> <rect x="454.933702405857" y="286.46456" rx="2" ry="2" width="7.12811866883155" height="11.71654" style="fill:#969696;stroke:#969696;stroke-width:0.5"/> <rect x="465.605128074688" y="286.46456" rx="2" ry="2" width="33.1675725815019" height="11.71654" style="fill:#969696;stroke:#969696;stroke-width:0.5"/> <rect x="502.31600765619" y="286.46456" rx="2" ry="2" width="1.67292581003189" height="11.71654" style="fill:#969696;stroke:#969696;stroke-width:0.5"/> <rect x="507.532240466222" y="286.46456" rx="2" ry="2" width="1.43047279408524" height="11.71654" style="fill:#969696;stroke:#969696;stroke-width:0.5"/> <rect x="512.506020260307" y="286.46456" rx="2" ry="2" width="1.69717111162656" height="11.71654" style="fill:#969696;stroke:#969696;stroke-width:0.5"/> <rect x="517.746498371934" y="286.46456" rx="2" ry="2" width="43.7142787751812" height="11.71654" style="fill:#969696;stroke:#969696;stroke-width:0.5"/> <rect x="565.004084147115" y="286.46456" rx="2" ry="2" width="12.5833115276312" height="11.71654" style="fill:#969696;stroke:#969696;stroke-width:0.5"/> <rect x="581.130702674746" y="286.46456" rx="2" ry="2" width="1.64868050843723" height="11.71654" style="fill:#969696;stroke:#969696;stroke-width:0.5"/> <rect x="586.322690183184" y="286.46456" rx="2" ry="2" width="27.4941720083502" height="11.71654" style="fill:#969696;stroke:#969696;stroke-width:0.5"/> <rect x="617.360169191534" y="286.46456" rx="2" ry="2" width="1.6001899052479" height="11.71654" style="fill:#969696;stroke:#969696;stroke-width:0.5"/> <rect x="622.503666096782" y="286.46456" rx="2" ry="2" width="1.6001899052479" height="11.71654" style="fill:#969696;stroke:#969696;stroke-width:0.5"/> <rect x="627.64716300203" y="286.46456" rx="2" ry="2" width="45.5811669979704" height="11.71654" style="fill:#969696;stroke:#969696;stroke-width:0.5"/></svg>