<?xml version="1.0" standalone="no"?> <!DOCTYPE svg PUBLIC "-//W3C//DTD SVG 1.1//EN" "http://www.w3.org/Graphics/SVG/1.1/DTD/svg11.dtd">  <svg id="svg" width="744.0945" height="1052.362"> 	<text x="70.86614" y="103.29921" font-size="12" fill="#252525" >gDNA</text><text x="70.86614" y="298.181095" font-size="12" fill="#252525" >mtDNA</text><text x="143.73314368586" y="85.039368" font-size="9" fill="black" >1</text> <text x="188.613802043661" y="85.039368" font-size="9" fill="black" >2</text> <text x="229.109762321569" y="85.039368" font-size="9" fill="black" >3</text> <text x="260.319148272765" y="85.039368" font-size="9" fill="black" >4</text> <text x="278.349813572224" y="85.039368" font-size="9" fill="black" >5</text> <text x="289.226559465745" y="85.039368" font-size="9" fill="black" >6</text> <text x="315.296738111476" y="85.039368" font-size="9" fill="black" >7</text> <text x="350.805211047513" y="85.039368" font-size="9" fill="black" >8</text> <text x="379.882973095778" y="85.039368" font-size="9" fill="black" >9</text> <text x="399.717222994342" y="85.039368" font-size="9" fill="black" >10</text> <text x="418.43819818366" y="85.039368" font-size="9" fill="black" >11</text> <text x="449.180043520257" y="85.039368" font-size="9" fill="black" >12</text> <text x="486.170544253227" y="85.039368" font-size="9" fill="black" >13</text> <text x="524.117405066594" y="85.039368" font-size="9" fill="black" >14</text> <text x="558.222942867353" y="85.039368" font-size="9" fill="black" >15</text> <text x="583.436099240421" y="85.039368" font-size="9" fill="black" >16</text> <text x="605.956876468256" y="85.039368" font-size="9" fill="black" >17</text> <text x="626.83413769093" y="85.039368" font-size="9" fill="black" >18</text> <text x="644.606644430775" y="85.039368" font-size="9" fill="black" >19</text> <text x="658.280003828227" y="85.039368" font-size="9" fill="black" >20</text> <text x="667.284033680277" y="85.039368" font-size="9" fill="black" >21</text> <text x="NA" y="310.0393625" font-size="9" fill="black" >NA</text> <text x="NA" y="310.0393625" font-size="9" fill="black" >NA</text> <text x="NA" y="310.0393625" font-size="9" fill="black" >NA</text> <text x="NA" y="310.0393625" font-size="9" fill="black" >NA</text> <text x="NA" y="310.0393625" font-size="9" fill="black" >NA</text> <text x="NA" y="310.0393625" font-size="9" fill="black" >NA</text> <text x="NA" y="310.0393625" font-size="9" fill="black" >NA</text> <text x="NA" y="310.0393625" font-size="9" fill="black" >NA</text> <text x="NA" y="310.0393625" font-size="9" fill="black" >NA</text> <text x="NA" y="310.0393625" font-size="9" fill="black" >NA</text> <text x="NA" y="310.0393625" font-size="9" fill="black" >NA</text> <text x="NA" y="310.0393625" font-size="9" fill="black" >NA</text> <text x="NA" y="310.0393625" font-size="9" fill="black" >NA</text> <text x="NA" y="310.0393625" font-size="9" fill="black" >NA</text> <text x="NA" y="310.0393625" font-size="9" fill="black" >NA</text> <text x="NA" y="310.0393625" font-size="9" fill="black" >NA</text> <text x="NA" y="310.0393625" font-size="9" fill="black" >NA</text> <text x="NA" y="310.0393625" font-size="9" fill="black" >NA</text> <text x="NA" y="310.0393625" font-size="9" fill="black" >NA</text> <text x="NA" y="310.0393625" font-size="9" fill="black" >NA</text> <text x="NA" y="310.0393625" font-size="9" fill="black" >NA</text> <text x="NA" y="310.0393625" font-size="9" fill="black" >NA</text> <text x="NA" y="310.0393625" font-size="9" fill="black" >NA</text> <text x="NA" y="310.0393625" font-size="9" fill="black" >NA</text> <text x="NA" y="310.0393625" font-size="9" fill="black" >NA</text> <text x="NA" y="310.0393625" font-size="9" fill="black" >NA</text> <text x="NA" y="310.0393625" font-size="9" fill="black" >NA</text> <text x="NA" y="310.0393625" font-size="9" fill="black" >NA</text> <text x="NA" y="310.0393625" font-size="9" fill="black" >NA</text> <text x="NA" y="310.0393625" font-size="9" fill="black" >NA</text> <text x="NA" y="310.0393625" font-size="9" fill="black" >NA</text> <text x="NA" y="310.0393625" font-size="9" fill="black" >NA</text> <text x="NA" y="310.0393625" font-size="9" fill="black" >NA</text> <text x="NA" y="310.0393625" font-size="9" fill="black" >NA</text> <text x="NA" y="310.0393625" font-size="9" fill="black" >NA</text> <text x="NA" y="310.0393625" font-size="9" fill="black" >NA</text> <text x="NA" y="310.0393625" font-size="9" fill="black" >NA</text> <text x="NA" y="310.0393625" font-size="9" fill="black" >NA</text><path d="M 457.699370612535 106.29921 Q 457.699370612535 159.448815 290.857557806267 194.881885 T 124.015745 283.46456 L 125.664425508437 283.46456 Q 125.664425508437 230.314955 291.681905786402 194.881885 T 457.699386064366 106.29921 Z" stroke="#098DD2" fill="#098DD2" style="stroke-width: 0.5px;"/> <path d="M 457.699370612535 106.29921 Q 457.699370612535 159.448815 293.465674211283 194.881885 T 129.231977810032 283.46456 L 132.820282446042 283.46456 Q 132.820282446042 230.314955 295.259843212787 194.881885 T 457.699403979533 106.29921 Z" stroke="#098DD2" fill="#098DD2" style="stroke-width: 0.5px;"/> <path d="M 140.949358062387 106.29921 Q 140.949358062387 159.448815 139.442699572452 194.881885 T 137.936041082517 283.46456 L 146.858312069353 283.46456 Q 146.858312069353 230.314955 143.903876382724 194.881885 T 140.949440696094 106.29921 Z" stroke="#845002" fill="#845002" style="stroke-width: 0.5px;"/> <path d="M 139.664153340718 106.29921 Q 139.664153340718 159.448815 139.818399878593 194.881885 T 139.972646416469 283.46456 L 139.948401114874 283.46456 Q 139.948401114874 230.314955 139.806295926751 194.881885 T 139.664190738628 106.29921 Z" stroke="#9EE3EA" fill="#9EE3EA" style="stroke-width: 0.5px;"/> <path d="M 370.841164235274 106.29921 Q 370.841164235274 159.448815 256.158509675306 194.881885 T 141.475855115338 283.46456 L 142.809346703044 283.46456 Q 142.809346703044 230.314955 256.825261739468 194.881885 T 370.841176775891 106.29921 Z" stroke="#7173BE" fill="#7173BE" style="stroke-width: 0.5px;"/> <path d="M 241.135616865393 106.29921 Q 241.135616865393 159.448815 196.760928849165 194.881885 T 152.386240832937 283.46456 L 152.361995531342 283.46456 Q 152.361995531342 230.314955 196.748806870186 194.881885 T 241.13561820903 106.29921 Z" stroke="#E95DB7" fill="#E95DB7" style="stroke-width: 0.5px;"/> <path d="M 241.135616865393 106.29921 Q 241.135616865393 159.448815 198.55682765076 194.881885 T 155.978038436126 283.46456 L 157.166058214265 283.46456 Q 157.166058214265 230.314955 199.150843138319 194.881885 T 241.135628062372 106.29921 Z" stroke="#E95DB7" fill="#E95DB7" style="stroke-width: 0.5px;"/> <path d="M 660.466152999394 106.29921 Q 660.466152999394 159.448815 408.755492352843 194.881885 T 157.044831706292 283.46456 L 157.55398303978 283.46456 Q 157.55398303978 230.314955 409.010070482922 194.881885 T 660.466157926065 106.29921 Z" stroke="#243C16" fill="#243C16" style="stroke-width: 0.5px;"/> <path d="M 660.466152999394 106.29921 Q 660.466152999394 159.448815 410.793844170384 194.881885 T 161.121535341374 283.46456 L 172.201638170136 283.46456 Q 172.201638170136 230.314955 416.33394686693 194.881885 T 660.466255563724 106.29921 Z" stroke="#243C16" fill="#243C16" style="stroke-width: 0.5px;"/> <path d="M 378.17065395424 106.29921 Q 378.17065395424 159.448815 270.579538759202 194.881885 T 162.988423564164 283.46456 L 165.41295372363 283.46456 Q 165.41295372363 230.314955 271.791815147884 194.881885 T 378.170676572138 106.29921 Z" stroke="#5F40D0" fill="#5F40D0" style="stroke-width: 0.5px;"/> <path d="M 260.084207046648 106.29921 Q 260.084207046648 159.448815 211.560560607001 194.881885 T 163.036914167353 283.46456 L 164.903802390142 283.46456 Q 164.903802390142 230.314955 212.494013452039 194.881885 T 260.084224513936 106.29921 Z" stroke="#D0B174" fill="#D0B174" style="stroke-width: 0.5px;"/> <path d="M 636.543451849571 106.29921 Q 636.543451849571 159.448815 400.129617230787 194.881885 T 163.715782612003 283.46456 L 167.376823152798 283.46456 Q 167.376823152798 230.314955 401.960154520593 194.881885 T 636.543485888387 106.29921 Z" stroke="#6452BB" fill="#6452BB" style="stroke-width: 0.5px;"/> <path d="M 140.949440472154 106.29921 Q 140.949440472154 159.448815 153.569121923407 194.881885 T 166.188803374659 283.46456 L 177.947774648072 283.46456 Q 177.947774648072 230.314955 159.448661977432 194.881885 T 140.949549306792 106.29921 Z" stroke="#D57F1F" fill="#D57F1F" style="stroke-width: 0.5px;"/> <path d="M 660.466285123749 106.29921 Q 660.466285123749 159.448815 422.407409696406 194.881885 T 184.348534269063 283.46456 L 184.324288967469 283.46456 Q 184.324288967469 230.314955 422.395356019 194.881885 T 660.466423070532 106.29921 Z" stroke="#42D392" fill="#42D392" style="stroke-width: 0.5px;"/> <path d="M 490.123457378593 106.29921 Q 490.123457378593 159.448815 335.0902866327 194.881885 T 180.057115886808 283.46456 L 184.300043665874 283.46456 Q 184.300043665874 230.314955 337.211770228917 194.881885 T 490.123496791959 106.29921 Z" stroke="#C12FA2" fill="#C12FA2" style="stroke-width: 0.5px;"/> <path d="M 140.949719052996 106.29921 Q 140.949719052996 159.448815 160.600398676281 194.881885 T 180.251078299565 283.46456 L 182.8210802686 283.46456 Q 182.8210802686 230.314955 161.885411641566 194.881885 T 140.949743014532 106.29921 Z" stroke="#B72AE7" fill="#B72AE7" style="stroke-width: 0.5px;"/> <path d="M 528.439442958091 106.29921 Q 528.439442958091 159.448815 356.393988613577 194.881885 T 184.348534269063 283.46456 L 184.324288967469 283.46456 Q 184.324288967469 230.314955 356.381872904907 194.881885 T 528.439456842345 106.29921 Z" stroke="#C76F77" fill="#C76F77" style="stroke-width: 0.5px;"/> <path d="M 613.636298445848 106.29921 Q 613.636298445848 159.448815 398.992416357456 194.881885 T 184.348534269063 283.46456 L 184.324288967469 283.46456 Q 184.324288967469 230.314955 398.980322706834 194.881885 T 613.6363564462 106.29921 Z" stroke="#FBA7D8" fill="#FBA7D8" style="stroke-width: 0.5px;"/> <path d="M 490.12357718627 106.29921 Q 490.12357718627 159.448815 339.454500823579 194.881885 T 188.785424460887 283.46456 L 197.344015923804 283.46456 Q 197.344015923804 230.314955 343.733836192343 194.881885 T 490.123656460882 106.29921 Z" stroke="#01F63C" fill="#01F63C" style="stroke-width: 0.5px;"/> <path d="M 659.969741869747 106.29921 Q 659.969741869747 159.448815 425.504989689469 194.881885 T 191.040237509191 283.46456 L 192.252502588924 283.46456 Q 192.252502588924 230.314955 426.111127939795 194.881885 T 659.969753290666 106.29921 Z" stroke="#870ED5" fill="#870ED5" style="stroke-width: 0.5px;"/> <path d="M 560.99418481082 106.29921 Q 560.99418481082 159.448815 378.878156748176 194.881885 T 196.762128685532 283.46456 L 196.737883383937 283.46456 Q 196.737883383937 230.314955 378.866067576346 194.881885 T 560.994251768755 106.29921 Z" stroke="#A30755" fill="#A30755" style="stroke-width: 0.5px;"/> <path d="M 560.99418481082 106.29921 Q 560.99418481082 159.448815 381.99542448668 194.881885 T 202.99666416254 283.46456 L 204.790816480545 283.46456 Q 204.790816480545 230.314955 382.892509043417 194.881885 T 560.994201606288 106.29921 Z" stroke="#A30755" fill="#A30755" style="stroke-width: 0.5px;"/> <path d="M 560.99418481082 106.29921 Q 560.99418481082 159.448815 384.67627679648 194.881885 T 208.35836878214 283.46456 L 209.667615068252 283.46456 Q 209.667615068252 230.314955 385.330906097874 194.881885 T 560.994197127497 106.29921 Z" stroke="#A30755" fill="#A30755" style="stroke-width: 0.5px;"/> <path d="M 140.980057939893 106.29921 Q 140.980057939893 159.448815 168.871093312712 194.881885 T 196.762128685532 283.46456 L 196.737883383937 283.46456 Q 196.737883383937 230.314955 168.858998990272 194.881885 T 140.980114596607 106.29921 Z" stroke="#B7F77F" fill="#B7F77F" style="stroke-width: 0.5px;"/> <path d="M 140.980057939893 106.29921 Q 140.980057939893 159.448815 171.988361051216 194.881885 T 202.99666416254 283.46456 L 204.790816480545 283.46456 Q 204.790816480545 230.314955 172.885445607953 194.881885 T 140.980074735361 106.29921 Z" stroke="#B7F77F" fill="#B7F77F" style="stroke-width: 0.5px;"/> <path d="M 140.980057939893 106.29921 Q 140.980057939893 159.448815 174.669213361016 194.881885 T 208.35836878214 283.46456 L 219.8991323412 283.46456 Q 219.8991323412 230.314955 180.439648550137 194.881885 T 140.980164759074 106.29921 Z" stroke="#B7F77F" fill="#B7F77F" style="stroke-width: 0.5px;"/> <path d="M 140.949941201063 106.29921 Q 140.949941201063 159.448815 168.856034943298 194.881885 T 196.762128685532 283.46456 L 196.737883383937 283.46456 Q 196.737883383937 230.314955 168.843936030096 194.881885 T 140.949988676255 106.29921 Z" stroke="#1103DF" fill="#1103DF" style="stroke-width: 0.5px;"/> <path d="M 140.949941201063 106.29921 Q 140.949941201063 159.448815 171.973302681801 194.881885 T 202.99666416254 283.46456 L 204.790816480545 283.46456 Q 204.790816480545 230.314955 172.870387238538 194.881885 T 140.949957996532 106.29921 Z" stroke="#1103DF" fill="#1103DF" style="stroke-width: 0.5px;"/> <path d="M 140.949941201063 106.29921 Q 140.949941201063 159.448815 174.654154991601 194.881885 T 208.35836878214 283.46456 L 211.073842560742 283.46456 Q 211.073842560742 230.314955 176.011904533489 194.881885 T 140.949966506236 106.29921 Z" stroke="#1103DF" fill="#1103DF" style="stroke-width: 0.5px;"/> <path d="M 571.376854046982 106.29921 Q 571.376854046982 159.448815 384.069491366257 194.881885 T 196.762128685532 283.46456 L 196.737883383937 283.46456 Q 196.737883383937 230.314955 384.057380136378 194.881885 T 571.376876888819 106.29921 Z" stroke="#F997B3" fill="#F997B3" style="stroke-width: 0.5px;"/> <path d="M 544.420345595444 106.29921 Q 544.420345595444 159.448815 371.791379569424 194.881885 T 199.162413543404 283.46456 L 199.429111860945 283.46456 Q 199.429111860945 230.314955 371.924730071832 194.881885 T 544.420348282719 106.29921 Z" stroke="#C83909" fill="#C83909" style="stroke-width: 0.5px;"/> <path d="M 544.420345595444 106.29921 Q 544.420345595444 159.448815 373.708504878992 194.881885 T 202.99666416254 283.46456 L 204.790816480545 283.46456 Q 204.790816480545 230.314955 374.605589435729 194.881885 T 544.420362390913 106.29921 Z" stroke="#C83909" fill="#C83909" style="stroke-width: 0.5px;"/> <path d="M 614.522925195543 106.29921 Q 614.522925195543 159.448815 409.353804568111 194.881885 T 204.184683940678 283.46456 L 204.378646353436 283.46456 Q 204.378646353436 230.314955 409.450786782217 194.881885 T 614.522927210999 106.29921 Z" stroke="#BA1277" fill="#BA1277" style="stroke-width: 0.5px;"/> <path d="M 614.522925195543 106.29921 Q 614.522925195543 159.448815 411.440646988841 194.881885 T 208.35836878214 283.46456 L 209.619124465062 283.46456 Q 209.619124465062 230.314955 412.071030764701 194.881885 T 614.522937064341 106.29921 Z" stroke="#BA1277" fill="#BA1277" style="stroke-width: 0.5px;"/> <path d="M 497.042369099061 106.29921 Q 497.042369099061 159.448815 356.640230449733 194.881885 T 216.238091800406 283.46456 L 221.208378627312 283.46456 Q 221.208378627312 230.314955 359.125396928964 194.881885 T 497.042415230615 106.29921 Z" stroke="#2F019F" fill="#2F019F" style="stroke-width: 0.5px;"/> <path d="M 407.723281680883 106.29921 Q 407.723281680883 159.448815 318.175361298081 194.881885 T 228.62744091528 283.46456 L 228.603195613685 283.46456 Q 228.603195613685 230.314955 318.163254994874 194.881885 T 407.723314376062 106.29921 Z" stroke="#F3842A" fill="#F3842A" style="stroke-width: 0.5px;"/> <path d="M 407.723281680883 106.29921 Q 407.723281680883 159.448815 321.341119639775 194.881885 T 234.958957598666 283.46456 L 236.631883408698 283.46456 Q 236.631883408698 230.314955 322.177590382676 194.881885 T 407.723297356654 106.29921 Z" stroke="#F3842A" fill="#F3842A" style="stroke-width: 0.5px;"/> <path d="M 407.723281680883 106.29921 Q 407.723281680883 159.448815 323.985603997183 194.881885 T 240.247926313482 283.46456 L 241.896606821919 283.46456 Q 241.896606821919 230.314955 324.809951977317 194.881885 T 407.723297132714 106.29921 Z" stroke="#F3842A" fill="#F3842A" style="stroke-width: 0.5px;"/> <path d="M 256.188460892816 106.29921 Q 256.188460892816 159.448815 243.511112126605 194.881885 T 230.833763360394 283.46456 L 231.391405297072 283.46456 Q 231.391405297072 230.314955 243.789935782219 194.881885 T 256.188466267366 106.29921 Z" stroke="#F5424F" fill="#F5424F" style="stroke-width: 0.5px;"/> <path d="M 256.188460892816 106.29921 Q 256.188460892816 159.448815 245.573709245741 194.881885 T 234.958957598666 283.46456 L 236.631883408698 283.46456 Q 236.631883408698 230.314955 246.410179988642 194.881885 T 256.188476568587 106.29921 Z" stroke="#F5424F" fill="#F5424F" style="stroke-width: 0.5px;"/> <path d="M 256.188460892816 106.29921 Q 256.188460892816 159.448815 248.193948301554 194.881885 T 240.199435710293 283.46456 L 241.920852123514 283.46456 Q 241.920852123514 230.314955 249.05466456999 194.881885 T 256.188477016466 106.29921 Z" stroke="#F5424F" fill="#F5424F" style="stroke-width: 0.5px;"/> <path d="M 256.188460892816 106.29921 Q 256.188460892816 159.448815 250.838432658962 194.881885 T 245.488404425109 283.46456 L 246.240008774543 283.46456 Q 246.240008774543 230.314955 251.214238416713 194.881885 T 256.188468058882 106.29921 Z" stroke="#F5424F" fill="#F5424F" style="stroke-width: 0.5px;"/> <path d="M 260.084390901046 106.29921 Q 260.084390901046 159.448815 250.14191330567 194.881885 T 240.199435710293 283.46456 L 241.920852123514 283.46456 Q 241.920852123514 230.314955 251.002625095314 194.881885 T 260.084398067113 106.29921 Z" stroke="#B9A236" fill="#B9A236" style="stroke-width: 0.5px;"/> <path d="M 260.084390901046 106.29921 Q 260.084390901046 159.448815 252.786397663078 194.881885 T 245.488404425109 283.46456 L 247.137084933546 283.46456 Q 247.137084933546 230.314955 253.610745643212 194.881885 T 260.084406352878 106.29921 Z" stroke="#B9A236" fill="#B9A236" style="stroke-width: 0.5px;"/> <path d="M 260.084390901046 106.29921 Q 260.084390901046 159.448815 255.394514068094 194.881885 T 250.704637235141 283.46456 L 275.847014988808 283.46456 Q 275.847014988808 230.314955 267.965819169571 194.881885 T 260.084623350334 106.29921 Z" stroke="#B9A236" fill="#B9A236" style="stroke-width: 0.5px;"/> <path d="M 260.084390901046 106.29921 Q 260.084390901046 159.448815 269.749479095725 194.881885 T 279.414567290403 283.46456 L 281.014757195651 283.46456 Q 281.014757195651 230.314955 270.549580094717 194.881885 T 260.084402993784 106.29921 Z" stroke="#B9A236" fill="#B9A236" style="stroke-width: 0.5px;"/> <path d="M 592.563502696275 106.29921 Q 592.563502696275 159.448815 432.66568219128 194.881885 T 272.767861686286 283.46456 L 272.743616384691 283.46456 Q 272.743616384691 230.314955 432.653567266399 194.881885 T 592.563518148106 106.29921 Z" stroke="#CBB13A" fill="#CBB13A" style="stroke-width: 0.5px;"/> <path d="M 635.730956939908 106.29921 Q 635.730956939908 159.448815 449.254877184596 194.881885 T 262.778797429284 283.46456 L 271.555596606553 283.46456 Q 271.555596606553 230.314955 453.643317418265 194.881885 T 635.731038229976 106.29921 Z" stroke="#577410" fill="#577410" style="stroke-width: 0.5px;"/> <path d="M 635.730956939908 106.29921 Q 635.730956939908 159.448815 457.572762115155 194.881885 T 279.414567290403 283.46456 L 281.014757195651 283.46456 Q 281.014757195651 230.314955 458.372864569755 194.881885 T 635.73097194386 106.29921 Z" stroke="#577410" fill="#577410" style="stroke-width: 0.5px;"/> <path d="M 635.730956939908 106.29921 Q 635.730956939908 159.448815 460.156633218577 194.881885 T 284.582309497246 283.46456 L 286.109763497709 283.46456 Q 286.109763497709 230.314955 460.920367384875 194.881885 T 635.730971272041 106.29921 Z" stroke="#577410" fill="#577410" style="stroke-width: 0.5px;"/> <path d="M 255.153709529539 106.29921 Q 255.153709529539 159.448815 258.966253479412 194.881885 T 262.778797429284 283.46456 L 271.555596606553 283.46456 Q 271.555596606553 230.314955 263.35469371308 194.881885 T 255.153790819608 106.29921 Z" stroke="#3DD1FC" fill="#3DD1FC" style="stroke-width: 0.5px;"/> <path d="M 255.153709529539 106.29921 Q 255.153709529539 159.448815 267.284138409971 194.881885 T 279.414567290403 283.46456 L 281.014757195651 283.46456 Q 281.014757195651 230.314955 268.084240864571 194.881885 T 255.153724533491 106.29921 Z" stroke="#3DD1FC" fill="#3DD1FC" style="stroke-width: 0.5px;"/> <path d="M 255.153709529539 106.29921 Q 255.153709529539 159.448815 269.868009513392 194.881885 T 284.582309497246 283.46456 L 286.182499402493 283.46456 Q 286.182499402493 230.314955 270.668111967992 194.881885 T 255.153724533491 106.29921 Z" stroke="#3DD1FC" fill="#3DD1FC" style="stroke-width: 0.5px;"/> <path d="M 255.153709529539 106.29921 Q 255.153709529539 159.448815 272.451880616814 194.881885 T 289.750051704088 283.46456 L 291.495713418904 283.46456 Q 291.495713418904 230.314955 273.324719648016 194.881885 T 255.153725877129 106.29921 Z" stroke="#3DD1FC" fill="#3DD1FC" style="stroke-width: 0.5px;"/> <path d="M 255.153709529539 106.29921 Q 255.153709529539 159.448815 275.108487625019 194.881885 T 295.063265720499 283.46456 L 296.711946228936 283.46456 Q 296.711946228936 230.314955 275.932835605153 194.881885 T 255.153724981371 106.29921 Z" stroke="#3DD1FC" fill="#3DD1FC" style="stroke-width: 0.5px;"/> <path d="M 255.153709529539 106.29921 Q 255.153709529539 159.448815 277.716604030035 194.881885 T 300.279498530531 283.46456 L 301.855443134184 283.46456 Q 301.855443134184 230.314955 278.504583721868 194.881885 T 255.153724309552 106.29921 Z" stroke="#3DD1FC" fill="#3DD1FC" style="stroke-width: 0.5px;"/> <path d="M 255.153709529539 106.29921 Q 255.153709529539 159.448815 280.288352482659 194.881885 T 305.422995435778 283.46456 L 323.922160552508 283.46456 Q 323.922160552508 230.314955 289.538020585945 194.881885 T 255.153880619381 106.29921 Z" stroke="#3DD1FC" fill="#3DD1FC" style="stroke-width: 0.5px;"/> <path d="M 420.023670402971 106.29921 Q 420.023670402971 159.448815 363.693144983161 194.881885 T 307.362619563352 283.46456 L 310.272055754712 283.46456 Q 310.272055754712 230.314955 365.147876627186 194.881885 T 420.02369749966 106.29921 Z" stroke="#76313D" fill="#76313D" style="stroke-width: 0.5px;"/> <path d="M 560.99581374735 106.29921 Q 560.99581374735 159.448815 442.798421372254 194.881885 T 324.601028997159 283.46456 L 324.576783695564 283.46456 Q 324.576783695564 230.314955 442.786375868644 194.881885 T 560.995968041723 106.29921 Z" stroke="#9096C5" fill="#9096C5" style="stroke-width: 0.5px;"/> <path d="M 420.023773415179 106.29921 Q 420.023773415179 159.448815 372.312401206169 194.881885 T 324.601028997159 283.46456 L 324.576783695564 283.46456 Q 324.576783695564 230.314955 372.300375409241 194.881885 T 420.023967122919 106.29921 Z" stroke="#49C391" fill="#49C391" style="stroke-width: 0.5px;"/> <path d="M 477.701661476745 106.29921 Q 477.701661476745 159.448815 398.544975315525 194.881885 T 319.388289154306 283.46456 L 322.418951853639 283.46456 Q 322.418951853639 230.314955 400.060320773386 194.881885 T 477.701689693133 106.29921 Z" stroke="#DB7033" fill="#DB7033" style="stroke-width: 0.5px;"/> <path d="M 140.947828555032 106.29921 Q 140.947828555032 159.448815 232.774428776095 194.881885 T 324.601028997159 283.46456 L 324.576783695564 283.46456 Q 324.576783695564 230.314955 232.762386295669 194.881885 T 140.947988895774 106.29921 Z" stroke="#0FE961" fill="#0FE961" style="stroke-width: 0.5px;"/> <path d="M 394.584215480906 106.29921 Q 394.584215480906 159.448815 359.592622239032 194.881885 T 324.601028997159 283.46456 L 324.576783695564 283.46456 Q 324.576783695564 230.314955 359.580537769934 194.881885 T 394.584291844304 106.29921 Z" stroke="#AF8319" fill="#AF8319" style="stroke-width: 0.5px;"/> <path d="M 560.995983045675 106.29921 Q 560.995983045675 159.448815 444.216856164705 194.881885 T 327.437729283734 283.46456 L 342.639533383589 283.46456 Q 342.639533383589 230.314955 451.817828531662 194.881885 T 560.996123679734 106.29921 Z" stroke="#48F78B" fill="#48F78B" style="stroke-width: 0.5px;"/> <path d="M 560.995983045675 106.29921 Q 560.995983045675 159.448815 453.60153436543 194.881885 T 346.207085685184 283.46456 L 347.855766193621 283.46456 Q 347.855766193621 230.314955 454.425882345564 194.881885 T 560.995998497507 106.29921 Z" stroke="#48F78B" fill="#48F78B" style="stroke-width: 0.5px;"/> <path d="M 560.995983045675 106.29921 Q 560.995983045675 159.448815 456.209650770446 194.881885 T 351.423318495216 283.46456 L 353.071999003653 283.46456 Q 353.071999003653 230.314955 457.03399875058 194.881885 T 560.995998497507 106.29921 Z" stroke="#48F78B" fill="#48F78B" style="stroke-width: 0.5px;"/> <path d="M 560.995983045675 106.29921 Q 560.995983045675 159.448815 460.393711779115 194.881885 T 359.791440512554 283.46456 L 359.76719521096 283.46456 Q 359.76719521096 230.314955 460.381606483635 194.881885 T 560.996017756311 106.29921 Z" stroke="#48F78B" fill="#48F78B" style="stroke-width: 0.5px;"/> <path d="M 309.045866558279 106.29921 Q 309.045866558279 159.448815 330.234592526748 194.881885 T 351.423318495216 283.46456 L 353.071999003653 283.46456 Q 353.071999003653 230.314955 331.058940506882 194.881885 T 309.045882010111 106.29921 Z" stroke="#7A66DD" fill="#7A66DD" style="stroke-width: 0.5px;"/> <path d="M 309.045866558279 106.29921 Q 309.045866558279 159.448815 332.842708931764 194.881885 T 356.639551305248 283.46456 L 367.525691721253 283.46456 Q 367.525691721253 230.314955 338.285829526172 194.881885 T 309.045967331092 106.29921 Z" stroke="#7A66DD" fill="#7A66DD" style="stroke-width: 0.5px;"/> <path d="M 149.708654099077 106.29921 Q 149.708654099077 159.448815 250.650844852728 194.881885 T 351.593035606379 283.46456 L 353.071999003653 283.46456 Q 353.071999003653 230.314955 251.390333493492 194.881885 T 149.708667983331 106.29921 Z" stroke="#FEEE84" fill="#FEEE84" style="stroke-width: 0.5px;"/> <path d="M 149.708654099077 106.29921 Q 149.708654099077 159.448815 253.174102702162 194.881885 T 356.639551305248 283.46456 L 373.12635638962 283.46456 Q 373.12635638962 230.314955 261.417581495777 194.881885 T 149.708806601933 106.29921 Z" stroke="#FEEE84" fill="#FEEE84" style="stroke-width: 0.5px;"/> <path d="M 149.708654099077 106.29921 Q 149.708654099077 159.448815 263.201281395146 194.881885 T 376.693908691215 283.46456 L 378.342589199652 283.46456 Q 378.342589199652 230.314955 264.02562937528 194.881885 T 149.708669550908 106.29921 Z" stroke="#FEEE84" fill="#FEEE84" style="stroke-width: 0.5px;"/> <path d="M 149.708654099077 106.29921 Q 149.708654099077 159.448815 265.809397800162 194.881885 T 381.910141501247 283.46456 L 386.613730010612 283.46456 Q 386.613730010612 230.314955 268.161213888954 194.881885 T 149.708697767296 106.29921 Z" stroke="#FEEE84" fill="#FEEE84" style="stroke-width: 0.5px;"/> <path d="M 149.708654099077 106.29921 Q 149.708654099077 159.448815 269.944968205642 194.881885 T 390.181282312206 283.46456 L 406.522615587011 283.46456 Q 406.522615587011 230.314955 278.115710422653 194.881885 T 149.708805258296 106.29921 Z" stroke="#FEEE84" fill="#FEEE84" style="stroke-width: 0.5px;"/> <path d="M 149.708654099077 106.29921 Q 149.708654099077 159.448815 279.899410993841 194.881885 T 410.090167888605 283.46456 L 429.049993735634 283.46456 Q 429.049993735634 230.314955 289.379411589702 194.881885 T 149.708829443771 106.29921 Z" stroke="#FEEE84" fill="#FEEE84" style="stroke-width: 0.5px;"/> <path d="M 149.708654099077 106.29921 Q 149.708654099077 159.448815 291.163100068153 194.881885 T 432.617546037228 283.46456 L 434.29047184726 283.46456 Q 434.29047184726 230.314955 291.999570811054 194.881885 T 149.708669774848 106.29921 Z" stroke="#FEEE84" fill="#FEEE84" style="stroke-width: 0.5px;"/> <path d="M 149.708654099077 106.29921 Q 149.708654099077 159.448815 293.783339123966 194.881885 T 437.858024148855 283.46456 L 446.19840789742 283.46456 Q 446.19840789742 230.314955 297.953569627826 194.881885 T 149.708731358233 106.29921 Z" stroke="#FEEE84" fill="#FEEE84" style="stroke-width: 0.5px;"/> <path d="M 149.708654099077 106.29921 Q 149.708654099077 159.448815 299.737307149046 194.881885 T 449.765960199014 283.46456 L 451.366150104262 283.46456 Q 451.366150104262 230.314955 300.537409603646 194.881885 T 149.708669103029 106.29921 Z" stroke="#FEEE84" fill="#FEEE84" style="stroke-width: 0.5px;"/> <path d="M 149.708654099077 106.29921 Q 149.708654099077 159.448815 302.321178252467 194.881885 T 454.933702405857 283.46456 L 462.037575773094 283.46456 Q 462.037575773094 230.314955 305.873147855204 194.881885 T 149.708719937314 106.29921 Z" stroke="#FEEE84" fill="#FEEE84" style="stroke-width: 0.5px;"/> <path d="M 149.708654099077 106.29921 Q 149.708654099077 159.448815 307.656891086883 194.881885 T 465.605128074688 283.46456 L 498.748455354596 283.46456 Q 498.748455354596 230.314955 324.228707901511 194.881885 T 149.708960448427 106.29921 Z" stroke="#FEEE84" fill="#FEEE84" style="stroke-width: 0.5px;"/> <path d="M 149.708654099077 106.29921 Q 149.708654099077 159.448815 326.012330877634 194.881885 T 502.31600765619 283.46456 L 503.964688164627 283.46456 Q 503.964688164627 230.314955 326.836678857768 194.881885 T 149.708669550908 106.29921 Z" stroke="#FEEE84" fill="#FEEE84" style="stroke-width: 0.5px;"/> <path d="M 149.708654099077 106.29921 Q 149.708654099077 159.448815 328.620447282649 194.881885 T 507.532240466222 283.46456 L 508.938467958713 283.46456 Q 508.938467958713 230.314955 329.323562708442 194.881885 T 149.708657458171 106.29921 Z" stroke="#FEEE84" fill="#FEEE84" style="stroke-width: 0.5px;"/> <path d="M 255.15404790225 106.29921 Q 255.15404790225 159.448815 303.809957183018 194.881885 T 352.465866463787 283.46456 L 353.071999003653 283.46456 Q 353.071999003653 230.314955 304.113026364166 194.881885 T 255.154053724679 106.29921 Z" stroke="#7B4086" fill="#7B4086" style="stroke-width: 0.5px;"/> <path d="M 255.15404790225 106.29921 Q 255.15404790225 159.448815 305.896799603749 194.881885 T 356.639551305248 283.46456 L 373.12635638962 283.46456 Q 373.12635638962 230.314955 314.140278397363 194.881885 T 255.154200405106 106.29921 Z" stroke="#7B4086" fill="#7B4086" style="stroke-width: 0.5px;"/> <path d="M 255.15404790225 106.29921 Q 255.15404790225 159.448815 315.923978296732 194.881885 T 376.693908691215 283.46456 L 378.342589199652 283.46456 Q 378.342589199652 230.314955 316.748326276867 194.881885 T 255.154063354081 106.29921 Z" stroke="#7B4086" fill="#7B4086" style="stroke-width: 0.5px;"/> <path d="M 255.15404790225 106.29921 Q 255.15404790225 159.448815 318.532094701748 194.881885 T 381.910141501247 283.46456 L 386.613730010612 283.46456 Q 386.613730010612 230.314955 320.88391079054 194.881885 T 255.154091570469 106.29921 Z" stroke="#7B4086" fill="#7B4086" style="stroke-width: 0.5px;"/> <path d="M 255.15404790225 106.29921 Q 255.15404790225 159.448815 322.667665107228 194.881885 T 390.181282312206 283.46456 L 406.522615587011 283.46456 Q 406.522615587011 230.314955 330.83840732424 194.881885 T 255.154199061469 106.29921 Z" stroke="#7B4086" fill="#7B4086" style="stroke-width: 0.5px;"/> <path d="M 255.15404790225 106.29921 Q 255.15404790225 159.448815 333.446448149646 194.881885 T 411.738848397043 283.46456 L 411.714603095448 283.46456 Q 411.714603095448 230.314955 333.434334680372 194.881885 T 255.154066265296 106.29921 Z" stroke="#7B4086" fill="#7B4086" style="stroke-width: 0.5px;"/> <path d="M 162.547054437554 106.29921 Q 162.547054437554 159.448815 257.676177561833 194.881885 T 352.805300686112 283.46456 L 353.071999003653 283.46456 Q 353.071999003653 230.314955 257.809528064241 194.881885 T 162.547057124829 106.29921 Z" stroke="#CD324B" fill="#CD324B" style="stroke-width: 0.5px;"/> <path d="M 162.547054437554 106.29921 Q 162.547054437554 159.448815 261.169247475054 194.881885 T 359.791440512554 283.46456 L 359.76719521096 283.46456 Q 359.76719521096 230.314955 261.157146882306 194.881885 T 162.547098553652 106.29921 Z" stroke="#CD324B" fill="#CD324B" style="stroke-width: 0.5px;"/> <path d="M 162.547181635238 106.29921 Q 162.547181635238 159.448815 262.5149253124 194.881885 T 362.482668989562 283.46456 L 371.865600706698 283.46456 Q 371.865600706698 230.314955 267.206434615247 194.881885 T 162.547268523796 106.29921 Z" stroke="#259E89" fill="#259E89" style="stroke-width: 0.5px;"/> <path d="M 372.314649968764 106.29921 Q 372.314649968764 159.448815 367.786584304678 194.881885 T 363.258518640592 283.46456 L 365.004180355407 283.46456 Q 365.004180355407 230.314955 368.65942333588 194.881885 T 372.314666316354 106.29921 Z" stroke="#023DB3" fill="#023DB3" style="stroke-width: 0.5px;"/> <path d="M 291.5399054753 106.29921 Q 291.5399054753 159.448815 327.581051819906 194.881885 T 363.622198164511 283.46456 L 365.198142768165 283.46456 Q 365.198142768165 230.314955 328.369031511739 194.881885 T 291.539920255312 106.29921 Z" stroke="#00ADB5" fill="#00ADB5" style="stroke-width: 0.5px;"/> <path d="M 614.669500819025 106.29921 Q 614.669500819025 159.448815 489.848963238014 194.881885 T 365.028425657002 283.46456 L 373.12635638962 283.46456 Q 373.12635638962 230.314955 493.897966114203 194.881885 T 614.669575838785 106.29921 Z" stroke="#B3D60A" fill="#B3D60A" style="stroke-width: 0.5px;"/> <path d="M 614.669500819025 106.29921 Q 614.669500819025 159.448815 495.68170475512 194.881885 T 376.693908691215 283.46456 L 377.009097611945 283.46456 Q 377.009097611945 230.314955 495.839300783062 194.881885 T 614.669503954179 106.29921 Z" stroke="#B3D60A" fill="#B3D60A" style="stroke-width: 0.5px;"/> <path d="M 560.996240128317 106.29921 Q 560.996240128317 159.448815 463.157804702228 194.881885 T 365.319369276138 283.46456 L 368.180314864309 283.46456 Q 368.180314864309 230.314955 464.588290820718 194.881885 T 560.996266777128 106.29921 Z" stroke="#02F1C5" fill="#02F1C5" style="stroke-width: 0.5px;"/> <path d="M 318.00560554163 106.29921 Q 318.00560554163 159.448815 342.717158028252 194.881885 T 367.428710514874 283.46456 L 368.713711499391 283.46456 Q 368.713711499391 230.314955 343.359664566879 194.881885 T 318.005617634368 106.29921 Z" stroke="#E5B320" fill="#E5B320" style="stroke-width: 0.5px;"/> <path d="M 671.063895253079 106.29921 Q 671.063895253079 159.448815 528.463010457128 194.881885 T 385.862125661177 283.46456 L 386.613730010612 283.46456 Q 386.613730010612 230.314955 528.838816214879 194.881885 T 671.063902419146 106.29921 Z" stroke="#57B725" fill="#57B725" style="stroke-width: 0.5px;"/> <path d="M 671.063895253079 106.29921 Q 671.063895253079 159.448815 530.622588782643 194.881885 T 390.181282312206 283.46456 L 406.522615587011 283.46456 Q 406.522615587011 230.314955 538.79329606508 194.881885 T 671.063976543148 106.29921 Z" stroke="#57B725" fill="#57B725" style="stroke-width: 0.5px;"/> <path d="M 594.39414676031 106.29921 Q 594.39414676031 159.448815 504.969753753858 194.881885 T 415.545360747405 283.46456 L 419.473099605741 283.46456 Q 419.473099605741 230.314955 506.933641434102 194.881885 T 594.394183262462 106.29921 Z" stroke="#A44769" fill="#A44769" style="stroke-width: 0.5px;"/> <path d="M 198.27165639232 106.29921 Q 198.27165639232 159.448815 307.720726173284 194.881885 T 417.169795954248 283.46456 L 419.861024431255 283.46456 Q 419.861024431255 230.314955 309.066352952404 194.881885 T 198.271681473553 106.29921 Z" stroke="#AEA8A2" fill="#AEA8A2" style="stroke-width: 0.5px;"/> <path d="M 255.154425016509 106.29921 Q 255.154425016509 159.448815 337.713809787437 194.881885 T 420.273194558365 283.46456 L 429.049993735634 283.46456 Q 429.049993735634 230.314955 342.102250021105 194.881885 T 255.154506306577 106.29921 Z" stroke="#6EF86B" fill="#6EF86B" style="stroke-width: 0.5px;"/> <path d="M 255.154425016509 106.29921 Q 255.154425016509 159.448815 343.885985526868 194.881885 T 432.617546037228 283.46456 L 434.29047184726 283.46456 Q 434.29047184726 230.314955 344.72245626977 194.881885 T 255.154440692279 106.29921 Z" stroke="#6EF86B" fill="#6EF86B" style="stroke-width: 0.5px;"/> <path d="M 255.154425016509 106.29921 Q 255.154425016509 159.448815 346.506224582682 194.881885 T 437.858024148855 283.46456 L 446.19840789742 283.46456 Q 446.19840789742 230.314955 350.676455086542 194.881885 T 255.154502275665 106.29921 Z" stroke="#6EF86B" fill="#6EF86B" style="stroke-width: 0.5px;"/> <path d="M 255.154425016509 106.29921 Q 255.154425016509 159.448815 352.460192607761 194.881885 T 449.765960199014 283.46456 L 451.366150104262 283.46456 Q 451.366150104262 230.314955 353.260295062361 194.881885 T 255.154440020461 106.29921 Z" stroke="#6EF86B" fill="#6EF86B" style="stroke-width: 0.5px;"/> <path d="M 255.154425016509 106.29921 Q 255.154425016509 159.448815 355.044063711183 194.881885 T 454.933702405857 283.46456 L 462.037575773094 283.46456 Q 462.037575773094 230.314955 358.59603331392 194.881885 T 255.154490854746 106.29921 Z" stroke="#6EF86B" fill="#6EF86B" style="stroke-width: 0.5px;"/> <path d="M 255.154425016509 106.29921 Q 255.154425016509 159.448815 360.925295831478 194.881885 T 466.696166646448 283.46456 L 466.671921344854 283.46456 Q 466.671921344854 230.314955 360.913265891669 194.881885 T 255.154610438484 106.29921 Z" stroke="#6EF86B" fill="#6EF86B" style="stroke-width: 0.5px;"/> <path d="M 226.172621975541 106.29921 Q 226.172621975541 159.448815 325.162532394526 194.881885 T 424.152442813511 283.46456 L 424.128197511917 283.46456 Q 424.128197511917 230.314955 325.150432585566 194.881885 T 226.172667659216 106.29921 Z" stroke="#E3A79D" fill="#E3A79D" style="stroke-width: 0.5px;"/> <path d="M 226.172621975541 106.29921 Q 226.172621975541 159.448815 329.613291720737 194.881885 T 433.053961465932 283.46456 L 433.611603402609 283.46456 Q 433.611603402609 230.314955 329.89211537635 194.881885 T 226.172627350091 106.29921 Z" stroke="#E3A79D" fill="#E3A79D" style="stroke-width: 0.5px;"/> <path d="M 438.124570657798 106.29921 Q 438.124570657798 159.448815 435.504407506284 194.881885 T 432.88424435477 283.46456 L 433.029716164338 283.46456 Q 433.029716164338 230.314955 435.577144194856 194.881885 T 438.124572225375 106.29921 Z" stroke="#65202A" fill="#65202A" style="stroke-width: 0.5px;"/> <path d="M 438.124570657798 106.29921 Q 438.124570657798 159.448815 437.991297403326 194.881885 T 437.858024148855 283.46456 L 446.19840789742 283.46456 Q 446.19840789742 230.314955 442.161527907187 194.881885 T 438.124647916954 106.29921 Z" stroke="#65202A" fill="#65202A" style="stroke-width: 0.5px;"/> <path d="M 438.124570657798 106.29921 Q 438.124570657798 159.448815 443.945265428406 194.881885 T 449.765960199014 283.46456 L 451.366150104262 283.46456 Q 451.366150104262 230.314955 444.745363852094 194.881885 T 438.124577599925 106.29921 Z" stroke="#65202A" fill="#65202A" style="stroke-width: 0.5px;"/> <path d="M 627.155201785874 106.29921 Q 627.155201785874 159.448815 530.031845721119 194.881885 T 432.908489656364 283.46456 L 433.029716164338 283.46456 Q 433.029716164338 230.314955 530.092459646924 194.881885 T 627.155203129511 106.29921 Z" stroke="#2BB319" fill="#2BB319" style="stroke-width: 0.5px;"/> <path d="M 627.155201785874 106.29921 Q 627.155201785874 159.448815 535.391803857129 194.881885 T 443.628405928385 283.46456 L 443.60416062679 283.46456 Q 443.60416062679 230.314955 535.379713677572 194.881885 T 627.155266728353 106.29921 Z" stroke="#2BB319" fill="#2BB319" style="stroke-width: 0.5px;"/> <path d="M 638.720169682648 106.29921 Q 638.720169682648 159.448815 541.174287805516 194.881885 T 443.628405928385 283.46456 L 443.60416062679 283.46456 Q 443.60416062679 230.314955 541.16219146762 194.881885 T 638.72022230845 106.29921 Z" stroke="#DA7ACF" fill="#DA7ACF" style="stroke-width: 0.5px;"/> <path d="M 638.720169682648 106.29921 Q 638.720169682648 159.448815 544.243064940831 194.881885 T 449.765960199014 283.46456 L 451.366150104262 283.46456 Q 451.366150104262 230.314955 545.043167395431 194.881885 T 638.7201846866 106.29921 Z" stroke="#DA7ACF" fill="#DA7ACF" style="stroke-width: 0.5px;"/> <path d="M 638.720169682648 106.29921 Q 638.720169682648 159.448815 546.826936044252 194.881885 T 454.933702405857 283.46456 L 457.60068558127 283.46456 Q 457.60068558127 230.314955 548.160440060606 194.881885 T 638.720194539941 106.29921 Z" stroke="#DA7ACF" fill="#DA7ACF" style="stroke-width: 0.5px;"/> <path d="M 627.155346674784 106.29921 Q 627.155346674784 159.448815 535.755555825505 194.881885 T 444.355764976225 283.46456 L 446.19840789742 283.46456 Q 446.19840789742 230.314955 536.676885907776 194.881885 T 627.155363918132 106.29921 Z" stroke="#223A29" fill="#223A29" style="stroke-width: 0.5px;"/> <path d="M 627.155346674784 106.29921 Q 627.155346674784 159.448815 538.460653436899 194.881885 T 449.765960199014 283.46456 L 451.366150104262 283.46456 Q 451.366150104262 230.314955 539.260755891499 194.881885 T 627.155361678736 106.29921 Z" stroke="#223A29" fill="#223A29" style="stroke-width: 0.5px;"/> <path d="M 627.155346674784 106.29921 Q 627.155346674784 159.448815 541.04452454032 194.881885 T 454.933702405857 283.46456 L 462.037575773094 283.46456 Q 462.037575773094 230.314955 544.596494143058 194.881885 T 627.155412513022 106.29921 Z" stroke="#223A29" fill="#223A29" style="stroke-width: 0.5px;"/> <path d="M 627.155346674784 106.29921 Q 627.155346674784 159.448815 546.925756660616 194.881885 T 466.696166646448 283.46456 L 466.671921344854 283.46456 Q 466.671921344854 230.314955 546.913751130221 194.881885 T 627.155580915589 106.29921 Z" stroke="#223A29" fill="#223A29" style="stroke-width: 0.5px;"/> <path d="M 140.980498652993 106.29921 Q 140.980498652993 159.448815 306.347721364768 194.881885 T 471.714944076544 283.46456 L 488.589673986431 283.46456 Q 488.589673986431 230.314955 314.785164362657 194.881885 T 140.980654738883 106.29921 Z" stroke="#2AB9D2" fill="#2AB9D2" style="stroke-width: 0.5px;"/> <path d="M 560.999538310503 106.29921 Q 560.999538310503 159.448815 516.357241193524 194.881885 T 471.714944076544 283.46456 L 484.613444524906 283.46456 Q 484.613444524906 230.314955 522.806551097604 194.881885 T 560.999657670301 106.29921 Z" stroke="#C5C2C9" fill="#C5C2C9" style="stroke-width: 0.5px;"/> <path d="M 612.675716096574 106.29921 Q 612.675716096574 159.448815 543.080283594764 194.881885 T 473.484851092954 283.46456 L 487.935050843375 283.46456 Q 487.935050843375 230.314955 550.30545031594 194.881885 T 612.675849788505 106.29921 Z" stroke="#243544" fill="#243544" style="stroke-width: 0.5px;"/> <path d="M 557.230093857838 106.29921 Q 557.230093857838 159.448815 518.194172761972 194.881885 T 479.158251666106 283.46456 L 487.935050843375 283.46456 Q 487.935050843375 230.314955 522.582612995641 194.881885 T 557.230175147907 106.29921 Z" stroke="#E11042" fill="#E11042" style="stroke-width: 0.5px;"/> <path d="M 205.754582347849 106.29921 Q 205.754582347849 159.448815 342.747360626114 194.881885 T 479.740138904378 283.46456 L 482.358631476602 283.46456 Q 482.358631476602 230.314955 344.056619116933 194.881885 T 205.754606757264 106.29921 Z" stroke="#1734A9" fill="#1734A9" style="stroke-width: 0.5px;"/> <path d="M 643.084804889183 106.29921 Q 643.084804889183 159.448815 561.800396722295 194.881885 T 480.515988555407 283.46456 L 498.748455354596 283.46456 Q 498.748455354596 230.314955 570.916714435142 194.881885 T 643.084973515689 106.29921 Z" stroke="#E6BE82" fill="#E6BE82" style="stroke-width: 0.5px;"/> <path d="M 643.084804889183 106.29921 Q 643.084804889183 159.448815 572.700406272687 194.881885 T 502.31600765619 283.46456 L 503.964688164627 283.46456 Q 503.964688164627 230.314955 573.524754252821 194.881885 T 643.084820341014 106.29921 Z" stroke="#E6BE82" fill="#E6BE82" style="stroke-width: 0.5px;"/> <path d="M 643.084804889183 106.29921 Q 643.084804889183 159.448815 575.308522677703 194.881885 T 507.532240466222 283.46456 L 508.938467958713 283.46456 Q 508.938467958713 230.314955 576.011643030165 194.881885 T 643.084818101618 106.29921 Z" stroke="#E6BE82" fill="#E6BE82" style="stroke-width: 0.5px;"/> <path d="M 643.084804889183 106.29921 Q 643.084804889183 159.448815 577.795412574745 194.881885 T 512.506020260307 283.46456 L 514.178946070339 283.46456 Q 514.178946070339 230.314955 578.631883317646 194.881885 T 643.084820564954 106.29921 Z" stroke="#E6BE82" fill="#E6BE82" style="stroke-width: 0.5px;"/> <path d="M 643.084804889183 106.29921 Q 643.084804889183 159.448815 580.415651630558 194.881885 T 517.746498371934 283.46456 L 517.770743673529 283.46456 Q 517.770743673529 230.314955 580.427774505295 194.881885 T 643.084805337062 106.29921 Z" stroke="#E6BE82" fill="#E6BE82" style="stroke-width: 0.5px;"/> <path d="M 205.754609892418 106.29921 Q 205.754609892418 159.448815 344.747611779958 194.881885 T 483.740613667498 283.46456 L 491.620336685764 283.46456 Q 491.620336685764 230.314955 348.687509791243 194.881885 T 205.754682896722 106.29921 Z" stroke="#259653" fill="#259653" style="stroke-width: 0.5px;"/> <path d="M 378.585202177614 106.29921 Q 378.585202177614 159.448815 431.708427208436 194.881885 T 484.831652239258 283.46456 L 498.748455354596 283.46456 Q 498.748455354596 230.314955 438.666893148735 194.881885 T 378.585330942875 106.29921 Z" stroke="#BED548" fill="#BED548" style="stroke-width: 0.5px;"/> <path d="M 378.585202177614 106.29921 Q 378.585202177614 159.448815 440.450604916902 194.881885 T 502.31600765619 283.46456 L 503.964688164627 283.46456 Q 503.964688164627 230.314955 441.274952897037 194.881885 T 378.585217629446 106.29921 Z" stroke="#BED548" fill="#BED548" style="stroke-width: 0.5px;"/> <path d="M 378.585202177614 106.29921 Q 378.585202177614 159.448815 443.058721321918 194.881885 T 507.532240466222 283.46456 L 508.938467958713 283.46456 Q 508.938467958713 230.314955 443.761841674381 194.881885 T 378.58521539005 106.29921 Z" stroke="#BED548" fill="#BED548" style="stroke-width: 0.5px;"/> <path d="M 378.585202177614 106.29921 Q 378.585202177614 159.448815 445.545611218961 194.881885 T 512.506020260307 283.46456 L 514.178946070339 283.46456 Q 514.178946070339 230.314955 446.382081961862 194.881885 T 378.585217853385 106.29921 Z" stroke="#BED548" fill="#BED548" style="stroke-width: 0.5px;"/> <path d="M 378.585202177614 106.29921 Q 378.585202177614 159.448815 448.226463528761 194.881885 T 517.867724879907 283.46456 L 517.843479578313 283.46456 Q 517.843479578313 230.314955 448.214345692664 194.881885 T 378.585211807016 106.29921 Z" stroke="#BED548" fill="#BED548" style="stroke-width: 0.5px;"/> <path d="M 254.105835978487 106.29921 Q 254.105835978487 159.448815 378.210921817339 194.881885 T 502.31600765619 283.46456 L 503.964688164627 283.46456 Q 503.964688164627 230.314955 379.035269797473 194.881885 T 254.105851430318 106.29921 Z" stroke="#1CF3E4" fill="#1CF3E4" style="stroke-width: 0.5px;"/> <path d="M 254.105835978487 106.29921 Q 254.105835978487 159.448815 380.819038222355 194.881885 T 507.532240466222 283.46456 L 508.938467958713 283.46456 Q 508.938467958713 230.314955 381.522158574818 194.881885 T 254.105849190923 106.29921 Z" stroke="#1CF3E4" fill="#1CF3E4" style="stroke-width: 0.5px;"/> <path d="M 254.105835978487 106.29921 Q 254.105835978487 159.448815 383.305928119397 194.881885 T 512.506020260307 283.46456 L 514.178946070339 283.46456 Q 514.178946070339 230.314955 384.142398862299 194.881885 T 254.105851654258 106.29921 Z" stroke="#1CF3E4" fill="#1CF3E4" style="stroke-width: 0.5px;"/> <path d="M 254.105835978487 106.29921 Q 254.105835978487 159.448815 385.986780429197 194.881885 T 517.867724879907 283.46456 L 517.843479578313 283.46456 Q 517.843479578313 230.314955 385.974661473403 194.881885 T 254.105843368493 106.29921 Z" stroke="#1CF3E4" fill="#1CF3E4" style="stroke-width: 0.5px;"/> <path d="M 643.065064167016 106.29921 Q 643.065064167016 159.448815 572.920866276752 194.881885 T 502.776668386489 283.46456 L 503.964688164627 283.46456 Q 503.964688164627 230.314955 573.514881764311 194.881885 T 643.065075363995 106.29921 Z" stroke="#AD9E70" fill="#AD9E70" style="stroke-width: 0.5px;"/> <path d="M 643.065064167016 106.29921 Q 643.065064167016 159.448815 575.298652316619 194.881885 T 507.532240466222 283.46456 L 508.938467958713 283.46456 Q 508.938467958713 230.314955 576.001772669082 194.881885 T 643.065077379452 106.29921 Z" stroke="#AD9E70" fill="#AD9E70" style="stroke-width: 0.5px;"/> <path d="M 643.065064167016 106.29921 Q 643.065064167016 159.448815 577.785542213662 194.881885 T 512.506020260307 283.46456 L 514.178946070339 283.46456 Q 514.178946070339 230.314955 578.622012956563 194.881885 T 643.065079842787 106.29921 Z" stroke="#AD9E70" fill="#AD9E70" style="stroke-width: 0.5px;"/> <path d="M 643.065064167016 106.29921 Q 643.065064167016 159.448815 580.405781269475 194.881885 T 517.746498371934 283.46456 L 517.770743673529 283.46456 Q 517.770743673529 230.314955 580.417904144212 194.881885 T 643.065064614895 106.29921 Z" stroke="#AD9E70" fill="#AD9E70" style="stroke-width: 0.5px;"/> <path d="M 572.592285464734 106.29921 Q 572.592285464734 159.448815 540.438065140195 194.881885 T 508.283844815657 283.46456 L 508.792996149145 283.46456 Q 508.792996149145 230.314955 540.692643270275 194.881885 T 572.592290391405 106.29921 Z" stroke="#C59E56" fill="#C59E56" style="stroke-width: 0.5px;"/> <path d="M 572.592285464734 106.29921 Q 572.592285464734 159.448815 542.549152862521 194.881885 T 512.506020260307 283.46456 L 514.178946070339 283.46456 Q 514.178946070339 230.314955 543.385623605422 194.881885 T 572.592301140505 106.29921 Z" stroke="#C59E56" fill="#C59E56" style="stroke-width: 0.5px;"/> <path d="M 572.592285464734 106.29921 Q 572.592285464734 159.448815 545.169391918334 194.881885 T 517.746498371934 283.46456 L 527.784053232125 283.46456 Q 527.784053232125 230.314955 550.188215815893 194.881885 T 572.592378399661 106.29921 Z" stroke="#C59E56" fill="#C59E56" style="stroke-width: 0.5px;"/> <path d="M 205.754838534733 106.29921 Q 205.754838534733 159.448815 357.140568183168 194.881885 T 508.526297831603 283.46456 L 508.792996149145 283.46456 Q 508.792996149145 230.314955 357.273918685576 194.881885 T 205.754841222008 106.29921 Z" stroke="#4D0C61" fill="#4D0C61" style="stroke-width: 0.5px;"/> <path d="M 205.754838534733 106.29921 Q 205.754838534733 159.448815 359.13042939752 194.881885 T 512.506020260307 283.46456 L 514.178946070339 283.46456 Q 514.178946070339 230.314955 359.966900140421 194.881885 T 205.754854210504 106.29921 Z" stroke="#4D0C61" fill="#4D0C61" style="stroke-width: 0.5px;"/> <path d="M 205.754838534733 106.29921 Q 205.754838534733 159.448815 361.750668453333 194.881885 T 517.746498371934 283.46456 L 517.746498371934 283.46456 Q 517.746498371934 230.314955 361.750668565303 194.881885 T 205.754838758672 106.29921 Z" stroke="#4D0C61" fill="#4D0C61" style="stroke-width: 0.5px;"/> <path d="M 326.296980490367 106.29921 Q 326.296980490367 159.448815 417.508620367364 194.881885 T 508.720260244361 283.46456 L 508.792996149145 283.46456 Q 508.792996149145 230.314955 417.544988767635 194.881885 T 326.296981386125 106.29921 Z" stroke="#F90816" fill="#F90816" style="stroke-width: 0.5px;"/> <path d="M 326.296980490367 106.29921 Q 326.296980490367 159.448815 419.401500375337 194.881885 T 512.506020260307 283.46456 L 514.178946070339 283.46456 Q 514.178946070339 230.314955 420.237971118239 194.881885 T 326.296996166138 106.29921 Z" stroke="#F90816" fill="#F90816" style="stroke-width: 0.5px;"/> <path d="M 326.296980490367 106.29921 Q 326.296980490367 159.448815 422.021739431151 194.881885 T 517.746498371934 283.46456 L 517.770743673529 283.46456 Q 517.770743673529 230.314955 422.033862305887 194.881885 T 326.296980938246 106.29921 Z" stroke="#F90816" fill="#F90816" style="stroke-width: 0.5px;"/> <path d="M 218.815806924654 106.29921 Q 218.815806924654 159.448815 368.790303981782 194.881885 T 518.76480103891 283.46456 L 524.17150329452 283.46456 Q 524.17150329452 230.314955 371.49368019082 194.881885 T 218.815857087121 106.29921 Z" stroke="#5B7FFB" fill="#5B7FFB" style="stroke-width: 0.5px;"/> <path d="M 326.297050583457 106.29921 Q 326.297050583457 159.448815 428.289184939916 194.881885 T 530.281319296376 283.46456 L 530.257073994781 283.46456 Q 530.257073994781 230.314955 428.277095656117 194.881885 T 326.297117317453 106.29921 Z" stroke="#E19105" fill="#E19105" style="stroke-width: 0.5px;"/> <path d="M 490.124057312737 106.29921 Q 490.124057312737 159.448815 508.117592367415 194.881885 T 526.111127422093 283.46456 L 528.341695168803 283.46456 Q 528.341695168803 230.314955 509.23288665396 194.881885 T 490.124078139118 106.29921 Z" stroke="#A77691" fill="#A77691" style="stroke-width: 0.5px;"/> <path d="M 572.592485218843 106.29921 Q 572.592485218843 159.448815 550.467090193823 194.881885 T 528.341695168803 283.46456 L 529.94188507405 283.46456 Q 529.94188507405 230.314955 551.267192648423 194.881885 T 572.592500222795 106.29921 Z" stroke="#735E7E" fill="#735E7E" style="stroke-width: 0.5px;"/> <path d="M 438.388745466292 106.29921 Q 438.388745466292 159.448815 484.335032381334 194.881885 T 530.281319296376 283.46456 L 530.257073994781 283.46456 Q 530.257073994781 230.314955 484.322917680392 194.881885 T 438.388761366003 106.29921 Z" stroke="#E5C871" fill="#E5C871" style="stroke-width: 0.5px;"/> <path d="M 321.212700302159 106.29921 Q 321.212700302159 159.448815 427.989700196774 194.881885 T 534.766700091389 283.46456 L 543.543499268658 283.46456 Q 543.543499268658 230.314955 432.378140430443 194.881885 T 321.212781592228 106.29921 Z" stroke="#4B9FD0" fill="#4B9FD0" style="stroke-width: 0.5px;"/> <path d="M 630.638369936788 106.29921 Q 630.638369936788 159.448815 583.890554792227 194.881885 T 537.142739647666 283.46456 L 539.155099680023 283.46456 Q 539.155099680023 230.314955 584.896744213868 194.881885 T 630.638388747713 106.29921 Z" stroke="#05D3B7" fill="#05D3B7" style="stroke-width: 0.5px;"/> <path d="M 179.708791716392 106.29921 Q 179.708791716392 159.448815 367.408649922853 194.881885 T 555.108508129313 283.46456 L 555.084262827718 283.46456 Q 555.084262827718 230.314955 367.396557615869 194.881885 T 179.708852404019 106.29921 Z" stroke="#531BDF" fill="#531BDF" style="stroke-width: 0.5px;"/> <path d="M 386.452879627353 106.29921 Q 386.452879627353 159.448815 470.97465629109 194.881885 T 555.496432954827 283.46456 L 561.43653184552 283.46456 Q 561.43653184552 230.314955 473.944733281005 194.881885 T 386.45293471649 106.29921 Z" stroke="#A34113" fill="#A34113" style="stroke-width: 0.5px;"/> <path d="M 386.452879627353 106.29921 Q 386.452879627353 159.448815 475.728481887234 194.881885 T 565.004084147115 283.46456 L 576.520602404581 283.46456 Q 576.520602404581 230.314955 481.486794313588 194.881885 T 386.452986222595 106.29921 Z" stroke="#A34113" fill="#A34113" style="stroke-width: 0.5px;"/> <path d="M 653.3974788973 106.29921 Q 653.3974788973 159.448815 604.665163640416 194.881885 T 555.932848383531 283.46456 L 557.096622860075 283.46456 Q 557.096622860075 230.314955 605.247056365208 194.881885 T 653.39748987034 106.29921 Z" stroke="#34A696" fill="#34A696" style="stroke-width: 0.5px;"/> <path d="M 179.709038945693 106.29921 Q 179.709038945693 159.448815 368.136132585343 194.881885 T 556.563226224993 283.46456 L 561.43653184552 283.46456 Q 561.43653184552 230.314955 370.572808013504 194.881885 T 179.709084181488 106.29921 Z" stroke="#2B1F24" fill="#2B1F24" style="stroke-width: 0.5px;"/> <path d="M 179.709038945693 106.29921 Q 179.709038945693 159.448815 372.356561546404 194.881885 T 565.004084147115 283.46456 L 567.549840814555 283.46456 Q 567.549840814555 230.314955 373.629451748922 194.881885 T 179.709062683288 106.29921 Z" stroke="#2B1F24" fill="#2B1F24" style="stroke-width: 0.5px;"/> <path d="M 383.095701005826 106.29921 Q 383.095701005826 159.448815 469.890076869396 194.881885 T 556.684452732966 283.46456 L 561.43653184552 283.46456 Q 561.43653184552 230.314955 472.266138483722 194.881885 T 383.095745121924 106.29921 Z" stroke="#32903D" fill="#32903D" style="stroke-width: 0.5px;"/> <path d="M 383.095701005826 106.29921 Q 383.095701005826 159.448815 474.049892576471 194.881885 T 565.004084147115 283.46456 L 569.659182053291 283.46456 Q 569.659182053291 230.314955 476.377463139728 194.881885 T 383.095744226166 106.29921 Z" stroke="#32903D" fill="#32903D" style="stroke-width: 0.5px;"/> <path d="M 525.713606231351 106.29921 Q 525.713606231351 159.448815 548.619838253715 194.881885 T 571.52607027608 283.46456 L 574.290034657872 283.46456 Q 574.290034657872 230.314955 550.001833321137 194.881885 T 525.713631984403 106.29921 Z" stroke="#6A33F8" fill="#6A33F8" style="stroke-width: 0.5px;"/> <path d="M 511.121253074369 106.29921 Q 511.121253074369 159.448815 541.347906976819 194.881885 T 571.574560879269 283.46456 L 577.563150373152 283.46456 Q 577.563150373152 230.314955 544.342229492269 194.881885 T 511.121308611386 106.29921 Z" stroke="#E5FA05" fill="#E5FA05" style="stroke-width: 0.5px;"/> <path d="M 511.121253074369 106.29921 Q 511.121253074369 159.448815 546.125977874558 194.881885 T 581.130702674746 283.46456 L 582.755137881589 283.46456 Q 582.755137881589 230.314955 546.938203091925 194.881885 T 511.121268302261 106.29921 Z" stroke="#E5FA05" fill="#E5FA05" style="stroke-width: 0.5px;"/> <path d="M 511.121253074369 106.29921 Q 511.121253074369 159.448815 560.505188203784 194.881885 T 609.889123333198 283.46456 L 613.69563568356 283.46456 Q 613.69563568356 230.314955 562.408462070192 194.881885 T 511.121288456823 106.29921 Z" stroke="#E5FA05" fill="#E5FA05" style="stroke-width: 0.5px;"/> <path d="M 604.445569141187 106.29921 Q 604.445569141187 159.448815 588.204027422986 194.881885 T 571.962485704784 283.46456 L 577.563150373152 283.46456 Q 577.563150373152 230.314955 591.004385734161 194.881885 T 604.44562109517 106.29921 Z" stroke="#70CA2B" fill="#70CA2B" style="stroke-width: 0.5px;"/> <path d="M 604.445569141187 106.29921 Q 604.445569141187 159.448815 592.788135907967 194.881885 T 581.130702674746 283.46456 L 582.755137881589 283.46456 Q 582.755137881589 230.314955 593.600361125334 194.881885 T 604.445584369079 106.29921 Z" stroke="#70CA2B" fill="#70CA2B" style="stroke-width: 0.5px;"/> <path d="M 604.445569141187 106.29921 Q 604.445569141187 159.448815 607.167346237193 194.881885 T 609.889123333198 283.46456 L 612.410634699043 283.46456 Q 612.410634699043 230.314955 608.428113676943 194.881885 T 604.445592654843 106.29921 Z" stroke="#70CA2B" fill="#70CA2B" style="stroke-width: 0.5px;"/> <path d="M 140.948188202003 106.29921 Q 140.948188202003 159.448815 358.261611922196 194.881885 T 575.575035642389 283.46456 L 577.563150373152 283.46456 Q 577.563150373152 230.314955 359.25567858107 194.881885 T 140.948206788989 106.29921 Z" stroke="#D1C01B" fill="#D1C01B" style="stroke-width: 0.5px;"/> <path d="M 140.948188202003 106.29921 Q 140.948188202003 159.448815 361.039445438375 194.881885 T 581.130702674746 283.46456 L 582.755137881589 283.46456 Q 582.755137881589 230.314955 361.851670655742 194.881885 T 140.948203429895 106.29921 Z" stroke="#D1C01B" fill="#D1C01B" style="stroke-width: 0.5px;"/> <path d="M 140.948188202003 106.29921 Q 140.948188202003 159.448815 363.635439192593 194.881885 T 586.322690183184 283.46456 L 613.792616889939 283.46456 Q 613.792616889939 230.314955 377.370500855448 194.881885 T 140.948384820957 106.29921 Z" stroke="#D1C01B" fill="#D1C01B" style="stroke-width: 0.5px;"/> <path d="M 386.453113868157 106.29921 Q 386.453113868157 159.448815 481.741433803113 194.881885 T 577.029753738069 283.46456 L 577.005508436474 283.46456 Q 577.005508436474 230.314955 481.729315295198 194.881885 T 386.453122153922 106.29921 Z" stroke="#FE1975" fill="#FE1975" style="stroke-width: 0.5px;"/> <path d="M 386.453113868157 106.29921 Q 386.453113868157 159.448815 483.791908271452 194.881885 T 581.130702674746 283.46456 L 582.755137881589 283.46456 Q 582.755137881589 230.314955 484.604133488819 194.881885 T 386.453129096049 106.29921 Z" stroke="#FE1975" fill="#FE1975" style="stroke-width: 0.5px;"/> <path d="M 386.453113868157 106.29921 Q 386.453113868157 159.448815 486.38790202567 194.881885 T 586.322690183184 283.46456 L 613.792616889939 283.46456 Q 613.792616889939 230.314955 500.122883742094 194.881885 T 386.453150594249 106.29921 Z" stroke="#FE1975" fill="#FE1975" style="stroke-width: 0.5px;"/> <path d="M 484.005511934088 106.29921 Q 484.005511934088 159.448815 541.37089826687 194.881885 T 598.736284599652 283.46456 L 598.712039298057 283.46456 Q 598.712039298057 230.314955 541.358789948206 194.881885 T 484.005540598355 106.29921 Z" stroke="#705D4F" fill="#705D4F" style="stroke-width: 0.5px;"/><rect x="124.015745" y="88.582675" rx="2" ry="2" width="43.6347973717203" height="17.71654" style="fill:#f7f7f7;stroke:black;stroke-width:0.5"/> <rect x="171.19384937172" y="88.582675" rx="2" ry="2" width="39.0399053438808" height="17.71654" style="fill:#f7f7f7;stroke:black;stroke-width:0.5"/> <rect x="213.777061715601" y="88.582675" rx="2" ry="2" width="34.8654012119349" height="17.71654" style="fill:#f7f7f7;stroke:black;stroke-width:0.5"/> <rect x="252.185769927536" y="88.582675" rx="2" ry="2" width="20.466756690459" height="17.71654" style="fill:#f7f7f7;stroke:black;stroke-width:0.5"/> <rect x="276.195833617995" y="88.582675" rx="2" ry="2" width="8.50795990845775" height="17.71654" style="fill:#f7f7f7;stroke:black;stroke-width:0.5"/> <rect x="288.247100526453" y="88.582675" rx="2" ry="2" width="6.15891787858494" height="17.71654" style="fill:#f7f7f7;stroke:black;stroke-width:0.5"/> <rect x="297.949325405038" y="88.582675" rx="2" ry="2" width="38.8948254128767" height="17.71654" style="fill:#f7f7f7;stroke:black;stroke-width:0.5"/> <rect x="340.387457817914" y="88.582675" rx="2" ry="2" width="25.0355064591971" height="17.71654" style="fill:#f7f7f7;stroke:black;stroke-width:0.5"/> <rect x="368.966271277112" y="88.582675" rx="2" ry="2" width="26.033403637334" height="17.71654" style="fill:#f7f7f7;stroke:black;stroke-width:0.5"/> <rect x="398.542981914445" y="88.582675" rx="2" ry="2" width="10.7484821597928" height="17.71654" style="fill:#f7f7f7;stroke:black;stroke-width:0.5"/> <rect x="412.834771074238" y="88.582675" rx="2" ry="2" width="19.6068542188432" height="17.71654" style="fill:#f7f7f7;stroke:black;stroke-width:0.5"/> <rect x="435.984932293081" y="88.582675" rx="2" ry="2" width="34.7902224543504" height="17.71654" style="fill:#f7f7f7;stroke:black;stroke-width:0.5"/> <rect x="474.318461747432" y="88.582675" rx="2" ry="2" width="32.1041650115901" height="17.71654" style="fill:#f7f7f7;stroke:black;stroke-width:0.5"/> <rect x="509.965933759022" y="88.582675" rx="2" ry="2" width="36.7029426151432" height="17.71654" style="fill:#f7f7f7;stroke:black;stroke-width:0.5"/> <rect x="550.212183374165" y="88.582675" rx="2" ry="2" width="24.421518986375" height="17.71654" style="fill:#f7f7f7;stroke:black;stroke-width:0.5"/> <rect x="578.17700936054" y="88.582675" rx="2" ry="2" width="18.918179759762" height="17.71654" style="fill:#f7f7f7;stroke:black;stroke-width:0.5"/> <rect x="600.638496120302" y="88.582675" rx="2" ry="2" width="19.0367606959083" height="17.71654" style="fill:#f7f7f7;stroke:black;stroke-width:0.5"/> <rect x="623.21856381621" y="88.582675" rx="2" ry="2" width="15.6311477494385" height="17.71654" style="fill:#f7f7f7;stroke:black;stroke-width:0.5"/> <rect x="642.393018565649" y="88.582675" rx="2" ry="2" width="12.8272517302513" height="17.71654" style="fill:#f7f7f7;stroke:black;stroke-width:0.5"/> <rect x="658.7635772959" y="88.582675" rx="2" ry="2" width="7.43285306465346" height="17.71654" style="fill:#f7f7f7;stroke:black;stroke-width:0.5"/> <rect x="669.739737360554" y="88.582675" rx="2" ry="2" width="3.48859263944627" height="17.71654" style="fill:#f7f7f7;stroke:black;stroke-width:0.5"/> <rect x="124.015745" y="283.46456" rx="2" ry="2" width="1.67292581003189" height="17.71654" style="fill:#f7f7f7;stroke:black;stroke-width:0.5"/> <rect x="129.231977810032" y="283.46456" rx="2" ry="2" width="23.2027536260945" height="17.71654" style="fill:#f7f7f7;stroke:black;stroke-width:0.5"/> <rect x="155.978038436126" y="283.46456" rx="2" ry="2" width="1.6001899052479" height="17.71654" style="fill:#f7f7f7;stroke:black;stroke-width:0.5"/> <rect x="161.121535341374" y="283.46456" rx="2" ry="2" width="38.3318218211656" height="17.71654" style="fill:#f7f7f7;stroke:black;stroke-width:0.5"/> <rect x="202.99666416254" y="283.46456" rx="2" ry="2" width="1.81839761959988" height="17.71654" style="fill:#f7f7f7;stroke:black;stroke-width:0.5"/> <rect x="208.35836878214" y="283.46456" rx="2" ry="2" width="23.0572818165265" height="17.71654" style="fill:#f7f7f7;stroke:black;stroke-width:0.5"/> <rect x="234.958957598666" y="283.46456" rx="2" ry="2" width="1.69717111162656" height="17.71654" style="fill:#f7f7f7;stroke:black;stroke-width:0.5"/> <rect x="240.199435710293" y="283.46456" rx="2" ry="2" width="1.74566171481589" height="17.71654" style="fill:#f7f7f7;stroke:black;stroke-width:0.5"/> <rect x="245.488404425109" y="283.46456" rx="2" ry="2" width="1.67292581003189" height="17.71654" style="fill:#f7f7f7;stroke:black;stroke-width:0.5"/> <rect x="250.704637235141" y="283.46456" rx="2" ry="2" width="25.1666230552624" height="17.71654" style="fill:#f7f7f7;stroke:black;stroke-width:0.5"/> <rect x="279.414567290403" y="283.46456" rx="2" ry="2" width="1.62443520684256" height="17.71654" style="fill:#f7f7f7;stroke:black;stroke-width:0.5"/> <rect x="284.582309497246" y="283.46456" rx="2" ry="2" width="1.62443520684256" height="17.71654" style="fill:#f7f7f7;stroke:black;stroke-width:0.5"/> <rect x="289.750051704088" y="283.46456" rx="2" ry="2" width="1.76990701641055" height="17.71654" style="fill:#f7f7f7;stroke:black;stroke-width:0.5"/> <rect x="295.063265720499" y="283.46456" rx="2" ry="2" width="1.67292581003189" height="17.71654" style="fill:#f7f7f7;stroke:black;stroke-width:0.5"/> <rect x="300.279498530531" y="283.46456" rx="2" ry="2" width="1.6001899052479" height="17.71654" style="fill:#f7f7f7;stroke:black;stroke-width:0.5"/> <rect x="305.422995435778" y="283.46456" rx="2" ry="2" width="37.2407832494056" height="17.71654" style="fill:#f7f7f7;stroke:black;stroke-width:0.5"/> <rect x="346.207085685184" y="283.46456" rx="2" ry="2" width="1.67292581003189" height="17.71654" style="fill:#f7f7f7;stroke:black;stroke-width:0.5"/> <rect x="351.423318495216" y="283.46456" rx="2" ry="2" width="1.67292581003189" height="17.71654" style="fill:#f7f7f7;stroke:black;stroke-width:0.5"/> <rect x="356.639551305248" y="283.46456" rx="2" ry="2" width="16.5110503859669" height="17.71654" style="fill:#f7f7f7;stroke:black;stroke-width:0.5"/> <rect x="376.693908691215" y="283.46456" rx="2" ry="2" width="1.67292581003189" height="17.71654" style="fill:#f7f7f7;stroke:black;stroke-width:0.5"/> <rect x="381.910141501247" y="283.46456" rx="2" ry="2" width="4.7278338109597" height="17.71654" style="fill:#f7f7f7;stroke:black;stroke-width:0.5"/> <rect x="390.181282312206" y="283.46456" rx="2" ry="2" width="16.365578576399" height="17.71654" style="fill:#f7f7f7;stroke:black;stroke-width:0.5"/> <rect x="410.090167888605" y="283.46456" rx="2" ry="2" width="18.9840711486228" height="17.71654" style="fill:#f7f7f7;stroke:black;stroke-width:0.5"/> <rect x="432.617546037228" y="283.46456" rx="2" ry="2" width="1.69717111162656" height="17.71654" style="fill:#f7f7f7;stroke:black;stroke-width:0.5"/> <rect x="437.858024148855" y="283.46456" rx="2" ry="2" width="8.36462905015947" height="17.71654" style="fill:#f7f7f7;stroke:black;stroke-width:0.5"/> <rect x="449.765960199014" y="283.46456" rx="2" ry="2" width="1.62443520684256" height="17.71654" style="fill:#f7f7f7;stroke:black;stroke-width:0.5"/> <rect x="454.933702405857" y="283.46456" rx="2" ry="2" width="7.12811866883155" height="17.71654" style="fill:#f7f7f7;stroke:black;stroke-width:0.5"/> <rect x="465.605128074688" y="283.46456" rx="2" ry="2" width="33.1675725815019" height="17.71654" style="fill:#f7f7f7;stroke:black;stroke-width:0.5"/> <rect x="502.31600765619" y="283.46456" rx="2" ry="2" width="1.67292581003189" height="17.71654" style="fill:#f7f7f7;stroke:black;stroke-width:0.5"/> <rect x="507.532240466222" y="283.46456" rx="2" ry="2" width="1.43047279408524" height="17.71654" style="fill:#f7f7f7;stroke:black;stroke-width:0.5"/> <rect x="512.506020260307" y="283.46456" rx="2" ry="2" width="1.69717111162656" height="17.71654" style="fill:#f7f7f7;stroke:black;stroke-width:0.5"/> <rect x="517.746498371934" y="283.46456" rx="2" ry="2" width="43.7142787751812" height="17.71654" style="fill:#f7f7f7;stroke:black;stroke-width:0.5"/> <rect x="565.004084147115" y="283.46456" rx="2" ry="2" width="12.5833115276312" height="17.71654" style="fill:#f7f7f7;stroke:black;stroke-width:0.5"/> <rect x="581.130702674746" y="283.46456" rx="2" ry="2" width="1.64868050843723" height="17.71654" style="fill:#f7f7f7;stroke:black;stroke-width:0.5"/> <rect x="586.322690183184" y="283.46456" rx="2" ry="2" width="27.4941720083502" height="17.71654" style="fill:#f7f7f7;stroke:black;stroke-width:0.5"/> <rect x="617.360169191534" y="283.46456" rx="2" ry="2" width="1.6001899052479" height="17.71654" style="fill:#f7f7f7;stroke:black;stroke-width:0.5"/> <rect x="622.503666096782" y="283.46456" rx="2" ry="2" width="1.6001899052479" height="17.71654" style="fill:#f7f7f7;stroke:black;stroke-width:0.5"/> <rect x="627.64716300203" y="283.46456" rx="2" ry="2" width="45.5811669979704" height="17.71654" style="fill:#f7f7f7;stroke:black;stroke-width:0.5"/><rect x="124.015745" y="91.582675" rx="2" ry="2" width="43.6347973717203" height="11.71654" style="fill:#969696;stroke:#969696;stroke-width:0.5"/> <rect x="171.19384937172" y="91.582675" rx="2" ry="2" width="39.0399053438808" height="11.71654" style="fill:#969696;stroke:#969696;stroke-width:0.5"/> <rect x="213.777061715601" y="91.582675" rx="2" ry="2" width="34.8654012119349" height="11.71654" style="fill:#969696;stroke:#969696;stroke-width:0.5"/> <rect x="252.185769927536" y="91.582675" rx="2" ry="2" width="20.466756690459" height="11.71654" style="fill:#969696;stroke:#969696;stroke-width:0.5"/> <rect x="276.195833617995" y="91.582675" rx="2" ry="2" width="8.50795990845775" height="11.71654" style="fill:#969696;stroke:#969696;stroke-width:0.5"/> <rect x="288.247100526453" y="91.582675" rx="2" ry="2" width="6.15891787858494" height="11.71654" style="fill:#969696;stroke:#969696;stroke-width:0.5"/> <rect x="297.949325405038" y="91.582675" rx="2" ry="2" width="38.8948254128767" height="11.71654" style="fill:#969696;stroke:#969696;stroke-width:0.5"/> <rect x="340.387457817914" y="91.582675" rx="2" ry="2" width="25.0355064591971" height="11.71654" style="fill:#969696;stroke:#969696;stroke-width:0.5"/> <rect x="368.966271277112" y="91.582675" rx="2" ry="2" width="26.033403637334" height="11.71654" style="fill:#969696;stroke:#969696;stroke-width:0.5"/> <rect x="398.542981914445" y="91.582675" rx="2" ry="2" width="10.7484821597928" height="11.71654" style="fill:#969696;stroke:#969696;stroke-width:0.5"/> <rect x="412.834771074238" y="91.582675" rx="2" ry="2" width="19.6068542188432" height="11.71654" style="fill:#969696;stroke:#969696;stroke-width:0.5"/> <rect x="435.984932293081" y="91.582675" rx="2" ry="2" width="34.7902224543504" height="11.71654" style="fill:#969696;stroke:#969696;stroke-width:0.5"/> <rect x="474.318461747432" y="91.582675" rx="2" ry="2" width="32.1041650115901" height="11.71654" style="fill:#969696;stroke:#969696;stroke-width:0.5"/> <rect x="509.965933759022" y="91.582675" rx="2" ry="2" width="36.7029426151432" height="11.71654" style="fill:#969696;stroke:#969696;stroke-width:0.5"/> <rect x="550.212183374165" y="91.582675" rx="2" ry="2" width="24.421518986375" height="11.71654" style="fill:#969696;stroke:#969696;stroke-width:0.5"/> <rect x="578.17700936054" y="91.582675" rx="2" ry="2" width="18.918179759762" height="11.71654" style="fill:#969696;stroke:#969696;stroke-width:0.5"/> <rect x="600.638496120302" y="91.582675" rx="2" ry="2" width="19.0367606959083" height="11.71654" style="fill:#969696;stroke:#969696;stroke-width:0.5"/> <rect x="623.21856381621" y="91.582675" rx="2" ry="2" width="15.6311477494385" height="11.71654" style="fill:#969696;stroke:#969696;stroke-width:0.5"/> <rect x="642.393018565649" y="91.582675" rx="2" ry="2" width="12.8272517302513" height="11.71654" style="fill:#969696;stroke:#969696;stroke-width:0.5"/> <rect x="658.7635772959" y="91.582675" rx="2" ry="2" width="7.43285306465346" height="11.71654" style="fill:#969696;stroke:#969696;stroke-width:0.5"/> <rect x="669.739737360554" y="91.582675" rx="2" ry="2" width="3.48859263944627" height="11.71654" style="fill:#969696;stroke:#969696;stroke-width:0.5"/> <rect x="124.015745" y="286.46456" rx="2" ry="2" width="1.67292581003189" height="11.71654" style="fill:#969696;stroke:#969696;stroke-width:0.5"/> <rect x="129.231977810032" y="286.46456" rx="2" ry="2" width="23.2027536260945" height="11.71654" style="fill:#969696;stroke:#969696;stroke-width:0.5"/> <rect x="155.978038436126" y="286.46456" rx="2" ry="2" width="1.6001899052479" height="11.71654" style="fill:#969696;stroke:#969696;stroke-width:0.5"/> <rect x="161.121535341374" y="286.46456" rx="2" ry="2" width="38.3318218211656" height="11.71654" style="fill:#969696;stroke:#969696;stroke-width:0.5"/> <rect x="202.99666416254" y="286.46456" rx="2" ry="2" width="1.81839761959988" height="11.71654" style="fill:#969696;stroke:#969696;stroke-width:0.5"/> <rect x="208.35836878214" y="286.46456" rx="2" ry="2" width="23.0572818165265" height="11.71654" style="fill:#969696;stroke:#969696;stroke-width:0.5"/> <rect x="234.958957598666" y="286.46456" rx="2" ry="2" width="1.69717111162656" height="11.71654" style="fill:#969696;stroke:#969696;stroke-width:0.5"/> <rect x="240.199435710293" y="286.46456" rx="2" ry="2" width="1.74566171481589" height="11.71654" style="fill:#969696;stroke:#969696;stroke-width:0.5"/> <rect x="245.488404425109" y="286.46456" rx="2" ry="2" width="1.67292581003189" height="11.71654" style="fill:#969696;stroke:#969696;stroke-width:0.5"/> <rect x="250.704637235141" y="286.46456" rx="2" ry="2" width="25.1666230552624" height="11.71654" style="fill:#969696;stroke:#969696;stroke-width:0.5"/> <rect x="279.414567290403" y="286.46456" rx="2" ry="2" width="1.62443520684256" height="11.71654" style="fill:#969696;stroke:#969696;stroke-width:0.5"/> <rect x="284.582309497246" y="286.46456" rx="2" ry="2" width="1.62443520684256" height="11.71654" style="fill:#969696;stroke:#969696;stroke-width:0.5"/> <rect x="289.750051704088" y="286.46456" rx="2" ry="2" width="1.76990701641055" height="11.71654" style="fill:#969696;stroke:#969696;stroke-width:0.5"/> <rect x="295.063265720499" y="286.46456" rx="2" ry="2" width="1.67292581003189" height="11.71654" style="fill:#969696;stroke:#969696;stroke-width:0.5"/> <rect x="300.279498530531" y="286.46456" rx="2" ry="2" width="1.6001899052479" height="11.71654" style="fill:#969696;stroke:#969696;stroke-width:0.5"/> <rect x="305.422995435778" y="286.46456" rx="2" ry="2" width="37.2407832494056" height="11.71654" style="fill:#969696;stroke:#969696;stroke-width:0.5"/> <rect x="346.207085685184" y="286.46456" rx="2" ry="2" width="1.67292581003189" height="11.71654" style="fill:#969696;stroke:#969696;stroke-width:0.5"/> <rect x="351.423318495216" y="286.46456" rx="2" ry="2" width="1.67292581003189" height="11.71654" style="fill:#969696;stroke:#969696;stroke-width:0.5"/> <rect x="356.639551305248" y="286.46456" rx="2" ry="2" width="16.5110503859669" height="11.71654" style="fill:#969696;stroke:#969696;stroke-width:0.5"/> <rect x="376.693908691215" y="286.46456" rx="2" ry="2" width="1.67292581003189" height="11.71654" style="fill:#969696;stroke:#969696;stroke-width:0.5"/> <rect x="381.910141501247" y="286.46456" rx="2" ry="2" width="4.7278338109597" height="11.71654" style="fill:#969696;stroke:#969696;stroke-width:0.5"/> <rect x="390.181282312206" y="286.46456" rx="2" ry="2" width="16.365578576399" height="11.71654" style="fill:#969696;stroke:#969696;stroke-width:0.5"/> <rect x="410.090167888605" y="286.46456" rx="2" ry="2" width="18.9840711486228" height="11.71654" style="fill:#969696;stroke:#969696;stroke-width:0.5"/> <rect x="432.617546037228" y="286.46456" rx="2" ry="2" width="1.69717111162656" height="11.71654" style="fill:#969696;stroke:#969696;stroke-width:0.5"/> <rect x="437.858024148855" y="286.46456" rx="2" ry="2" width="8.36462905015947" height="11.71654" style="fill:#969696;stroke:#969696;stroke-width:0.5"/> <rect x="449.765960199014" y="286.46456" rx="2" ry="2" width="1.62443520684256" height="11.71654" style="fill:#969696;stroke:#969696;stroke-width:0.5"/> <rect x="454.933702405857" y="286.46456" rx="2" ry="2" width="7.12811866883155" height="11.71654" style="fill:#969696;stroke:#969696;stroke-width:0.5"/> <rect x="465.605128074688" y="286.46456" rx="2" ry="2" width="33.1675725815019" height="11.71654" style="fill:#969696;stroke:#969696;stroke-width:0.5"/> <rect x="502.31600765619" y="286.46456" rx="2" ry="2" width="1.67292581003189" height="11.71654" style="fill:#969696;stroke:#969696;stroke-width:0.5"/> <rect x="507.532240466222" y="286.46456" rx="2" ry="2" width="1.43047279408524" height="11.71654" style="fill:#969696;stroke:#969696;stroke-width:0.5"/> <rect x="512.506020260307" y="286.46456" rx="2" ry="2" width="1.69717111162656" height="11.71654" style="fill:#969696;stroke:#969696;stroke-width:0.5"/> <rect x="517.746498371934" y="286.46456" rx="2" ry="2" width="43.7142787751812" height="11.71654" style="fill:#969696;stroke:#969696;stroke-width:0.5"/> <rect x="565.004084147115" y="286.46456" rx="2" ry="2" width="12.5833115276312" height="11.71654" style="fill:#969696;stroke:#969696;stroke-width:0.5"/> <rect x="581.130702674746" y="286.46456" rx="2" ry="2" width="1.64868050843723" height="11.71654" style="fill:#969696;stroke:#969696;stroke-width:0.5"/> <rect x="586.322690183184" y="286.46456" rx="2" ry="2" width="27.4941720083502" height="11.71654" style="fill:#969696;stroke:#969696;stroke-width:0.5"/> <rect x="617.360169191534" y="286.46456" rx="2" ry="2" width="1.6001899052479" height="11.71654" style="fill:#969696;stroke:#969696;stroke-width:0.5"/> <rect x="622.503666096782" y="286.46456" rx="2" ry="2" width="1.6001899052479" height="11.71654" style="fill:#969696;stroke:#969696;stroke-width:0.5"/> <rect x="627.64716300203" y="286.46456" rx="2" ry="2" width="45.5811669979704" height="11.71654" style="fill:#969696;stroke:#969696;stroke-width:0.5"/></svg>